<svg id="visual" viewBox="0 0 1900 1080" width="1900" height="1080" xmlns="http://www.w3.org/2000/svg" xmlns:xlink="http://www.w3.org/1999/xlink" version="1.1"><rect x="0" y="0" width="1900" height="1080" fill="#ffffff"></rect><defs><linearGradient id="grad1_0" x1="43.2%" y1="0%" x2="100%" y2="100%"><stop offset="14.814814814814815%" stop-color="#44aea4" stop-opacity="1"></stop><stop offset="85.18518518518519%" stop-color="#44aea4" stop-opacity="1"></stop></linearGradient></defs><defs><linearGradient id="grad1_1" x1="43.2%" y1="0%" x2="100%" y2="100%"><stop offset="14.814814814814815%" stop-color="#44aea4" stop-opacity="1"></stop><stop offset="85.18518518518519%" stop-color="#70beb6" stop-opacity="1"></stop></linearGradient></defs><defs><linearGradient id="grad1_2" x1="43.2%" y1="0%" x2="100%" y2="100%"><stop offset="14.814814814814815%" stop-color="#96cfc7" stop-opacity="1"></stop><stop offset="85.18518518518519%" stop-color="#70beb6" stop-opacity="1"></stop></linearGradient></defs><defs><linearGradient id="grad1_3" x1="43.2%" y1="0%" x2="100%" y2="100%"><stop offset="14.814814814814815%" stop-color="#96cfc7" stop-opacity="1"></stop><stop offset="85.18518518518519%" stop-color="#badfda" stop-opacity="1"></stop></linearGradient></defs><defs><linearGradient id="grad1_4" x1="43.2%" y1="0%" x2="100%" y2="100%"><stop offset="14.814814814814815%" stop-color="#ddefec" stop-opacity="1"></stop><stop offset="85.18518518518519%" stop-color="#badfda" stop-opacity="1"></stop></linearGradient></defs><defs><linearGradient id="grad1_5" x1="43.2%" y1="0%" x2="100%" y2="100%"><stop offset="14.814814814814815%" stop-color="#ddefec" stop-opacity="1"></stop><stop offset="85.18518518518519%" stop-color="#ffffff" stop-opacity="1"></stop></linearGradient></defs><defs><linearGradient id="grad2_0" x1="0%" y1="0%" x2="56.8%" y2="100%"><stop offset="14.814814814814815%" stop-color="#44aea4" stop-opacity="1"></stop><stop offset="85.18518518518519%" stop-color="#44aea4" stop-opacity="1"></stop></linearGradient></defs><defs><linearGradient id="grad2_1" x1="0%" y1="0%" x2="56.8%" y2="100%"><stop offset="14.814814814814815%" stop-color="#70beb6" stop-opacity="1"></stop><stop offset="85.18518518518519%" stop-color="#44aea4" stop-opacity="1"></stop></linearGradient></defs><defs><linearGradient id="grad2_2" x1="0%" y1="0%" x2="56.8%" y2="100%"><stop offset="14.814814814814815%" stop-color="#70beb6" stop-opacity="1"></stop><stop offset="85.18518518518519%" stop-color="#96cfc7" stop-opacity="1"></stop></linearGradient></defs><defs><linearGradient id="grad2_3" x1="0%" y1="0%" x2="56.8%" y2="100%"><stop offset="14.814814814814815%" stop-color="#badfda" stop-opacity="1"></stop><stop offset="85.18518518518519%" stop-color="#96cfc7" stop-opacity="1"></stop></linearGradient></defs><defs><linearGradient id="grad2_4" x1="0%" y1="0%" x2="56.8%" y2="100%"><stop offset="14.814814814814815%" stop-color="#badfda" stop-opacity="1"></stop><stop offset="85.18518518518519%" stop-color="#ddefec" stop-opacity="1"></stop></linearGradient></defs><defs><linearGradient id="grad2_5" x1="0%" y1="0%" x2="56.8%" y2="100%"><stop offset="14.814814814814815%" stop-color="#ffffff" stop-opacity="1"></stop><stop offset="85.18518518518519%" stop-color="#ddefec" stop-opacity="1"></stop></linearGradient></defs><g transform="translate(1900, 0)"><path d="M0 486C-69.7 471.7 -139.4 457.4 -168.8 407.4C-198.1 357.5 -187.1 272 -236.9 236.9C-286.7 201.8 -397.3 217.1 -449 186C-500.7 154.9 -493.3 77.5 -486 0L0 0Z" fill="#eef7f6"></path><path d="M0 405C-58.1 393.1 -116.2 381.1 -140.6 339.5C-165.1 297.9 -155.9 226.7 -197.4 197.4C-238.9 168.1 -331.1 180.9 -374.2 155C-417.2 129.1 -411.1 64.5 -405 0L0 0Z" fill="#cbe7e3"></path><path d="M0 324C-46.5 314.5 -92.9 304.9 -112.5 271.6C-132.1 238.3 -124.7 181.3 -157.9 157.9C-191.1 134.5 -264.9 144.7 -299.3 124C-333.8 103.3 -328.9 51.6 -324 0L0 0Z" fill="#a8d7d1"></path><path d="M0 243C-34.9 235.8 -69.7 228.7 -84.4 203.7C-99.1 178.8 -93.5 136 -118.4 118.4C-143.3 100.9 -198.7 108.5 -224.5 93C-250.3 77.5 -246.7 38.7 -243 0L0 0Z" fill="#84c6be"></path><path d="M0 162C-23.2 157.2 -46.5 152.5 -56.3 135.8C-66 119.2 -62.4 90.7 -79 79C-95.6 67.3 -132.4 72.4 -149.7 62C-166.9 51.6 -164.4 25.8 -162 0L0 0Z" fill="#5cb6ad"></path><path d="M0 81C-11.6 78.6 -23.2 76.2 -28.1 67.9C-33 59.6 -31.2 45.3 -39.5 39.5C-47.8 33.6 -66.2 36.2 -74.8 31C-83.4 25.8 -82.2 12.9 -81 0L0 0Z" fill="#44aea4"></path></g><g transform="translate(0, 1080)"><path d="M0 -486C57 -442.2 114 -398.3 146.6 -353.8C179.1 -309.4 187.2 -264.3 242.5 -242.5C297.9 -220.8 400.5 -222.5 449 -186C497.5 -149.5 491.7 -74.7 486 0L0 0Z" fill="#eef7f6"></path><path d="M0 -405C47.5 -368.5 95 -331.9 122.1 -294.9C149.3 -257.8 156 -220.2 202.1 -202.1C248.2 -184 333.8 -185.4 374.2 -155C414.6 -124.6 409.8 -62.3 405 0L0 0Z" fill="#cbe7e3"></path><path d="M0 -324C38 -294.8 76 -265.5 97.7 -235.9C119.4 -206.2 124.8 -176.2 161.7 -161.7C198.6 -147.2 267 -148.3 299.3 -124C331.6 -99.6 327.8 -49.8 324 0L0 0Z" fill="#a8d7d1"></path><path d="M0 -243C28.5 -221.1 57 -199.2 73.3 -176.9C89.6 -154.7 93.6 -132.1 121.3 -121.3C148.9 -110.4 200.3 -111.3 224.5 -93C248.7 -74.7 245.9 -37.4 243 0L0 0Z" fill="#84c6be"></path><path d="M0 -162C19 -147.4 38 -132.8 48.9 -117.9C59.7 -103.1 62.4 -88.1 80.8 -80.8C99.3 -73.6 133.5 -74.2 149.7 -62C165.8 -49.8 163.9 -24.9 162 0L0 0Z" fill="#5cb6ad"></path><path d="M0 -81C9.5 -73.7 19 -66.4 24.4 -59C29.9 -51.6 31.2 -44 40.4 -40.4C49.6 -36.8 66.8 -37.1 74.8 -31C82.9 -24.9 82 -12.5 81 0L0 0Z" fill="#44aea4"></path></g></svg>