<?xml version="1.0" encoding="UTF-8" standalone="no"?>
<!DOCTYPE svg PUBLIC "-//W3C//DTD SVG 1.1//EN" "http://www.w3.org/Graphics/SVG/1.1/DTD/svg11.dtd">
<svg xmlns="http://www.w3.org/2000/svg" version="1.1" viewBox="0 0 500 500">
<g stroke-width="2.00" fill="none" stroke-linecap="butt">
<path stroke="#8c8c8c" vector-effect="non-scaling-stroke" d="
  M 172.96 108.25
  Q 167.00 107.62 161.04 108.25"
/>
<path stroke="#639e93" vector-effect="non-scaling-stroke" d="
  M 181.07 28.92
  Q 177.27 25.86 172.68 25.27
  Q 172.56 25.25 163.80 25.29
  Q 155.25 25.32 146.94 25.07
  A 0.92 0.92 0.6 0 0 146.00 25.99
  L 146.00 84.01
  A 0.99 0.99 0.5 0 0 146.99 85.00
  L 154.90 85.00
  A 0.68 0.67 90.0 0 0 155.57 84.32
  L 155.51 62.78
  A 0.78 0.77 -0.4 0 1 156.29 62.00
  Q 163.50 62.00 169.50 62.16
  Q 176.24 62.34 181.31 58.06
  Q 187.31 53.00 188.34 45.72
  Q 189.02 40.90 187.03 36.52
  Q 185.02 32.11 181.07 28.92"
/>
<path stroke="#639e93" vector-effect="non-scaling-stroke" d="
  M 172.47 34.45
  Q 170.56 33.86 168.50 33.90
  Q 163.00 34.00 156.23 34.00
  A 0.80 0.80 88.0 0 0 155.43 34.86
  Q 156.07 43.38 155.45 51.67
  A 1.45 1.44 -86.9 0 0 156.84 53.22
  Q 162.39 53.41 168.57 53.17
  Q 172.91 52.99 175.05 51.44
  Q 178.25 49.11 178.75 44.75
  Q 179.33 39.74 175.86 36.44
  Q 174.40 35.05 172.47 34.45"
/>
<path stroke="#858585" vector-effect="non-scaling-stroke" d="
  M 161.75 250.04
  Q 167.81 244.55 173.00 238.21"
/>
<path stroke="#373737" vector-effect="non-scaling-stroke" d="
  M 233.66 420.97
  Q 239.79 421.84 245.94 421.35
  Q 246.45 421.31 245.93 421.30
  Q 239.78 421.13 233.67 420.52
  Q 233.49 420.50 233.33 420.54
  Q 232.32 420.78 233.66 420.97"
/>
<path stroke="#252524" stroke-opacity="0.690" vector-effect="non-scaling-stroke" d="
  M 288.75 422.79
  L 252.81 421.82
  Q 251.95 421.79 252.80 421.85
  L 280.25 423.46"
/>
<path stroke="#252524" stroke-opacity="0.690" vector-effect="non-scaling-stroke" d="
  M 200.50 470.71
  Q 195.40 469.96 190.26 470.22
  Q 189.72 470.25 190.20 470.48
  Q 192.22 471.44 194.50 471.46"
/>
</g>
<path fill="#3d3d3d" d="
  M 172.96 108.25
  Q 167.00 107.62 161.04 108.25
  Q 160.87 108.06 160.66 107.93
  Q 160.47 107.81 160.19 107.82
  Q 144.38 108.27 128.58 107.86
  Q 123.88 107.74 121.20 106.34
  Q 115.70 103.46 114.38 97.50
  Q 114.00 95.76 114.00 86.98
  Q 114.00 51.86 113.99 16.75
  Q 113.99 12.96 116.01 9.82
  Q 119.08 5.03 124.10 4.09
  Q 124.60 4.00 133.42 4.00
  Q 170.58 4.00 207.75 4.00
  Q 210.66 4.00 212.82 5.26
  Q 216.48 7.41 218.48 10.93
  Q 219.74 13.14 219.79 16.85
  Q 220.33 55.48 219.80 94.11
  Q 219.74 98.16 218.46 100.63
  Q 215.48 106.35 209.39 107.66
  Q 207.80 108.00 198.59 108.01
  Q 186.45 108.03 174.31 107.94
  Q 173.44 107.37 172.96 108.25
  Z
  M 181.07 28.92
  Q 177.27 25.86 172.68 25.27
  Q 172.56 25.25 163.80 25.29
  Q 155.25 25.32 146.94 25.07
  A 0.92 0.92 0.6 0 0 146.00 25.99
  L 146.00 84.01
  A 0.99 0.99 0.5 0 0 146.99 85.00
  L 154.90 85.00
  A 0.68 0.67 90.0 0 0 155.57 84.32
  L 155.51 62.78
  A 0.78 0.77 -0.4 0 1 156.29 62.00
  Q 163.50 62.00 169.50 62.16
  Q 176.24 62.34 181.31 58.06
  Q 187.31 53.00 188.34 45.72
  Q 189.02 40.90 187.03 36.52
  Q 185.02 32.11 181.07 28.92
  Z"
/>
<path fill="#89ffe8" d="
  M 181.07 28.92
  Q 185.02 32.11 187.03 36.52
  Q 189.02 40.90 188.34 45.72
  Q 187.31 53.00 181.31 58.06
  Q 176.24 62.34 169.50 62.16
  Q 163.50 62.00 156.29 62.00
  A 0.78 0.77 -0.4 0 0 155.51 62.78
  L 155.57 84.32
  A 0.68 0.67 90.0 0 1 154.90 85.00
  L 146.99 85.00
  A 0.99 0.99 0.5 0 1 146.00 84.01
  L 146.00 25.99
  A 0.92 0.92 0.6 0 1 146.94 25.07
  Q 155.25 25.32 163.80 25.29
  Q 172.56 25.25 172.68 25.27
  Q 177.27 25.86 181.07 28.92
  Z
  M 172.47 34.45
  Q 170.56 33.86 168.50 33.90
  Q 163.00 34.00 156.23 34.00
  A 0.80 0.80 88.0 0 0 155.43 34.86
  Q 156.07 43.38 155.45 51.67
  A 1.45 1.44 -86.9 0 0 156.84 53.22
  Q 162.39 53.41 168.57 53.17
  Q 172.91 52.99 175.05 51.44
  Q 178.25 49.11 178.75 44.75
  Q 179.33 39.74 175.86 36.44
  Q 174.40 35.05 172.47 34.45
  Z"
/>
<path fill="#3d3d3d" d="
  M 175.86 36.44
  Q 179.33 39.74 178.75 44.75
  Q 178.25 49.11 175.05 51.44
  Q 172.91 52.99 168.57 53.17
  Q 162.39 53.41 156.84 53.22
  A 1.45 1.44 -86.9 0 1 155.45 51.67
  Q 156.07 43.38 155.43 34.86
  A 0.80 0.80 88.0 0 1 156.23 34.00
  Q 163.00 34.00 168.50 33.90
  Q 170.56 33.86 172.47 34.45
  Q 174.40 35.05 175.86 36.44
  Z"
/>
<path fill="#303030" d="
  M 500.00 55.06
  L 500.00 60.06
  Q 498.85 60.48 495.75 60.50
  Q 413.67 61.01 332.67 69.18
  Q 330.90 69.36 331.81 67.82
  Q 334.23 63.70 338.45 61.47
  Q 339.19 61.07 339.68 60.07
  Q 339.88 59.66 339.47 59.86
  Q 331.76 63.67 325.74 69.99
  Q 311.11 85.37 299.03 102.83
  Q 278.66 132.28 261.38 163.79
  Q 261.26 164.02 261.52 164.00
  Q 379.38 156.57 497.50 156.50
  Q 499.31 156.50 500.00 156.81
  L 500.00 415.31
  Q 499.83 415.38 499.72 415.52
  A 0.76 0.45 -61.3 0 1 499.23 415.81
  Q 438.51 415.47 376.11 410.34
  Q 375.25 410.27 375.65 411.04
  Q 380.26 419.81 385.31 426.94
  Q 389.85 433.34 395.60 437.17
  Q 398.86 439.34 404.02 440.47
  Q 411.89 442.17 418.00 442.75
  Q 456.08 446.33 498.56 445.81
  Q 499.61 445.80 500.00 446.56
  L 500.00 463.56
  Q 426.13 464.86 357.00 460.00
  Q 347.94 459.36 344.29 459.27
  Q 343.90 459.26 342.74 459.09
  Q 340.76 458.80 341.76 460.81
  A 0.90 0.84 -10.7 0 0 342.50 461.28
  Q 421.16 466.51 500.00 465.81
  L 500.00 481.81
  L 499.74 482.01
  A 1.08 0.47 -47.4 0 1 499.18 482.26
  Q 478.84 483.00 458.50 482.55
  Q 441.95 482.18 438.49 482.17
  Q 422.24 482.12 410.25 482.75
  Q 392.02 483.70 371.86 487.70
  Q 366.49 488.76 361.53 488.84
  Q 341.39 489.16 321.24 489.23
  Q 316.89 489.25 301.25 489.42
  Q 278.86 489.66 256.49 488.73
  Q 251.50 488.53 246.56 487.73
  Q 244.96 487.47 245.51 488.22
  Q 245.70 488.49 246.11 488.61
  Q 258.50 492.50 271.50 491.49
  Q 273.73 491.32 273.33 493.08
  Q 273.03 494.38 272.99 494.97
  Q 272.80 498.01 270.44 500.00
  L 168.69 500.00
  Q 159.37 494.08 155.06 484.50
  Q 153.05 480.04 151.80 470.67
  Q 150.32 459.63 150.00 456.50
  Q 148.42 441.28 149.85 428.05
  Q 150.24 424.42 153.62 425.78
  Q 160.48 428.54 166.79 432.27
  Q 167.11 432.46 167.37 432.51
  Q 168.21 432.66 167.89 431.99
  Q 167.79 431.78 167.55 431.55
  Q 160.68 424.89 150.40 422.83
  A 0.83 0.81 4.6 0 1 149.74 422.07
  L 145.13 331.78
  Q 145.03 329.77 146.44 331.20
  Q 152.07 336.88 161.45 336.31
  Q 162.51 336.25 161.48 336.00
  Q 151.35 333.52 145.35 325.10
  A 1.59 1.53 28.4 0 1 145.06 324.20
  Q 144.92 312.49 146.25 302.25
  Q 148.95 281.48 155.27 260.41
  Q 156.27 257.08 157.35 255.40
  Q 158.92 253.00 161.19 251.44
  Q 162.11 250.80 161.75 250.04
  Q 167.81 244.55 173.00 238.21
  Q 173.67 238.14 174.00 237.61
  Q 174.44 236.91 174.50 236.84
  Q 199.62 208.83 231.90 189.45
  Q 232.40 189.15 232.25 189.75
  Q 232.20 189.92 232.06 190.07
  Q 225.47 197.04 220.81 207.06
  Q 220.34 208.08 220.94 208.20
  A 0.90 0.62 -63.8 0 0 221.71 207.77
  Q 227.83 198.29 235.38 189.88
  Q 239.58 185.20 243.37 180.80
  A 0.76 0.76 -63.7 0 0 242.95 179.56
  Q 236.25 178.22 229.43 178.07
  A 0.52 0.52 0.6 0 1 228.92 177.55
  Q 228.88 173.24 232.91 171.37
  Q 236.03 169.92 239.34 168.95
  A 1.05 0.50 -11.4 0 0 240.07 168.40
  Q 240.15 167.94 238.73 168.09
  Q 229.80 169.01 225.47 177.49
  A 1.74 1.74 -77.8 0 1 224.01 178.43
  Q 217.84 178.73 212.44 177.91
  Q 206.09 176.94 201.63 174.20
  Q 190.42 167.28 194.77 152.90
  Q 195.52 150.42 197.41 148.92
  Q 201.10 146.00 206.44 144.19
  Q 224.49 138.05 241.95 142.68
  A 1.64 1.41 -8.1 0 1 242.76 143.20
  Q 244.41 145.33 244.25 148.50
  Q 243.78 157.94 244.75 161.50
  Q 245.49 164.19 247.55 164.61
  A 1.81 1.80 -70.0 0 0 249.49 163.70
  Q 256.49 150.80 263.67 138.18
  Q 282.13 105.79 310.19 79.19
  Q 323.19 66.86 333.43 58.62
  A 1.56 1.51 22.8 0 1 334.31 58.28
  Q 377.41 55.01 393.75 55.00
  Q 446.88 54.95 500.00 55.06
  Z
  M 297.92 258.31
  Q 318.17 259.15 338.65 261.80
  A 1.46 1.45 -74.9 0 0 340.19 260.91
  Q 341.26 258.27 339.27 258.34
  Q 337.41 258.40 337.23 258.38
  Q 319.12 256.34 299.19 255.69
  A 1.46 1.46 79.7 0 1 297.89 254.79
  Q 289.64 235.04 280.94 216.06
  Q 280.76 215.68 280.58 215.61
  Q 280.13 215.46 280.39 216.09
  L 297.02 257.68
  A 1.03 1.03 -10.0 0 0 297.92 258.31
  Z
  M 318.91 320.26
  Q 326.99 336.42 333.02 353.45
  Q 338.55 369.05 344.53 384.49
  Q 358.81 421.35 387.11 450.25
  A 3.00 2.96 -16.4 0 0 388.65 451.08
  Q 402.65 453.86 416.02 454.77
  Q 451.49 457.20 487.12 455.24
  Q 489.63 455.11 487.12 454.94
  Q 476.64 454.27 465.25 454.35
  Q 440.59 454.54 416.07 451.87
  Q 404.87 450.65 393.92 448.03
  Q 391.74 447.51 390.07 446.03
  Q 375.40 432.99 365.00 416.27
  Q 356.13 402.03 350.31 387.69
  Q 344.68 373.81 337.17 352.90
  Q 330.66 334.78 321.97 317.61
  Q 306.81 287.66 291.60 258.13
  A 1.17 1.15 -13.2 0 0 290.56 257.50
  Q 258.21 257.53 228.26 247.11
  Q 228.23 247.09 226.24 246.37
  Q 210.84 240.80 195.31 244.81
  Q 183.70 247.81 168.53 253.15
  A 0.83 0.83 85.1 0 0 167.98 253.80
  Q 165.37 269.04 164.82 284.50
  Q 164.29 299.70 178.45 304.39
  Q 188.55 307.73 197.00 309.25
  Q 217.91 313.00 242.75 315.25
  Q 271.45 317.85 318.18 319.79
  A 0.86 0.84 -11.6 0 1 318.91 320.26
  Z
  M 361.46 322.53
  Q 373.47 332.51 388.98 334.88
  Q 397.15 336.13 406.75 336.50
  Q 422.93 337.12 431.00 337.07
  Q 449.61 336.96 468.23 336.61
  Q 478.07 336.43 479.73 335.98
  Q 485.90 334.32 488.94 327.69
  Q 492.89 319.05 493.46 309.51
  Q 494.08 299.14 493.62 288.74
  Q 493.00 274.84 491.42 260.24
  A 1.43 1.43 -88.4 0 0 490.24 258.99
  Q 487.61 258.54 486.28 255.77
  Q 485.44 254.02 484.11 252.73
  Q 482.94 251.58 480.86 251.33
  Q 470.11 249.99 443.75 247.75
  Q 411.78 245.03 384.61 246.15
  Q 377.07 246.46 370.94 247.35
  Q 362.58 248.57 357.50 250.25
  Q 350.57 252.55 347.69 255.44
  Q 345.54 257.59 344.75 261.25
  Q 339.45 285.88 350.01 307.84
  Q 354.14 316.44 361.46 322.53
  Z
  M 260.50 403.75
  Q 265.61 403.89 288.03 405.17
  Q 295.01 405.57 307.95 406.71
  Q 318.96 407.67 329.99 408.22
  A 1.42 1.24 24.5 0 0 330.90 407.95
  Q 333.57 405.86 329.84 405.75
  Q 328.25 405.70 328.16 405.70
  Q 305.32 404.31 282.50 402.78
  Q 249.65 400.58 216.76 401.72
  Q 207.72 402.04 198.82 403.60
  Q 191.59 404.86 185.81 407.56
  Q 178.06 411.19 173.83 419.04
  Q 172.61 421.31 174.09 420.02
  Q 174.29 419.84 174.50 419.56
  Q 177.08 416.15 180.81 414.06
  Q 189.08 409.40 199.95 407.41
  A 2.81 2.78 -32.0 0 1 202.11 407.90
  Q 209.34 413.11 210.05 420.54
  Q 210.74 427.64 205.79 433.33
  Q 199.71 440.31 188.74 439.03
  Q 188.45 439.00 188.28 439.06
  Q 187.83 439.23 189.00 439.49
  Q 197.97 441.47 205.07 437.52
  Q 211.85 433.76 214.05 426.95
  Q 216.43 419.61 211.61 411.86
  Q 209.79 408.92 206.88 407.32
  Q 204.53 406.03 207.20 405.75
  Q 233.80 403.01 260.50 403.75
  Z
  M 233.66 420.97
  Q 239.79 421.84 245.94 421.35
  Q 246.45 421.31 245.93 421.30
  Q 239.78 421.13 233.67 420.52
  Q 233.49 420.50 233.33 420.54
  Q 232.32 420.78 233.66 420.97
  Z
  M 280.25 423.46
  Q 312.73 425.19 345.07 429.26
  Q 345.95 429.37 345.39 428.68
  L 343.00 425.70
  A 1.09 1.09 -18.0 0 0 342.19 425.29
  L 288.75 422.79
  L 252.81 421.82
  Q 251.95 421.79 252.80 421.85
  L 280.25 423.46
  Z
  M 194.50 471.46
  Q 224.70 474.65 231.75 475.50
  Q 267.13 479.79 302.75 480.72
  Q 317.76 481.11 331.25 479.25
  Q 337.24 478.42 343.11 475.36
  Q 343.47 475.17 343.67 474.88
  Q 344.38 473.82 342.75 474.27
  Q 330.85 477.54 318.50 478.01
  Q 301.25 478.67 284.01 477.58
  Q 242.19 474.93 200.50 470.71
  Q 195.40 469.96 190.26 470.22
  Q 189.72 470.25 190.20 470.48
  Q 192.22 471.44 194.50 471.46
  Z"
/>
<path fill="#dadada" d="
  M 172.96 108.25
  L 173.00 238.21
  Q 167.81 244.55 161.75 250.04
  Q 161.00 249.63 161.00 248.25
  Q 160.97 178.25 161.04 108.25
  Q 167.00 107.62 172.96 108.25
  Z"
/>
<path fill="#303030" d="
  M 192.70 298.54
  Q 182.62 290.10 182.22 276.75
  Q 181.92 266.76 187.81 258.81
  Q 188.59 257.75 188.26 258.88
  Q 187.55 261.27 187.36 263.76
  Q 186.13 279.71 196.27 288.92
  Q 204.06 295.99 214.32 296.44
  Q 225.95 296.96 235.20 287.68
  Q 236.52 286.35 235.75 288.06
  Q 230.48 299.68 218.94 303.51
  Q 212.03 305.79 205.42 304.60
  Q 198.44 303.34 192.70 298.54
  Z"
/>
<path fill="#303030" d="
  M 359.13 302.20
  Q 355.99 298.79 354.28 293.57
  Q 351.17 284.13 350.25 270.75
  Q 349.88 265.38 350.68 262.29
  A 0.76 0.73 2.7 0 1 351.31 261.74
  Q 354.43 261.32 357.45 262.17
  A 0.71 0.70 -84.3 0 1 357.97 262.81
  L 360.28 301.71
  Q 360.39 303.57 359.13 302.20
  Z"
/>
<path fill="#303030" d="
  M 364.10 306.09
  A 2.65 2.60 -76.2 0 1 362.86 304.00
  L 360.58 262.82
  A 0.54 0.53 86.0 0 1 361.06 262.26
  Q 364.44 261.95 367.76 262.64
  A 0.67 0.67 4.6 0 1 368.28 263.25
  L 371.03 308.79
  Q 371.13 310.46 369.72 309.58
  L 364.10 306.09
  Z"
/>
<path fill="#303030" d="
  M 374.45 311.57
  A 1.68 1.67 -76.9 0 1 373.60 310.20
  L 370.95 263.62
  A 0.84 0.83 89.7 0 1 371.81 262.73
  L 378.45 263.02
  A 0.56 0.54 89.4 0 1 378.97 263.55
  L 381.67 313.44
  A 0.42 0.42 2.9 0 1 381.19 313.87
  Q 377.62 313.35 374.45 311.57
  Z"
/>
<path fill="#303030" d="
  M 385.16 315.36
  A 1.71 1.70 -80.9 0 1 384.08 313.86
  L 381.51 264.28
  A 0.96 0.90 -89.8 0 1 382.47 263.26
  L 389.00 263.67
  A 0.62 0.56 89.8 0 1 389.53 264.25
  L 392.23 316.26
  A 0.47 0.46 -1.1 0 1 391.75 316.75
  Q 388.60 316.70 385.16 315.36
  Z"
/>
<path fill="#303030" d="
  M 395.65 317.80
  A 1.14 1.03 -86.3 0 1 394.82 316.75
  L 392.19 264.72
  A 0.85 0.79 89.9 0 1 393.02 263.82
  L 399.69 264.20
  A 0.65 0.56 89.8 0 1 400.22 264.81
  L 403.02 318.10
  A 0.98 0.91 -85.8 0 1 401.92 319.12
  L 395.65 317.80
  Z"
/>
<path fill="#303030" d="
  M 485.32 263.94
  A 0.68 0.62 77.6 0 1 485.97 264.40
  Q 487.64 269.29 488.10 274.55
  Q 489.26 287.79 487.87 301.01
  Q 487.19 307.45 485.23 313.62
  Q 484.28 316.61 482.03 318.72
  Q 481.54 319.19 481.50 318.51
  L 478.73 264.93
  A 0.51 0.46 87.0 0 1 479.16 264.40
  L 485.32 263.94
  Z"
/>
<path fill="#303030" d="
  M 407.03 319.83
  A 1.87 1.59 89.9 0 1 405.53 318.07
  L 402.82 264.80
  A 0.62 0.60 -0.9 0 1 403.45 264.17
  L 409.85 264.26
  A 1.32 1.28 -1.1 0 1 411.16 265.48
  L 413.92 319.69
  A 0.51 0.46 89.8 0 1 413.44 320.23
  L 407.03 319.83
  Z"
/>
<path fill="#303030" d="
  M 417.50 320.82
  A 1.10 1.04 -89.5 0 1 416.54 319.78
  L 413.77 265.25
  A 0.55 0.54 85.5 0 1 414.24 264.68
  Q 417.54 264.25 421.43 264.86
  A 0.67 0.66 2.7 0 1 422.00 265.48
  L 424.82 320.46
  A 0.80 0.78 -89.4 0 1 423.99 321.30
  L 417.50 320.82
  Z"
/>
<rect fill="#303030" x="-4.19" y="-27.89" transform="translate(473.49,292.46) rotate(-3.0)" width="8.38" height="55.78" rx="0.64"/>
<path fill="#303030" d="
  M 428.55 321.57
  A 1.12 1.12 0.3 0 1 427.50 320.51
  L 424.54 265.69
  A 0.89 0.86 89.6 0 1 425.43 264.75
  L 431.93 265.02
  A 1.09 1.03 89.6 0 1 432.92 266.05
  L 435.80 320.39
  A 1.44 1.42 -89.8 0 1 434.30 321.90
  L 428.55 321.57
  Z"
/>
<rect fill="#303030" x="-4.16" y="-28.10" transform="translate(462.72,293.03) rotate(-3.0)" width="8.32" height="56.20" rx="0.79"/>
<path fill="#303030" d="
  M 438.94 321.70
  A 0.74 0.67 89.4 0 1 438.29 320.99
  L 435.46 266.45
  A 1.51 1.34 -0.4 0 1 437.02 265.04
  L 442.62 265.21
  A 1.12 1.01 -0.2 0 1 443.69 266.17
  L 446.56 320.99
  A 0.87 0.82 89.0 0 1 445.73 321.91
  L 438.94 321.70
  Z"
/>
<rect fill="#303030" x="-4.20" y="-28.24" transform="translate(451.88,293.42) rotate(-3.0)" width="8.40" height="56.48" rx="0.77"/>
<path fill="#303030" d="
  M 267.48 306.76
  Q 260.88 298.48 266.82 287.82
  Q 266.93 287.61 267.10 287.55
  Q 267.47 287.42 267.36 287.89
  Q 265.28 296.92 270.51 302.75
  Q 274.69 307.41 280.67 308.12
  Q 287.07 308.88 292.52 303.86
  Q 294.21 302.29 293.07 304.30
  Q 291.36 307.30 288.79 309.44
  Q 286.18 311.60 282.94 312.41
  Q 278.37 313.55 274.14 311.87
  Q 270.37 310.37 267.48 306.76
  Z"
/>
<path fill="#3d3d3d" d="
  M 233.66 420.97
  Q 232.32 420.78 233.33 420.54
  Q 233.49 420.50 233.67 420.52
  Q 239.78 421.13 245.93 421.30
  Q 246.45 421.31 245.94 421.35
  Q 239.79 421.84 233.66 420.97
  Z"
/>
<path fill="#080805" fill-opacity="0.376" d="
  M 288.75 422.79
  L 280.25 423.46
  L 252.80 421.85
  Q 251.95 421.79 252.81 421.82
  L 288.75 422.79
  Z"
/>
<path fill="#080805" fill-opacity="0.376" d="
  M 200.50 470.71
  Q 197.31 470.25 194.50 471.46
  Q 192.22 471.44 190.20 470.48
  Q 189.72 470.25 190.26 470.22
  Q 195.40 469.96 200.50 470.71
  Z"
/>
</svg>
