<svg id="visual" viewBox="0 0 900 600" width="900" height="600" xmlns="http://www.w3.org/2000/svg" xmlns:xlink="http://www.w3.org/1999/xlink" version="1.1"><path d="M279 0L291.7 14.3C304.3 28.7 329.7 57.3 348.3 85.8C367 114.3 379 142.7 373.3 171.2C367.7 199.7 344.3 228.3 354.2 257C364 285.7 407 314.3 426.2 343C445.3 371.7 440.7 400.3 422.5 428.8C404.3 457.3 372.7 485.7 364.7 514.2C356.7 542.7 372.3 571.3 380.2 585.7L388 600L0 600L0 585.7C0 571.3 0 542.7 0 514.2C0 485.7 0 457.3 0 428.8C0 400.3 0 371.7 0 343C0 314.3 0 285.7 0 257C0 228.3 0 199.7 0 171.2C0 142.7 0 114.3 0 85.8C0 57.3 0 28.7 0 14.3L0 0Z" fill="#abf3e6"></path><path d="M321 0L329 14.3C337 28.7 353 57.3 349.3 85.8C345.7 114.3 322.3 142.7 297 171.2C271.7 199.7 244.3 228.3 243.5 257C242.7 285.7 268.3 314.3 279.7 343C291 371.7 288 400.3 297.3 428.8C306.7 457.3 328.3 485.7 337.3 514.2C346.3 542.7 342.7 571.3 340.8 585.7L339 600L0 600L0 585.7C0 571.3 0 542.7 0 514.2C0 485.7 0 457.3 0 428.8C0 400.3 0 371.7 0 343C0 314.3 0 285.7 0 257C0 228.3 0 199.7 0 171.2C0 142.7 0 114.3 0 85.8C0 57.3 0 28.7 0 14.3L0 0Z" fill="#a0ebe0"></path><path d="M245 0L241.5 14.3C238 28.7 231 57.3 230.7 85.8C230.3 114.3 236.7 142.7 231.5 171.2C226.3 199.7 209.7 228.3 210.3 257C211 285.7 229 314.3 234.2 343C239.3 371.7 231.7 400.3 219 428.8C206.3 457.3 188.7 485.7 187.3 514.2C186 542.7 201 571.3 208.5 585.7L216 600L0 600L0 585.7C0 571.3 0 542.7 0 514.2C0 485.7 0 457.3 0 428.8C0 400.3 0 371.7 0 343C0 314.3 0 285.7 0 257C0 228.3 0 199.7 0 171.2C0 142.7 0 114.3 0 85.8C0 57.3 0 28.7 0 14.3L0 0Z" fill="#94e3da"></path><path d="M121 0L132.8 14.3C144.7 28.7 168.3 57.3 183.5 85.8C198.7 114.3 205.3 142.7 192.5 171.2C179.7 199.7 147.3 228.3 130.5 257C113.7 285.7 112.3 314.3 111.5 343C110.7 371.7 110.3 400.3 115 428.8C119.7 457.3 129.3 485.7 136.5 514.2C143.7 542.7 148.3 571.3 150.7 585.7L153 600L0 600L0 585.7C0 571.3 0 542.7 0 514.2C0 485.7 0 457.3 0 428.8C0 400.3 0 371.7 0 343C0 314.3 0 285.7 0 257C0 228.3 0 199.7 0 171.2C0 142.7 0 114.3 0 85.8C0 57.3 0 28.7 0 14.3L0 0Z" fill="#88dbd4"></path><path d="M76 0L84 14.3C92 28.7 108 57.3 107.8 85.8C107.7 114.3 91.3 142.7 83.5 171.2C75.7 199.7 76.3 228.3 81.7 257C87 285.7 97 314.3 93.7 343C90.3 371.7 73.7 400.3 63.8 428.8C54 457.3 51 485.7 57.3 514.2C63.7 542.7 79.3 571.3 87.2 585.7L95 600L0 600L0 585.7C0 571.3 0 542.7 0 514.2C0 485.7 0 457.3 0 428.8C0 400.3 0 371.7 0 343C0 314.3 0 285.7 0 257C0 228.3 0 199.7 0 171.2C0 142.7 0 114.3 0 85.8C0 57.3 0 28.7 0 14.3L0 0Z" fill="#7cd4ce"></path></svg>