<?xml version="1.0" encoding="UTF-8" standalone="no"?>
<!DOCTYPE svg PUBLIC "-//W3C//DTD SVG 1.1//EN" "http://www.w3.org/Graphics/SVG/1.1/DTD/svg11.dtd">
<svg xmlns="http://www.w3.org/2000/svg" version="1.1" viewBox="0 0 665 434">
<path stroke="#010100" stroke-opacity="0.784" stroke-width="2.00" fill="none" stroke-linecap="butt" vector-effect="non-scaling-stroke" d="
  M 132.79 346.75
  L 137.22 345.37
  A 0.70 0.60 -13.6 0 0 137.71 344.69
  Q 137.59 343.87 136.27 344.30
  Q 133.65 345.14 131.25 346.46"
/>
<path fill="#000000" d="
  M 587.94 434.00
  L 504.69 434.00
  Q 492.77 421.16 489.95 404.62
  Q 489.70 403.15 489.18 404.54
  L 483.11 420.89
  A 0.94 0.92 -79.5 0 1 482.24 421.50
  Q 351.24 421.50 220.73 421.50
  Q 218.53 421.50 217.41 420.86
  Q 215.85 419.98 214.99 418.23
  Q 213.98 416.19 213.31 418.37
  Q 210.74 426.76 204.44 434.00
  L 166.94 434.00
  L 165.24 433.61
  Q 164.75 433.50 165.23 433.39
  Q 169.63 432.37 170.50 432.00
  Q 185.05 425.78 191.00 412.52
  Q 195.22 403.13 194.25 393.02
  Q 193.16 381.66 185.44 372.81
  Q 173.28 358.90 155.87 359.72
  Q 145.59 360.20 136.98 365.52
  Q 125.68 372.50 121.54 385.23
  Q 118.29 395.22 120.37 404.93
  Q 122.72 415.90 131.30 424.20
  Q 138.78 431.42 148.95 433.47
  Q 149.33 433.54 148.96 433.67
  L 147.94 434.00
  L 109.44 434.00
  Q 103.58 426.58 100.15 417.23
  A 0.74 0.74 79.7 0 0 99.46 416.75
  L 85.95 416.75
  A 2.72 2.55 65.5 0 1 84.14 416.01
  L 73.13 405.55
  A 2.94 2.83 -21.8 0 0 71.23 404.78
  Q 55.37 404.38 40.75 403.75
  Q 34.07 403.46 29.45 400.25
  Q 21.45 394.67 15.86 386.79
  Q 13.61 383.63 13.01 380.79
  Q 12.30 377.47 12.84 373.98
  Q 13.41 370.24 13.83 366.48
  Q 14.05 364.48 16.27 365.00
  A 1.11 0.98 -85.0 0 0 17.47 363.85
  L 17.35 359.33
  A 1.08 0.90 89.6 0 0 16.46 358.27
  L 2.02 358.01
  Q 0.10 357.98 1.80 357.07
  Q 19.11 347.80 35.35 336.81
  Q 42.89 331.71 48.90 324.98
  Q 50.05 323.69 49.44 322.07
  Q 46.67 314.72 42.94 307.81
  Q 40.76 303.79 39.51 300.39
  Q 38.10 296.60 39.19 294.04
  Q 40.25 291.54 42.89 290.55
  Q 44.38 289.99 47.69 290.01
  Q 75.15 290.21 102.58 291.59
  Q 104.55 291.69 106.23 292.76
  Q 107.79 293.75 109.61 294.88
  A 1.49 1.48 49.0 0 0 111.00 294.98
  Q 135.54 284.38 159.34 273.96
  Q 186.80 261.94 204.31 255.56
  Q 220.19 249.78 239.42 245.85
  Q 248.49 244.00 259.16 242.65
  Q 291.05 238.62 323.25 238.68
  Q 340.97 238.70 358.70 238.81
  A 1.25 1.23 66.4 0 1 359.55 239.15
  L 416.34 292.70
  A 0.61 0.61 35.4 0 0 417.30 292.54
  Q 420.19 286.99 424.61 287.52
  Q 428.19 287.96 430.73 291.68
  Q 433.11 295.17 433.25 299.75
  A 0.52 0.52 38.6 0 0 433.75 300.25
  Q 496.28 302.30 558.75 305.74
  Q 579.29 306.87 599.77 308.78
  Q 631.41 311.72 644.72 339.12
  Q 646.34 342.45 646.62 346.20
  Q 646.97 350.76 646.78 355.35
  Q 646.78 355.41 646.62 356.64
  Q 646.36 358.66 648.52 359.00
  A 1.45 1.41 5.0 0 1 649.74 360.41
  L 649.67 371.16
  A 1.54 1.48 -78.0 0 0 650.53 372.54
  Q 655.54 374.83 657.28 379.11
  Q 658.97 383.26 657.06 387.71
  Q 654.68 393.27 648.05 394.95
  Q 647.57 395.07 647.21 395.41
  L 639.18 403.16
  A 2.18 2.09 -22.6 0 0 638.51 404.70
  Q 638.45 412.74 633.22 415.65
  Q 630.78 417.00 625.03 416.94
  Q 612.36 416.80 599.69 417.17
  A 0.82 0.81 11.3 0 0 598.98 417.64
  Q 594.84 426.76 587.94 434.00
  Z
  M 147.69 316.02
  Q 121.87 320.19 89.94 329.69
  Q 62.14 337.95 35.54 349.57
  Q 34.29 350.12 35.67 350.19
  L 43.62 350.55
  A 1.02 0.94 77.6 0 1 44.44 351.12
  L 52.98 368.90
  A 1.07 1.06 -12.8 0 0 53.94 369.50
  L 97.49 369.50
  A 2.41 2.41 16.3 0 0 99.52 368.39
  Q 113.31 347.07 136.75 340.00
  Q 160.49 332.84 183.20 342.19
  Q 192.99 346.22 200.36 352.31
  Q 210.28 360.49 216.20 372.21
  A 0.99 0.98 -13.1 0 0 217.08 372.75
  L 273.05 372.69
  A 0.89 0.89 78.6 0 0 273.87 371.45
  Q 266.09 352.84 259.95 335.02
  Q 256.46 324.90 256.10 323.08
  Q 254.89 316.97 256.13 310.31
  A 0.48 0.48 5.1 0 0 255.66 309.75
  Q 217.12 309.75 179.15 309.75
  Q 169.05 309.75 167.87 309.57
  Q 161.90 308.66 157.35 304.59
  Q 154.08 301.66 153.99 298.37
  Q 153.87 294.25 158.19 291.44
  Q 188.19 271.88 222.22 263.13
  Q 262.18 252.86 303.35 250.99
  Q 303.41 250.99 316.13 250.21
  Q 324.05 249.72 332.00 250.17
  Q 339.30 250.58 332.20 250.75
  Q 332.00 250.75 331.81 250.74
  Q 319.96 250.23 308.20 251.54
  Q 304.72 251.93 300.77 251.87
  Q 296.04 251.80 293.31 252.31
  Q 287.89 253.33 284.24 252.83
  A 0.89 0.77 -64.3 0 0 283.47 253.16
  Q 282.83 253.92 281.81 254.04
  Q 281.52 254.08 281.33 254.16
  Q 279.84 254.80 281.28 254.76
  Q 281.47 254.75 281.71 254.68
  Q 283.19 254.26 287.00 254.00
  Q 326.36 251.32 358.43 252.05
  A 1.38 1.37 -23.5 0 1 359.32 252.40
  Q 389.05 278.51 417.38 307.78
  Q 418.01 308.43 417.11 308.45
  Q 340.40 309.88 263.10 309.75
  Q 263.03 309.75 261.40 309.64
  Q 257.90 309.41 257.63 313.18
  Q 257.22 318.80 258.51 324.14
  Q 258.86 325.58 261.96 334.46
  Q 268.28 352.55 276.21 371.68
  A 1.73 1.73 -11.1 0 0 277.81 372.75
  L 459.35 372.75
  A 0.66 0.66 2.9 0 0 460.01 372.16
  Q 461.34 358.78 461.67 345.25
  Q 461.91 335.79 460.75 330.25
  Q 457.10 312.79 438.23 311.97
  A 1.19 1.19 4.1 0 0 436.99 313.04
  Q 436.71 316.04 433.05 316.45
  Q 428.77 316.92 424.49 316.71
  Q 420.84 316.52 419.45 315.04
  Q 417.31 312.74 419.80 308.48
  A 0.76 0.76 -53.3 0 0 419.67 307.55
  L 356.79 248.22
  A 2.49 2.46 -22.2 0 0 355.17 247.55
  Q 328.62 246.82 304.00 247.60
  Q 282.54 248.28 261.25 250.99
  Q 236.46 254.15 212.77 261.81
  Q 205.07 264.30 194.04 268.82
  Q 180.37 274.43 166.83 280.35
  Q 130.42 296.27 93.69 311.44
  Q 89.13 313.32 83.70 314.67
  Q 81.13 315.32 78.80 314.67
  Q 73.75 313.27 66.94 309.81
  Q 58.46 305.51 50.14 300.78
  Q 48.30 299.74 49.33 301.59
  Q 52.58 307.45 55.68 314.13
  Q 58.44 320.09 58.25 323.50
  Q 58.07 326.76 56.14 329.40
  Q 51.16 336.20 44.24 341.02
  Q 41.95 342.61 44.20 342.15
  Q 44.52 342.08 44.89 341.91
  Q 47.21 340.84 53.44 338.69
  Q 100.20 322.50 146.25 315.75
  Q 147.00 315.64 147.71 315.80
  Q 148.27 315.92 147.69 316.02
  Z
  M 262.00 279.75
  L 261.31 280.11
  Q 260.76 280.40 260.43 280.41
  Q 259.06 280.48 259.81 282.19
  Q 260.36 283.43 261.52 283.16
  A 1.17 0.79 -25.6 0 1 262.41 283.29
  Q 264.44 284.84 262.21 286.03
  A 1.25 0.90 -13.8 0 0 261.61 286.73
  Q 261.22 288.45 263.06 288.56
  Q 264.85 288.68 264.81 290.25
  A 1.46 0.95 -30.0 0 1 264.38 291.09
  Q 262.52 292.93 264.57 293.91
  Q 265.81 294.50 266.07 295.05
  Q 266.60 296.14 265.67 297.21
  A 1.00 0.77 -36.5 0 0 265.43 298.06
  Q 265.86 299.50 267.21 300.12
  A 0.94 0.71 14.6 0 1 267.75 300.81
  Q 267.80 301.78 267.29 302.60
  A 0.99 0.77 -45.2 0 0 267.19 303.46
  Q 267.80 304.74 268.20 303.30
  A 1.93 1.12 88.5 0 1 268.66 302.46
  Q 270.56 300.68 271.15 303.26
  A 1.19 0.82 88.9 0 0 271.68 304.00
  Q 272.37 304.29 273.11 304.03
  A 1.35 1.06 -38.9 0 1 274.01 304.02
  Q 276.53 305.07 278.04 302.98
  A 1.23 0.88 -68.3 0 1 278.80 302.49
  Q 279.89 302.41 280.13 303.15
  A 1.53 1.52 84.1 0 0 281.38 304.17
  Q 284.70 304.59 283.28 302.69
  A 0.93 0.93 62.7 0 1 283.74 301.25
  Q 285.87 300.57 285.73 302.54
  Q 285.71 302.85 285.45 303.26
  Q 284.83 304.23 286.20 304.03
  Q 286.38 304.00 287.02 303.57
  Q 287.99 302.91 290.58 304.39
  A 1.20 1.20 22.9 0 0 292.33 303.68
  Q 293.61 299.26 294.93 303.71
  A 0.66 0.65 81.3 0 0 295.57 304.19
  L 300.75 304.03
  A 0.92 0.85 -75.5 0 0 301.48 303.56
  Q 302.80 301.14 303.87 303.47
  A 1.14 0.93 81.7 0 0 304.53 304.08
  Q 308.05 305.05 311.13 303.32
  A 1.01 0.96 -46.3 0 1 312.01 303.28
  Q 316.00 305.08 320.27 303.89
  Q 320.56 303.81 321.23 303.87
  L 325.18 304.22
  A 0.67 0.54 -80.0 0 0 325.79 303.69
  Q 326.47 300.65 327.42 303.72
  A 0.71 0.66 80.3 0 0 328.06 304.21
  L 333.94 304.21
  A 1.25 0.42 -48.2 0 0 334.71 303.77
  L 335.30 303.23
  A 0.74 0.52 42.8 0 1 336.13 303.34
  Q 336.56 303.69 337.03 303.98
  Q 337.46 304.25 338.06 304.24
  Q 346.94 304.17 355.82 304.24
  Q 355.94 304.24 357.16 304.38
  Q 358.71 304.54 359.37 303.27
  Q 359.57 302.89 359.79 303.25
  Q 360.62 304.56 362.23 304.44
  Q 363.69 304.34 364.27 304.39
  Q 367.23 304.68 366.07 302.86
  Q 365.44 301.87 365.25 301.39
  Q 363.14 296.07 360.57 290.94
  Q 360.52 290.85 360.20 289.89
  Q 359.87 288.93 358.81 288.90
  A 0.43 0.31 9.5 0 1 358.37 288.45
  L 358.65 287.87
  A 1.05 0.43 -58.8 0 0 358.78 287.06
  L 353.55 276.11
  A 0.90 0.88 62.2 0 0 352.31 275.71
  Q 351.77 276.02 351.69 275.59
  A 0.42 0.33 -6.4 0 1 352.09 275.19
  Q 353.24 275.14 352.61 274.11
  Q 352.19 273.41 352.10 273.22
  Q 349.42 267.46 346.74 261.70
  Q 345.05 258.04 344.79 257.74
  Q 343.30 255.96 340.25 256.00
  Q 337.01 256.05 335.29 256.53
  A 1.38 1.34 47.7 0 1 334.36 256.47
  Q 332.63 255.72 330.40 256.05
  A 0.51 0.51 80.5 0 0 329.98 256.64
  Q 330.37 258.76 328.98 257.96
  A 0.60 0.53 -64.7 0 1 328.77 257.24
  Q 329.50 255.52 327.82 256.04
  Q 327.15 256.25 326.65 256.24
  Q 324.23 256.22 321.81 256.30
  A 0.66 0.60 -83.0 0 0 321.23 256.80
  Q 320.97 257.92 320.05 257.81
  A 0.94 0.63 78.7 0 1 319.44 257.21
  Q 319.09 256.29 318.19 256.35
  Q 317.28 256.40 317.19 256.39
  Q 314.13 256.17 311.22 257.09
  A 1.31 1.23 46.9 0 1 310.30 257.03
  Q 307.33 255.67 306.23 258.35
  A 1.21 0.87 -81.3 0 1 305.59 259.00
  Q 304.50 259.33 304.50 258.13
  A 1.00 0.99 -86.8 0 0 303.62 257.14
  Q 299.42 256.62 296.73 258.18
  A 0.84 0.79 45.5 0 1 295.90 258.15
  Q 294.28 257.12 292.51 257.85
  A 0.84 0.70 82.7 0 0 292.06 258.55
  Q 291.95 260.41 290.28 259.87
  A 0.92 0.68 89.7 0 1 289.78 259.20
  Q 289.55 257.91 287.75 258.00
  Q 285.02 258.14 283.93 258.33
  A 1.39 0.93 -68.1 0 0 283.17 258.85
  Q 282.12 260.25 280.55 259.21
  Q 279.46 258.50 278.28 258.87
  A 1.13 0.90 -84.8 0 0 277.65 259.53
  Q 276.45 262.84 274.51 259.92
  A 1.36 1.03 74.2 0 0 273.77 259.36
  Q 272.87 259.16 271.97 259.37
  A 0.44 0.39 71.6 0 0 271.72 259.96
  Q 272.94 262.71 269.97 262.69
  A 0.99 0.99 5.6 0 1 269.00 261.52
  Q 269.42 259.18 267.64 260.45
  A 0.88 0.87 37.9 0 1 266.80 260.55
  Q 265.27 259.94 263.78 260.39
  A 1.35 0.91 -77.6 0 0 263.11 261.03
  Q 262.02 263.18 259.34 261.10
  A 1.08 1.08 -63.1 0 0 257.64 261.66
  Q 257.00 263.92 255.80 263.91
  A 0.69 0.49 5.6 0 0 255.15 264.28
  Q 255.00 264.89 255.12 265.52
  A 1.61 1.56 52.2 0 1 255.02 266.44
  Q 254.03 268.63 256.65 270.37
  A 0.92 0.92 30.6 0 1 256.96 271.57
  Q 256.08 273.22 257.11 272.34
  Q 259.17 270.57 260.30 272.80
  A 1.24 1.21 -50.1 0 1 260.37 273.74
  Q 259.70 275.81 257.89 274.55
  A 0.36 0.31 23.7 0 0 257.35 274.72
  Q 257.26 275.34 257.78 275.79
  A 1.05 0.89 24.2 0 1 258.15 276.57
  Q 258.03 278.78 259.39 277.59
  A 1.20 0.90 -55.6 0 1 260.25 277.30
  Q 262.17 277.61 262.00 279.75
  Z
  M 367.15 298.65
  Q 366.82 299.17 367.06 299.69
  Q 368.01 301.73 368.97 303.69
  A 1.01 1.00 76.6 0 0 369.87 304.25
  L 400.40 304.25
  Q 401.90 304.25 400.83 303.20
  Q 382.88 285.63 364.83 268.19
  Q 364.74 268.10 363.92 267.10
  Q 362.97 265.95 361.73 266.66
  Q 361.33 266.89 361.52 266.49
  L 361.78 265.94
  A 0.70 0.68 -55.8 0 0 361.64 265.14
  L 353.35 257.26
  A 4.66 3.96 -16.1 0 0 350.84 256.13
  Q 345.94 255.55 347.00 257.27
  Q 348.15 259.13 348.23 259.33
  Q 350.37 265.10 353.32 270.50
  A 1.67 0.64 19.4 0 0 354.04 271.11
  Q 354.76 271.51 354.61 272.52
  A 1.83 0.99 -67.1 0 0 354.70 273.46
  L 360.31 285.17
  Q 360.65 285.87 360.77 286.16
  Q 363.44 292.51 366.46 298.23
  A 0.31 0.31 -17.6 0 0 366.79 298.40
  L 367.01 298.37
  Q 367.37 298.32 367.15 298.65
  Z
  M 363.77 263.76
  Q 363.85 263.95 363.93 264.14
  Q 364.06 264.44 364.29 264.66
  Q 384.34 284.16 404.46 303.59
  A 1.65 1.59 71.8 0 0 405.31 304.04
  Q 408.62 304.64 406.33 302.62
  Q 405.65 302.02 405.35 301.71
  Q 382.50 278.27 357.82 256.77
  Q 357.47 256.47 357.12 256.30
  Q 355.66 255.60 356.30 256.89
  Q 356.47 257.22 356.79 257.54
  Q 360.00 260.67 363.52 263.43
  Q 363.69 263.56 363.77 263.76
  Z
  M 247.0634 259.6330
  A 0.78 0.78 0.0 0 0 246.0644 259.1651
  L 245.7447 259.2808
  A 0.78 0.78 0.0 0 0 245.2768 260.2797
  L 262.3366 307.4070
  A 0.78 0.78 0.0 0 0 263.3356 307.8749
  L 263.6553 307.7592
  A 0.78 0.78 0.0 0 0 264.1232 306.7603
  L 247.0634 259.6330
  Z
  M 199.30 273.28
  Q 200.05 273.17 201.44 272.69
  Q 220.39 266.05 240.41 261.66
  A 1.21 1.20 -16.2 0 1 241.81 262.42
  L 257.52 306.21
  A 0.36 0.36 -9.7 0 1 257.18 306.69
  Q 221.72 306.84 177.25 305.50
  Q 170.66 305.30 165.05 303.21
  Q 161.28 301.81 159.84 299.60
  Q 157.46 295.93 161.96 292.21
  Q 163.74 290.74 161.75 291.25
  Q 160.25 291.64 157.01 295.51
  Q 154.55 298.46 156.81 301.19
  Q 160.12 305.16 165.03 306.78
  Q 167.96 307.74 174.59 307.77
  Q 216.46 307.95 258.94 308.00
  A 1.06 1.06 -10.3 0 0 259.93 306.57
  L 242.86 260.65
  A 0.79 0.78 -15.6 0 0 241.97 260.15
  Q 214.82 265.68 189.74 276.25
  Q 188.60 276.73 189.84 276.75
  Q 191.79 276.78 193.42 275.62
  Q 193.83 275.32 194.30 275.24
  Q 196.53 274.85 198.41 273.59
  Q 198.75 273.37 199.30 273.28
  Z
  M 254.40 262.96
  Q 253.90 261.71 253.15 262.33
  A 0.72 0.65 58.5 0 0 253.00 263.16
  Q 253.52 264.29 254.21 263.79
  A 0.75 0.65 61.8 0 0 254.40 262.96
  Z
  M 191.75 283.75
  Q 189.38 280.65 192.69 280.01
  A 0.53 0.48 -10.9 0 0 193.12 279.44
  Q 192.75 277.51 191.19 278.74
  A 1.66 1.07 87.4 0 0 190.71 279.56
  Q 190.00 282.40 187.41 280.78
  A 1.47 0.98 48.6 0 0 186.50 280.54
  Q 185.28 280.72 185.39 281.76
  A 0.41 0.37 -15.1 0 0 185.95 282.04
  Q 188.43 281.01 188.56 283.55
  A 1.26 0.99 71.0 0 1 188.25 284.45
  Q 187.56 285.15 186.42 284.99
  A 0.40 0.40 84.1 0 0 185.99 285.52
  Q 186.96 288.19 185.09 288.48
  Q 184.18 288.62 183.55 288.01
  Q 182.80 287.30 183.09 286.22
  A 0.88 0.70 -1.5 0 1 183.75 285.67
  Q 186.27 285.18 185.07 282.99
  A 0.58 0.52 -26.2 0 0 184.36 282.79
  Q 183.79 283.03 183.34 283.01
  A 0.64 0.64 89.6 0 0 182.67 283.69
  Q 182.86 287.72 180.15 285.80
  A 1.05 0.75 -78.0 0 1 179.80 285.00
  Q 179.78 283.88 178.50 284.25
  Q 176.49 284.83 177.48 286.57
  A 0.71 0.61 -19.3 0 0 178.23 286.86
  Q 179.27 286.63 180.25 287.07
  A 0.90 0.74 -81.9 0 1 180.69 287.80
  Q 180.76 289.53 182.06 288.98
  A 1.52 0.90 -36.9 0 1 182.98 288.88
  Q 185.24 289.62 184.04 291.58
  A 0.81 0.68 18.2 0 1 183.27 291.89
  Q 182.39 291.77 181.98 292.31
  A 0.77 0.54 47.7 0 0 182.08 293.13
  Q 183.09 294.46 181.85 295.41
  A 1.73 0.79 6.9 0 1 180.94 295.70
  Q 179.39 295.84 180.21 297.11
  A 1.21 1.08 37.2 0 1 180.38 297.98
  Q 179.99 299.66 180.99 298.36
  A 0.91 0.73 16.1 0 1 181.71 298.06
  Q 182.13 298.07 182.51 297.92
  A 0.58 0.48 69.5 0 0 182.75 297.22
  Q 181.94 294.91 184.21 294.29
  A 0.53 0.52 78.0 0 0 184.59 293.69
  Q 184.15 290.95 186.76 290.55
  A 0.37 0.37 74.4 0 0 187.04 290.04
  Q 185.88 287.31 188.69 287.30
  A 0.90 0.69 -9.5 0 1 189.48 287.72
  L 190.22 289.45
  A 0.43 0.37 65.1 0 0 190.75 289.69
  Q 193.02 288.49 193.44 291.00
  A 1.00 0.99 -27.2 0 1 193.16 291.86
  Q 191.01 294.04 190.18 290.92
  A 0.70 0.65 82.1 0 0 189.56 290.41
  Q 186.76 290.36 188.19 293.01
  A 0.50 0.44 -29.8 0 0 188.85 293.15
  Q 190.42 292.19 191.44 294.06
  Q 192.64 296.27 190.25 296.00
  Q 187.53 295.69 189.43 297.69
  A 1.00 1.00 -34.4 0 1 189.13 299.28
  Q 186.29 300.62 185.97 297.82
  A 0.52 0.46 82.7 0 0 185.44 297.35
  Q 184.71 297.46 184.13 297.91
  A 0.87 0.70 67.2 0 0 183.89 298.74
  Q 184.51 301.41 181.74 301.29
  A 0.42 0.40 -3.3 0 0 181.31 301.75
  Q 181.74 304.17 184.21 303.57
  A 0.42 0.38 69.8 0 0 184.45 302.99
  Q 182.93 299.87 186.44 300.03
  A 0.81 0.77 -9.5 0 1 187.15 300.51
  Q 187.87 302.24 186.47 303.39
  Q 186.06 303.74 186.55 303.78
  Q 187.70 303.90 188.08 302.68
  A 0.69 0.66 -82.5 0 1 188.69 302.19
  Q 190.44 302.15 189.98 300.95
  A 1.72 0.70 58.3 0 1 189.82 300.01
  Q 190.27 297.59 192.40 298.91
  A 1.20 0.83 -85.5 0 1 192.85 299.68
  Q 192.93 300.20 193.19 300.61
  A 0.72 0.57 -23.7 0 0 193.97 300.81
  Q 196.18 300.12 196.69 303.37
  Q 196.78 303.92 197.09 303.47
  Q 198.16 301.95 199.39 302.97
  Q 200.63 303.98 200.97 304.10
  Q 202.89 304.78 202.64 302.56
  A 0.83 0.72 73.0 0 1 202.98 301.79
  Q 205.61 300.19 205.36 303.70
  A 0.31 0.29 -8.6 0 0 205.77 303.99
  Q 207.44 303.36 209.50 304.25
  Q 211.90 305.28 212.16 302.93
  A 1.00 0.76 84.5 0 1 212.62 302.18
  Q 213.96 301.51 214.50 303.25
  A 1.48 0.98 78.5 0 0 215.56 304.31
  L 220.19 304.43
  A 0.86 0.78 -73.9 0 0 220.92 303.98
  Q 222.25 301.52 223.47 303.87
  A 1.00 0.74 72.9 0 0 224.18 304.39
  L 229.50 304.54
  A 1.30 0.75 -56.2 0 0 230.33 304.13
  Q 231.64 302.81 232.75 304.50
  Q 233.54 305.70 237.69 304.94
  Q 240.15 304.49 242.63 304.64
  Q 246.49 304.88 247.53 304.85
  Q 250.85 304.73 254.18 304.69
  A 0.38 0.37 -8.6 0 0 254.54 304.21
  Q 251.71 295.47 248.42 286.90
  Q 244.40 276.45 240.84 265.51
  A 1.92 1.92 75.3 0 0 238.64 264.22
  Q 232.31 265.48 225.56 267.69
  Q 225.09 267.84 222.49 268.18
  Q 220.84 268.40 219.54 269.59
  A 1.00 1.00 -61.4 0 1 218.70 269.84
  Q 216.08 269.43 214.11 271.16
  A 1.06 1.04 28.9 0 1 213.25 271.40
  Q 210.75 271.01 208.81 272.60
  A 1.37 1.34 -64.6 0 1 207.94 272.92
  Q 205.26 272.88 203.09 274.39
  A 1.79 1.56 23.2 0 1 202.19 274.68
  Q 200.06 274.75 201.44 276.57
  A 0.90 0.89 56.2 0 1 201.18 277.89
  Q 199.07 279.11 198.52 276.49
  A 0.52 0.51 -11.2 0 0 197.91 276.09
  Q 195.90 276.50 196.22 277.95
  Q 196.62 279.76 194.34 279.97
  A 0.71 0.71 -14.3 0 0 193.75 280.96
  Q 194.88 283.58 191.75 283.75
  Z
  M 173.31 287.25
  Q 171.27 287.56 173.01 288.11
  A 1.35 0.98 33.0 0 0 173.96 288.06
  Q 174.42 287.81 174.20 287.51
  A 1.03 0.66 -16.1 0 0 173.31 287.25
  Z
  M 175.34 291.49
  A 1.01 1.01 84.0 0 1 176.29 290.31
  Q 178.34 290.22 177.58 288.76
  Q 177.27 288.18 176.70 288.02
  Q 176.07 287.84 175.45 288.04
  A 0.56 0.49 71.3 0 0 175.17 288.72
  Q 175.90 291.00 173.80 291.48
  A 0.86 0.73 -1.7 0 0 173.18 292.04
  Q 172.49 294.80 175.23 293.75
  A 0.61 0.59 74.9 0 0 175.60 293.08
  L 175.34 291.49
  Z
  M 169.83 289.50
  A 0.56 0.56 76.6 0 0 169.43 290.15
  Q 169.89 292.46 171.32 291.76
  A 1.19 1.02 87.5 0 0 171.90 291.02
  Q 172.50 288.75 169.83 289.50
  Z
  M 180.47 290.15
  Q 178.06 289.78 178.42 290.65
  Q 178.65 291.20 178.63 291.55
  Q 178.52 293.12 180.00 292.50
  Q 181.96 291.68 180.87 289.93
  A 0.34 0.31 68.3 0 0 180.55 289.77
  Q 180.09 289.82 180.50 290.08
  Q 180.66 290.18 180.47 290.15
  Z
  M 164.65 292.62
  Q 163.54 294.39 165.82 293.23
  A 0.99 0.92 -10.3 0 0 166.35 292.52
  Q 166.58 291.12 165.36 291.89
  Q 164.94 292.15 164.65 292.62
  Z
  M 168.48 295.78
  L 169.36 295.28
  A 1.04 0.77 -17.9 0 0 169.87 294.57
  Q 170.05 292.22 167.69 293.28
  A 0.60 0.55 69.6 0 0 167.41 293.98
  Q 168.14 296.46 165.80 296.77
  A 0.54 0.50 -6.5 0 0 165.33 297.31
  Q 165.52 299.53 167.49 298.66
  A 0.67 0.58 74.5 0 0 167.82 297.96
  Q 167.71 297.24 167.90 296.54
  A 1.23 1.19 83.2 0 1 168.48 295.78
  Z
  M 177.19 295.81
  Q 178.32 297.58 179.00 295.25
  Q 179.37 294.00 178.69 293.48
  A 1.02 0.81 -34.1 0 0 177.77 293.41
  Q 176.09 294.09 177.19 295.81
  Z
  M 185.44 294.59
  L 185.94 296.06
  A 0.75 0.42 76.8 0 0 186.43 296.59
  Q 189.14 296.64 188.02 294.02
  A 0.47 0.43 -25.1 0 0 187.38 293.82
  Q 186.53 294.26 185.65 294.25
  A 0.26 0.23 80.0 0 0 185.44 294.59
  Z
  M 423.44 294.92
  Q 422.91 298.34 422.99 301.79
  Q 422.99 301.88 422.94 302.71
  Q 422.83 304.68 425.55 304.14
  A 1.33 1.33 88.2 0 0 426.62 303.00
  Q 427.30 297.77 424.90 294.56
  Q 423.74 293.00 423.44 294.92
  Z
  M 161.75 297.45
  Q 161.03 297.98 161.43 298.63
  Q 161.70 299.05 161.88 298.52
  Q 162.41 296.96 164.01 296.59
  A 0.62 0.56 -9.0 0 0 164.49 296.00
  Q 164.37 293.53 162.47 294.77
  A 0.95 0.85 -19.8 0 0 162.04 295.57
  L 162.11 296.69
  A 0.90 0.89 71.0 0 1 161.75 297.45
  Z
  M 173.95 297.31
  A 1.10 1.10 -77.9 0 1 174.74 298.54
  Q 174.45 300.44 176.27 299.54
  Q 177.73 298.81 177.01 297.42
  A 0.77 0.63 -16.2 0 0 176.26 297.10
  Q 175.31 297.25 174.40 296.98
  A 1.11 0.82 82.4 0 1 173.78 296.34
  Q 173.08 294.55 171.27 295.13
  A 0.57 0.54 73.6 0 0 170.93 295.80
  L 171.37 297.52
  A 0.32 0.30 -26.8 0 0 171.87 297.66
  Q 172.76 296.99 173.95 297.31
  Z
  M 56.17 299.30
  Q 66.50 305.12 77.31 309.96
  Q 80.61 311.44 84.01 310.29
  Q 94.22 306.85 104.05 302.45
  A 0.38 0.37 -32.9 0 0 104.18 301.86
  Q 102.63 300.07 100.50 300.00
  Q 78.62 299.27 56.40 298.49
  Q 54.61 298.42 56.17 299.30
  Z
  M 171.34 299.19
  Q 171.20 298.46 169.90 298.53
  A 0.72 0.72 -2.5 0 0 169.22 299.27
  Q 169.28 301.75 169.99 301.18
  A 1.41 0.80 -52.4 0 1 170.80 300.84
  Q 172.32 300.86 171.66 300.04
  Q 171.44 299.78 171.34 299.19
  Z
  M 177.73 302.40
  Q 175.15 303.52 174.95 300.81
  A 0.44 0.37 78.7 0 0 174.44 300.40
  L 172.92 300.98
  A 0.72 0.60 75.2 0 0 172.56 301.75
  Q 172.85 303.31 174.45 302.95
  A 1.22 1.08 -31.9 0 1 175.34 303.10
  Q 177.72 304.71 178.87 302.28
  A 1.00 0.97 5.4 0 1 179.55 301.73
  Q 181.12 301.38 180.64 300.02
  A 1.08 1.06 89.8 0 0 179.99 299.36
  Q 179.11 299.03 178.21 299.31
  A 0.48 0.43 69.4 0 0 177.97 299.94
  Q 178.33 300.78 178.26 301.69
  A 0.89 0.83 -10.2 0 1 177.73 302.40
  Z
  M 164.77 300.67
  Q 165.09 302.07 165.81 300.46
  A 0.70 0.57 -62.0 0 0 165.65 299.64
  Q 165.28 299.38 164.95 299.77
  A 1.13 0.88 63.4 0 0 164.77 300.67
  Z
  M 193.24 302.19
  Q 192.87 300.65 190.82 302.29
  A 0.46 0.46 58.6 0 0 190.69 302.83
  Q 191.37 304.30 193.01 304.09
  A 0.93 0.68 2.0 0 0 193.75 303.59
  Q 193.84 303.30 193.67 303.04
  Q 193.31 302.46 193.24 302.19
  Z
  M 439.13 309.88
  Q 444.38 310.43 447.00 311.25
  Q 455.77 313.99 459.83 321.09
  Q 462.57 325.89 463.47 335.86
  Q 464.21 344.03 463.64 352.26
  Q 462.94 362.22 462.34 372.19
  A 0.47 0.47 -88.3 0 0 462.81 372.69
  L 491.77 372.75
  A 1.64 1.63 -76.2 0 0 493.22 371.87
  Q 496.66 365.24 500.96 359.46
  Q 505.64 353.19 510.87 348.83
  Q 527.63 334.88 550.75 336.52
  Q 576.10 338.32 593.04 356.94
  Q 599.55 364.10 603.59 374.06
  A 1.51 1.50 -10.9 0 0 604.99 375.00
  L 616.29 375.00
  A 1.42 1.41 -80.5 0 0 617.63 374.04
  Q 622.71 359.57 637.17 360.99
  A 0.98 0.98 2.9 0 0 638.25 360.02
  Q 638.25 354.00 638.25 348.00
  Q 638.25 345.05 636.50 341.75
  Q 628.68 327.00 614.39 321.12
  Q 608.40 318.66 596.79 317.35
  Q 588.47 316.41 578.75 315.75
  Q 537.35 312.94 503.93 311.70
  A 0.52 0.49 -88.2 0 0 503.43 312.20
  Q 503.18 318.01 497.50 317.75
  Q 482.71 317.07 480.00 317.50
  Q 474.36 318.40 473.00 313.50
  Q 472.46 311.56 472.15 310.76
  A 0.83 0.74 -8.5 0 0 471.43 310.29
  L 436.81 309.07
  Q 436.20 309.05 436.58 309.48
  Q 437.00 309.96 437.75 309.93
  Q 439.05 309.87 439.13 309.88
  Z
  M 434.97 312.04
  A 2.28 2.28 0.0 0 0 432.69 309.76
  L 422.77 309.76
  A 2.28 2.28 0.0 0 0 420.49 312.04
  L 420.49 312.22
  A 2.28 2.28 0.0 0 0 422.77 314.50
  L 432.69 314.50
  A 2.28 2.28 0.0 0 0 434.97 312.22
  L 434.97 312.04
  Z
  M 476.48 314.92
  A 3.28 3.26 62.3 0 0 478.29 315.49
  Q 488.64 315.54 497.31 315.45
  Q 499.17 315.43 499.98 314.97
  Q 501.53 314.09 501.07 312.04
  A 0.68 0.65 -5.0 0 0 500.44 311.53
  L 475.21 310.48
  A 0.48 0.47 90.0 0 0 474.72 310.98
  Q 474.87 313.80 476.48 314.92
  Z
  M 583.44 357.06
  Q 604.60 378.54 597.37 409.02
  A 0.63 0.54 -73.2 0 0 597.69 409.74
  Q 598.38 409.98 598.69 409.19
  Q 605.88 390.74 598.77 373.74
  Q 594.95 364.62 587.62 357.31
  Q 575.16 344.88 556.25 341.50
  Q 540.39 338.67 527.02 344.96
  A 0.55 0.40 -12.7 0 0 526.73 345.29
  Q 526.70 345.42 526.74 345.52
  A 0.52 0.32 -21.6 0 0 527.33 345.62
  Q 543.86 339.30 560.00 343.75
  Q 574.17 347.66 583.44 357.06
  Z
  M 131.25 346.46
  Q 118.86 351.83 109.85 361.85
  Q 95.01 378.34 96.89 400.69
  A 0.45 0.45 -2.2 0 1 96.43 401.18
  L 81.99 400.93
  Q 80.77 400.91 81.67 401.76
  L 87.55 407.42
  A 3.04 2.60 63.6 0 0 89.50 408.25
  L 101.25 408.25
  A 0.73 0.73 -5.8 0 0 101.97 407.37
  Q 99.56 394.97 102.95 382.69
  Q 109.77 357.91 132.79 346.75
  L 137.22 345.37
  A 0.70 0.60 -13.6 0 0 137.71 344.69
  Q 137.59 343.87 136.27 344.30
  Q 133.65 345.14 131.25 346.46
  Z
  M 31.08 354.21
  Q 29.30 354.11 26.56 354.32
  A 0.61 0.61 -2.6 0 0 26.00 354.93
  L 26.00 368.63
  A 0.87 0.86 -90.0 0 0 26.86 369.50
  L 47.12 369.44
  A 0.58 0.57 77.5 0 0 47.64 368.62
  L 41.40 355.02
  A 0.80 0.79 78.2 0 0 40.69 354.55
  Q 35.88 354.49 31.08 354.21
  Z
  M 582.35 394.88
  A 35.97 35.97 0.0 0 0 546.38 358.91
  A 35.97 35.97 0.0 0 0 510.41 394.88
  A 35.97 35.97 0.0 0 0 546.38 430.85
  A 35.97 35.97 0.0 0 0 582.35 394.88
  Z
  M 622.54 374.70
  L 640.30 374.83
  A 0.64 0.62 -83.2 0 0 640.92 374.32
  Q 641.71 370.32 641.03 366.31
  A 0.77 0.76 1.2 0 0 640.44 365.70
  Q 636.00 364.71 631.51 365.54
  Q 624.62 366.82 622.19 374.19
  A 0.39 0.37 -80.5 0 0 622.54 374.70
  Z
  M 96.63 374.24
  A 0.73 0.73 0.0 0 0 95.90 373.51
  L 22.24 373.51
  A 0.73 0.73 0.0 0 0 21.51 374.24
  L 21.51 374.78
  A 0.73 0.73 0.0 0 0 22.24 375.51
  L 95.90 375.51
  A 0.73 0.73 0.0 0 0 96.63 374.78
  L 96.63 374.24
  Z
  M 647.14 380.52
  Q 644.49 379.26 640.25 379.25
  Q 623.03 379.20 605.81 379.31
  A 0.46 0.44 -4.3 0 0 605.35 379.82
  L 606.08 384.50
  A 0.63 0.58 -3.6 0 0 606.70 385.00
  Q 626.41 385.00 645.83 385.00
  Q 647.38 385.00 648.15 384.78
  Q 650.38 384.13 649.16 382.23
  Q 648.45 381.14 647.14 380.52
  Z
  M 26.01 384.19
  Q 24.62 384.19 25.53 385.24
  Q 29.53 389.88 34.20 393.32
  Q 36.39 394.94 39.07 395.03
  L 91.46 396.92
  A 0.85 0.79 -86.3 0 0 92.28 396.14
  L 93.36 384.84
  A 0.54 0.51 -87.4 0 0 92.85 384.25
  L 26.01 384.19
  Z
  M 628.22 400.83
  A 2.60 2.49 22.0 0 0 630.00 400.12
  L 640.47 390.01
  Q 641.26 389.25 640.17 389.25
  L 606.96 389.25
  A 0.48 0.48 88.3 0 0 606.48 389.76
  Q 606.71 394.83 605.71 399.82
  A 0.85 0.85 5.5 0 0 606.55 400.83
  L 628.22 400.83
  Z
  M 295.95 404.06
  Q 299.14 404.06 296.16 402.93
  Q 289.79 400.50 284.91 393.62
  Q 283.81 392.07 281.91 392.06
  L 221.97 392.00
  A 0.52 0.49 -89.4 0 0 221.48 392.51
  L 221.21 403.06
  A 0.91 0.87 -89.0 0 0 222.08 404.00
  L 295.95 404.06
  Z
  M 287.00 392.77
  Q 296.24 404.18 310.50 404.21
  Q 383.37 404.37 457.14 404.50
  A 0.88 0.85 -88.2 0 0 457.99 403.67
  L 458.55 392.66
  A 0.62 0.60 -88.2 0 0 457.95 392.00
  L 287.37 392.00
  Q 286.37 392.00 287.00 392.77
  Z
  M 472.18 404.72
  Q 474.71 404.89 478.85 404.66
  A 1.76 1.76 -81.0 0 0 480.40 403.53
  L 484.39 393.10
  A 0.58 0.58 -77.5 0 0 483.89 392.31
  Q 471.87 391.65 461.33 392.23
  A 0.89 0.85 -89.9 0 0 460.52 393.07
  L 459.98 403.53
  A 1.07 1.04 89.6 0 0 461.09 404.65
  Q 466.37 404.31 472.18 404.72
  Z
  M 629.72 406.29
  A 1.03 1.03 0.0 0 0 628.69 405.26
  L 605.07 405.26
  A 1.03 1.03 0.0 0 0 604.04 406.29
  L 604.04 407.23
  A 1.03 1.03 0.0 0 0 605.07 408.26
  L 628.69 408.26
  A 1.03 1.03 0.0 0 0 629.72 407.23
  L 629.72 406.29
  Z
  M 477.07 408.94
  L 224.81 408.07
  A 0.63 0.46 0.1 0 0 224.17 408.54
  L 224.20 412.29
  A 0.82 0.71 0.0 0 0 225.02 413.00
  Q 349.92 413.00 473.85 413.00
  Q 473.93 413.00 475.15 413.09
  Q 477.20 413.25 477.46 411.26
  Q 477.52 410.85 477.78 410.33
  Q 478.04 409.80 477.85 409.35
  A 0.91 0.66 -8.3 0 0 477.07 408.94
  Z"
/>
<path fill="#000000" d="
  M 314.35 259.14
  Q 312.84 258.47 314.49 257.54
  A 0.71 0.66 -36.3 0 1 315.31 257.63
  Q 316.11 258.42 315.24 259.06
  A 0.94 0.86 37.3 0 1 314.35 259.14
  Z"
/>
<path fill="#000000" d="
  M 338.76 258.71
  Q 338.48 258.95 338.21 258.69
  A 0.91 0.71 -63.9 0 1 338.04 257.87
  Q 338.45 256.40 338.92 257.84
  A 0.89 0.67 63.5 0 1 338.76 258.71
  Z"
/>
<path fill="#000000" d="
  M 324.25 258.42
  Q 325.27 259.04 324.21 259.56
  A 0.98 0.94 46.3 0 1 323.31 259.52
  Q 322.01 258.77 323.33 258.32
  A 1.13 1.09 -37.8 0 1 324.25 258.42
  Z"
/>
<circle fill="#000000" cx="299.88" cy="259.34" r="1.15"/>
<ellipse fill="#000000" cx="0.00" cy="0.00" transform="translate(285.16,260.31) rotate(90.7)" rx="1.43" ry="1.31"/>
<circle fill="#000000" cx="309.02" cy="259.94" r="1.07"/>
<path fill="#000000" d="
  M 333.63 259.68
  Q 333.59 259.99 333.24 260.14
  A 0.76 0.64 57.9 0 1 332.43 259.88
  Q 331.31 258.48 333.09 259.03
  A 0.74 0.54 14.3 0 1 333.63 259.68
  Z"
/>
<path fill="#000000" d="
  M 342.30 259.29
  Q 342.67 259.36 342.75 259.75
  A 0.72 0.61 -17.1 0 1 342.29 260.46
  Q 341.05 260.96 341.58 259.76
  A 0.77 0.60 -70.9 0 1 342.30 259.29
  Z"
/>
<circle fill="#000000" cx="318.18" cy="260.41" r="0.93"/>
<circle fill="#000000" cx="294.33" cy="260.86" r="1.20"/>
<ellipse fill="#000000" cx="0.00" cy="0.00" transform="translate(327.24,260.98) rotate(93.3)" rx="0.91" ry="0.76"/>
<path fill="#000000" d="
  M 351.00 260.92
  Q 349.96 260.12 351.09 260.15
  A 0.73 0.61 -4.4 0 1 351.75 260.62
  Q 351.86 261.05 351.42 261.07
  Q 351.21 261.08 351.00 260.92
  Z"
/>
<circle fill="#000000" cx="279.61" cy="261.78" r="1.40"/>
<circle fill="#000000" cx="303.40" cy="261.37" r="1.13"/>
<ellipse fill="#000000" cx="0.00" cy="0.00" transform="translate(336.46,261.54) rotate(45.0)" rx="0.81" ry="0.72"/>
<circle fill="#000000" cx="288.74" cy="262.29" r="1.30"/>
<path fill="#000000" d="
  M 311.91 262.40
  Q 311.00 260.88 312.94 261.21
  A 0.80 0.71 0.1 0 1 313.58 261.78
  Q 313.78 262.80 312.69 262.84
  A 0.89 0.85 73.0 0 1 311.91 262.40
  Z"
/>
<ellipse fill="#000000" cx="0.00" cy="0.00" transform="translate(264.81,262.76) rotate(-6.2)" rx="1.69" ry="1.49"/>
<path fill="#000000" d="
  M 345.88 261.67
  Q 346.44 262.07 345.70 262.52
  A 0.52 0.45 -27.3 0 1 344.98 262.34
  Q 344.85 262.01 345.05 261.75
  A 0.63 0.56 36.2 0 1 345.88 261.67
  Z"
/>
<path fill="#000000" d="
  M 321.04 261.96
  A 0.69 0.69 27.8 0 1 322.02 261.66
  Q 323.67 262.64 321.94 263.14
  Q 321.37 263.31 321.08 263.08
  Q 320.67 262.76 321.04 261.96
  Z"
/>
<circle fill="#000000" cx="274.00" cy="263.26" r="1.48"/>
<circle fill="#000000" cx="297.84" cy="262.88" r="1.19"/>
<path fill="#000000" d="
  M 331.27 263.72
  Q 330.75 264.27 330.27 263.68
  A 0.82 0.74 -50.7 0 1 330.23 262.81
  Q 331.02 261.40 331.44 262.82
  A 1.00 0.85 60.4 0 1 331.27 263.72
  Z"
/>
<path fill="#000000" d="
  M 258.46 269.22
  L 257.24 269.33
  A 1.20 0.72 60.0 0 1 256.41 268.87
  Q 254.48 266.63 257.46 265.80
  A 0.52 0.50 76.8 0 0 257.82 265.20
  Q 257.10 261.82 260.22 263.10
  A 0.87 0.79 -81.8 0 1 260.70 263.81
  Q 260.83 265.64 262.16 264.85
  A 1.15 0.82 -45.3 0 1 263.03 264.70
  Q 264.91 265.37 264.15 267.23
  A 0.93 0.91 -84.0 0 1 263.46 267.80
  Q 261.24 268.21 261.08 265.94
  A 0.54 0.50 86.5 0 0 260.56 265.44
  Q 257.58 265.55 259.01 268.32
  A 0.55 0.50 -25.7 0 0 259.70 268.53
  Q 262.55 267.26 262.25 270.44
  A 0.84 0.82 82.7 0 1 261.72 271.14
  Q 259.45 272.03 259.00 269.55
  A 0.52 0.40 -6.4 0 0 258.46 269.22
  Z"
/>
<circle fill="#000000" cx="283.13" cy="263.85" r="1.35"/>
<ellipse fill="#000000" cx="0.00" cy="0.00" transform="translate(307.01,263.42) rotate(22.7)" rx="1.07" ry="1.02"/>
<path fill="#000000" d="
  M 291.22 263.81
  A 1.02 1.02 17.2 0 1 292.55 263.11
  Q 294.03 263.65 293.27 265.08
  A 1.04 1.01 -79.0 0 1 292.52 265.60
  Q 290.69 265.84 291.22 263.81
  Z"
/>
<path fill="#000000" d="
  M 316.87 264.52
  Q 316.47 265.20 315.75 264.92
  A 0.71 0.63 -77.6 0 1 315.35 264.20
  Q 315.58 261.92 316.79 263.64
  A 0.89 0.75 44.4 0 1 316.87 264.52
  Z"
/>
<path fill="#000000" d="
  M 339.98 263.13
  Q 341.52 263.40 340.28 263.99
  A 0.77 0.60 -30.5 0 1 339.42 263.88
  Q 339.25 263.66 339.33 263.42
  A 0.60 0.47 13.7 0 1 339.98 263.13
  Z"
/>
<circle fill="#000000" cx="268.44" cy="264.75" r="1.57"/>
<ellipse fill="#000000" cx="0.00" cy="0.00" transform="translate(301.39,264.91) rotate(6.7)" rx="1.16" ry="1.11"/>
<path fill="#000000" d="
  M 325.31 263.77
  Q 326.16 263.77 326.08 264.45
  A 1.03 0.86 -11.8 0 1 325.51 265.17
  Q 324.33 265.74 324.67 264.29
  A 0.69 0.65 -82.6 0 1 325.31 263.77
  Z"
/>
<ellipse fill="#000000" cx="0.00" cy="0.00" transform="translate(277.55,265.32) rotate(13.7)" rx="1.53" ry="1.46"/>
<ellipse fill="#000000" cx="0.00" cy="0.00" transform="translate(310.57,265.45) rotate(-31.9)" rx="1.10" ry="1.02"/>
<path fill="#000000" d="
  M 334.53 264.48
  Q 336.16 265.10 334.48 265.62
  A 0.62 0.53 -18.4 0 1 333.74 265.32
  Q 333.64 265.02 333.77 264.72
  A 0.62 0.52 22.3 0 1 334.53 264.48
  Z"
/>
<circle fill="#000000" cx="286.66" cy="265.85" r="1.29"/>
<circle fill="#000000" cx="319.68" cy="266.07" r="0.94"/>
<path fill="#000000" d="
  M 343.20 265.02
  Q 343.36 264.92 343.59 264.95
  A 0.55 0.44 -89.9 0 1 343.98 265.43
  Q 344.11 266.98 343.23 265.85
  A 0.67 0.46 53.6 0 1 343.20 265.02
  Z"
/>
<ellipse fill="#000000" cx="0.00" cy="0.00" transform="translate(271.91,266.79) rotate(20.2)" rx="1.64" ry="1.47"/>
<circle fill="#000000" cx="295.83" cy="266.41" r="1.18"/>
<path fill="#000000" d="
  M 352.96 265.79
  Q 353.78 266.34 352.73 266.64
  A 0.56 0.45 -12.9 0 1 352.04 266.31
  Q 352.00 266.06 352.19 265.84
  A 0.63 0.55 37.5 0 1 352.96 265.79
  Z"
/>
<path fill="#000000" d="
  M 239.16 265.75
  Q 239.33 265.68 239.51 265.78
  A 0.49 0.39 -67.2 0 1 239.66 266.30
  Q 239.06 268.14 238.86 266.53
  A 0.80 0.51 78.6 0 1 239.16 265.75
  Z"
/>
<path fill="#000000" d="
  M 328.33 267.19
  Q 327.72 266.93 328.12 266.32
  A 0.94 0.81 17.2 0 1 328.95 265.96
  Q 330.40 266.11 329.22 267.03
  A 0.99 0.81 -49.5 0 1 328.33 267.19
  Z"
/>
<circle fill="#000000" cx="281.07" cy="267.39" r="1.44"/>
<ellipse fill="#000000" cx="304.93" cy="267.00" rx="1.19" ry="1.07"/>
<path fill="#000000" d="
  M 337.30 267.49
  Q 337.11 267.22 337.21 266.88
  A 0.64 0.54 13.6 0 1 337.93 266.52
  Q 339.64 266.89 338.14 267.61
  A 0.74 0.57 -29.4 0 1 337.30 267.49
  Z"
/>
<circle fill="#000000" cx="314.02" cy="267.49" r="1.00"/>
<path fill="#000000" d="
  M 267.34 267.20
  A 1.35 1.34 38.8 0 1 267.58 269.40
  Q 266.16 270.62 265.28 269.51
  Q 264.66 268.75 264.92 267.74
  Q 265.33 266.12 267.34 267.20
  Z"
/>
<circle fill="#000000" cx="290.19" cy="267.95" r="1.25"/>
<circle fill="#000000" cx="233.62" cy="267.88" r="0.85"/>
<path fill="#000000" d="
  M 322.80 268.33
  Q 322.32 266.38 323.65 267.65
  A 0.96 0.71 33.5 0 1 323.96 268.50
  Q 323.84 268.90 323.42 268.90
  A 0.75 0.59 80.5 0 1 322.80 268.33
  Z"
/>
<path fill="#000000" d="
  M 347.16 267.22
  Q 348.55 267.90 347.19 268.03
  A 0.85 0.50 -8.9 0 1 346.36 267.70
  Q 346.29 267.49 346.49 267.29
  A 0.64 0.54 34.0 0 1 347.16 267.22
  Z"
/>
<ellipse fill="#000000" cx="0.00" cy="0.00" transform="translate(299.33,268.44) rotate(68.3)" rx="1.21" ry="1.11"/>
<circle fill="#000000" cx="275.51" cy="268.87" r="1.47"/>
<path fill="#000000" d="
  M 331.79 269.00
  Q 331.34 268.54 331.85 268.05
  A 0.73 0.65 37.6 0 1 332.69 267.99
  Q 333.95 268.77 332.68 269.18
  A 0.91 0.77 -28.7 0 1 331.79 269.00
  Z"
/>
<circle fill="#000000" cx="284.66" cy="269.41" r="1.38"/>
<ellipse fill="#000000" cx="0.00" cy="0.00" transform="translate(308.49,269.02) rotate(120.9)" rx="1.04" ry="1.00"/>
<path fill="#000000" d="
  M 342.15 269.43
  Q 342.10 269.71 341.73 269.76
  A 0.69 0.59 75.2 0 1 341.07 269.31
  Q 340.58 267.97 341.65 268.65
  A 0.98 0.60 26.0 0 1 342.15 269.43
  Z"
/>
<circle fill="#000000" cx="228.04" cy="269.37" r="0.89"/>
<path fill="#000000" d="
  M 318.23 268.96
  Q 319.46 269.84 317.97 270.36
  A 0.86 0.84 56.4 0 1 317.11 270.18
  Q 316.04 269.18 317.33 268.80
  A 1.03 0.99 53.8 0 1 318.23 268.96
  Z"
/>
<circle fill="#000000" cx="269.86" cy="270.40" r="1.57"/>
<circle fill="#000000" cx="293.71" cy="269.96" r="1.26"/>
<path fill="#000000" d="
  M 237.50 269.53
  Q 238.25 271.01 236.93 270.27
  A 0.68 0.53 27.7 0 1 236.59 269.51
  Q 236.70 269.28 236.92 269.21
  A 0.57 0.45 66.7 0 1 237.50 269.53
  Z"
/>
<path fill="#000000" d="
  M 327.33 270.76
  Q 326.94 271.31 326.36 270.86
  A 0.82 0.73 -63.6 0 1 326.13 270.02
  Q 326.64 268.34 327.36 269.85
  A 0.97 0.79 52.8 0 1 327.33 270.76
  Z"
/>
<ellipse fill="#000000" cx="0.00" cy="0.00" transform="translate(279.03,270.92) rotate(28.3)" rx="1.46" ry="1.35"/>
<circle fill="#000000" cx="302.88" cy="270.49" r="1.07"/>
<path fill="#000000" d="
  M 223.08 270.36
  Q 224.24 272.35 221.96 271.44
  A 0.90 0.80 9.4 0 1 221.40 270.75
  Q 221.29 269.78 222.31 269.85
  A 1.07 0.94 74.8 0 1 223.08 270.36
  Z"
/>
<path fill="#000000" d="
  M 311.08 270.99
  Q 311.49 269.83 312.19 270.03
  Q 312.69 270.17 312.91 270.84
  Q 313.34 272.13 311.76 272.02
  A 0.78 0.78 -78.5 0 1 311.08 270.99
  Z"
/>
<path fill="#000000" d="
  M 335.30 271.01
  Q 335.10 270.75 335.22 270.42
  A 0.63 0.53 20.4 0 1 335.98 270.15
  Q 337.51 270.71 336.16 271.17
  A 0.85 0.62 -25.6 0 1 335.30 271.01
  Z"
/>
<circle fill="#000000" cx="264.31" cy="271.84" r="1.62"/>
<circle fill="#000000" cx="288.19" cy="271.49" r="1.32"/>
<path fill="#000000" d="
  M 232.28 271.97
  Q 231.86 272.42 231.24 272.18
  A 0.69 0.60 -75.1 0 1 230.88 271.44
  Q 231.21 269.51 232.30 271.14
  A 0.71 0.60 51.3 0 1 232.28 271.97
  Z"
/>
<path fill="#000000" d="
  M 345.70 270.99
  Q 345.87 271.24 345.65 271.51
  A 0.78 0.62 25.7 0 1 344.87 271.69
  Q 343.53 271.25 344.84 270.82
  A 0.84 0.59 -24.0 0 1 345.70 270.99
  Z"
/>
<path fill="#000000" d="
  M 274.36 271.22
  A 1.28 1.28 -52.7 0 1 274.63 273.24
  Q 272.39 275.49 272.04 272.24
  A 1.28 1.00 67.0 0 1 272.28 271.34
  Q 273.06 270.47 274.36 271.22
  Z"
/>
<path fill="#000000" d="
  M 296.94 273.06
  Q 294.57 272.42 296.25 271.25
  Q 297.57 270.34 298.24 271.43
  Q 298.61 272.03 298.31 272.60
  Q 297.92 273.33 296.94 273.06
  Z"
/>
<ellipse fill="#000000" cx="0.00" cy="0.00" transform="translate(321.16,271.59) rotate(44.9)" rx="0.96" ry="0.88"/>
<ellipse fill="#000000" cx="0.00" cy="0.00" transform="translate(216.88,272.32) rotate(-44.2)" rx="1.23" ry="1.11"/>
<circle fill="#000000" cx="240.63" cy="271.87" r="0.64"/>
<path fill="#000000" d="
  M 330.09 271.37
  Q 330.73 271.00 331.09 271.78
  A 0.75 0.70 -34.4 0 1 330.90 272.61
  Q 329.72 273.72 329.68 272.19
  A 0.95 0.82 76.0 0 1 330.09 271.37
  Z"
/>
<circle fill="#000000" cx="282.54" cy="272.97" r="1.37"/>
<circle fill="#000000" cx="306.44" cy="272.57" r="1.10"/>
<circle fill="#000000" cx="225.93" cy="272.93" r="0.99"/>
<path fill="#000000" d="
  M 340.21 272.49
  Q 340.41 272.75 340.12 273.01
  A 0.85 0.68 30.7 0 1 339.33 273.12
  Q 337.97 272.64 339.32 272.29
  A 0.97 0.67 -22.0 0 1 340.21 272.49
  Z"
/>
<path fill="#000000" d="
  M 267.53 275.09
  Q 264.76 273.95 267.25 272.50
  Q 269.46 271.21 269.44 273.81
  Q 269.42 275.86 267.53 275.09
  Z"
/>
<circle fill="#000000" cx="291.70" cy="273.51" r="1.26"/>
<path fill="#000000" d="
  M 315.55 272.23
  Q 316.60 272.15 316.52 273.20
  A 0.86 0.77 -9.2 0 1 315.97 273.88
  Q 314.22 274.53 314.87 272.78
  A 0.86 0.77 -80.8 0 1 315.55 272.23
  Z"
/>
<path fill="#000000" d="
  M 210.49 274.83
  A 1.00 0.99 29.0 0 1 210.05 273.32
  Q 211.00 272.02 211.91 272.73
  Q 212.54 273.21 212.51 274.09
  Q 212.47 275.63 210.49 274.83
  Z"
/>
<path fill="#000000" d="
  M 234.76 272.80
  Q 235.03 272.61 235.37 272.71
  A 0.61 0.52 -75.2 0 1 235.71 273.42
  Q 235.27 275.18 234.62 273.65
  A 0.76 0.59 61.9 0 1 234.76 272.80
  Z"
/>
<ellipse fill="#000000" cx="0.00" cy="0.00" transform="translate(324.69,273.66) rotate(-34.8)" rx="0.99" ry="0.81"/>
<path fill="#000000" d="
  M 348.97 273.61
  Q 348.78 274.13 348.31 273.64
  A 0.60 0.54 46.1 0 1 348.28 272.84
  Q 348.55 272.58 348.82 272.84
  A 0.75 0.68 -59.0 0 1 348.97 273.61
  Z"
/>
<path fill="#000000" d="
  M 219.43 274.87
  Q 218.94 274.20 219.82 273.30
  A 0.85 0.85 59.5 0 1 221.24 273.67
  Q 221.71 275.35 220.60 275.39
  Q 219.83 275.43 219.43 274.87
  Z"
/>
<circle fill="#000000" cx="276.98" cy="274.45" r="1.50"/>
<circle fill="#000000" cx="300.81" cy="274.06" r="1.15"/>
<path fill="#000000" d="
  M 334.27 273.63
  Q 334.96 274.00 334.53 274.58
  A 0.79 0.68 25.4 0 1 333.70 274.81
  Q 332.36 274.38 333.38 273.69
  A 0.90 0.82 -46.4 0 1 334.27 273.63
  Z"
/>
<ellipse fill="#000000" cx="0.00" cy="0.00" transform="translate(309.98,274.55) rotate(-36.7)" rx="1.08" ry="0.97"/>
<path fill="#000000" d="
  M 263.31 274.19
  Q 265.65 275.51 263.44 276.69
  Q 261.08 277.94 260.95 275.49
  Q 260.79 272.77 263.31 274.19
  Z"
/>
<circle fill="#000000" cx="286.13" cy="275.00" r="1.32"/>
<circle fill="#000000" cx="205.69" cy="275.39" r="1.49"/>
<path fill="#000000" d="
  M 230.39 274.93
  Q 230.40 275.72 229.49 275.77
  A 0.68 0.61 80.4 0 1 228.85 275.26
  Q 228.41 273.58 229.87 274.22
  A 0.86 0.75 12.7 0 1 230.39 274.93
  Z"
/>
<path fill="#000000" d="
  M 343.71 274.49
  Q 343.95 274.77 343.69 275.04
  A 0.83 0.66 28.7 0 1 342.88 275.18
  Q 341.48 274.69 342.82 274.31
  A 0.95 0.69 -24.7 0 1 343.71 274.49
  Z"
/>
<ellipse fill="#000000" cx="0.00" cy="0.00" transform="translate(319.12,275.16) rotate(99.3)" rx="1.01" ry="0.92"/>
<ellipse fill="#000000" cx="0.00" cy="0.00" transform="translate(214.74,275.86) rotate(-16.7)" rx="1.30" ry="1.24"/>
<circle fill="#000000" cx="271.41" cy="275.97" r="1.51"/>
<circle fill="#000000" cx="295.28" cy="275.56" r="1.19"/>
<path fill="#000000" d="
  M 239.27 275.17
  Q 239.76 275.50 239.26 275.84
  A 1.15 0.96 33.7 0 1 238.33 275.94
  Q 237.18 275.58 238.34 275.11
  A 1.04 0.89 -37.0 0 1 239.27 275.17
  Z"
/>
<rect fill="#000000" x="-1.35" y="-1.34" transform="translate(280.58,276.43) rotate(1.6)" width="2.70" height="2.68" rx="0.97"/>
<circle fill="#000000" cx="304.42" cy="276.10" r="1.10"/>
<path fill="#000000" d="
  M 328.84 276.26
  Q 328.51 276.71 327.98 276.46
  A 0.68 0.61 -71.4 0 1 327.66 275.71
  Q 328.04 274.21 328.81 275.38
  A 0.83 0.70 47.8 0 1 328.84 276.26
  Z"
/>
<ellipse fill="#000000" cx="0.00" cy="0.00" transform="translate(223.93,276.46) rotate(115.0)" rx="1.01" ry="0.91"/>
<ellipse fill="#000000" cx="0.00" cy="0.00" transform="translate(337.46,276.29) rotate(45.0)" rx="0.81" ry="0.72"/>
<circle fill="#000000" cx="289.62" cy="277.05" r="1.34"/>
<circle fill="#000000" cx="313.55" cy="276.71" r="1.02"/>
<circle fill="#000000" cx="209.19" cy="277.41" r="1.39"/>
<ellipse fill="#000000" cx="0.00" cy="0.00" transform="translate(265.78,277.48) rotate(18.2)" rx="1.64" ry="1.50"/>
<path fill="#000000" d="
  M 232.84 276.38
  Q 233.80 275.76 233.79 276.83
  Q 233.78 277.25 233.48 277.57
  Q 232.59 278.54 232.46 277.19
  A 0.88 0.87 70.4 0 1 232.84 276.38
  Z"
/>
<path fill="#000000" d="
  M 323.61 277.14
  A 0.66 0.65 80.0 0 1 323.05 277.95
  Q 321.04 278.19 322.01 276.72
  A 1.05 0.73 -66.6 0 1 322.80 276.23
  Q 323.40 276.27 323.61 277.14
  Z"
/>
<ellipse fill="#000000" cx="0.00" cy="0.00" transform="translate(346.60,276.85) rotate(45.2)" rx="0.69" ry="0.62"/>
<path fill="#000000" d="
  M 274.38 276.96
  Q 276.49 275.96 276.25 278.44
  A 0.81 0.80 -8.1 0 1 275.72 279.13
  Q 273.24 280.07 273.81 277.66
  A 1.02 1.01 -6.1 0 1 274.38 276.96
  Z"
/>
<circle fill="#000000" cx="298.76" cy="277.60" r="1.15"/>
<path fill="#000000" d="
  M 217.67 278.64
  Q 216.27 276.27 218.78 277.08
  A 0.92 0.82 5.4 0 1 219.38 277.73
  Q 219.58 278.90 218.44 279.05
  A 0.84 0.75 69.8 0 1 217.67 278.64
  Z"
/>
<path fill="#000000" d="
  M 241.95 277.77
  Q 241.31 276.90 242.27 277.17
  A 0.83 0.53 9.7 0 1 242.87 277.72
  Q 242.90 277.97 242.56 278.04
  A 0.67 0.57 64.4 0 1 241.95 277.77
  Z"
/>
<path fill="#000000" d="
  M 284.65 277.55
  Q 286.79 279.97 283.30 279.51
  A 0.71 0.67 -0.3 0 1 282.70 278.95
  Q 282.47 277.46 283.82 277.23
  A 0.98 0.85 62.0 0 1 284.65 277.55
  Z"
/>
<path fill="#000000" d="
  M 307.23 278.61
  Q 306.48 276.75 308.28 277.33
  A 0.91 0.84 4.0 0 1 308.89 277.98
  Q 309.15 279.18 307.94 279.12
  A 0.82 0.79 79.5 0 1 307.23 278.61
  Z"
/>
<path fill="#000000" d="
  M 331.80 276.99
  Q 332.35 277.00 332.57 277.46
  A 0.64 0.55 -27.5 0 1 332.27 278.21
  Q 331.05 278.91 331.22 277.56
  A 0.65 0.58 -86.1 0 1 331.80 276.99
  Z"
/>
<ellipse fill="#000000" cx="0.00" cy="0.00" transform="translate(203.64,278.89) rotate(33.0)" rx="1.51" ry="1.43"/>
<path fill="#000000" d="
  M 227.15 277.72
  Q 228.62 277.09 228.22 278.58
  A 1.14 1.01 87.6 0 1 227.63 279.30
  Q 226.51 279.78 226.62 278.43
  A 0.86 0.83 -9.3 0 1 227.15 277.72
  Z"
/>
<path fill="#000000" d="
  M 316.32 279.20
  Q 315.50 278.26 316.76 277.87
  A 0.85 0.83 58.4 0 1 317.62 278.09
  Q 318.67 279.18 317.18 279.49
  A 0.92 0.90 -25.6 0 1 316.32 279.20
  Z"
/>
<path fill="#000000" d="
  M 341.17 278.75
  Q 339.94 279.30 340.50 278.19
  A 0.81 0.68 -71.1 0 1 341.25 277.74
  Q 341.65 277.80 341.66 278.14
  A 0.80 0.56 -16.4 0 1 341.17 278.75
  Z"
/>
<circle fill="#000000" cx="212.76" cy="279.38" r="1.29"/>
<circle fill="#000000" cx="269.36" cy="279.49" r="1.59"/>
<ellipse fill="#000000" cx="0.00" cy="0.00" transform="translate(293.21,279.09) rotate(11.3)" rx="1.31" ry="1.20"/>
<path fill="#000000" d="
  M 237.21 278.75
  Q 237.39 279.00 237.24 279.30
  A 0.66 0.56 22.2 0 1 236.47 279.55
  Q 235.13 279.10 236.34 278.60
  A 0.80 0.60 -27.0 0 1 237.21 278.75
  Z"
/>
<path fill="#000000" d="
  M 325.61 279.68
  Q 325.13 278.97 325.82 278.48
  A 0.65 0.59 49.4 0 1 326.62 278.58
  Q 327.62 279.58 326.43 279.95
  A 0.75 0.70 -24.8 0 1 325.61 279.68
  Z"
/>
<circle fill="#000000" cx="350.13" cy="278.87" r="0.64"/>
<circle fill="#000000" cx="278.45" cy="280.05" r="1.47"/>
<circle fill="#000000" cx="302.37" cy="279.63" r="1.15"/>
<rect fill="#000000" x="196.50" y="278.79" width="3.08" height="3.16" rx="1.40"/>
<circle fill="#000000" cx="221.86" cy="279.98" r="1.10"/>
<path fill="#000000" d="
  M 335.51 279.27
  Q 336.62 279.84 335.54 280.28
  A 0.62 0.53 -22.2 0 1 334.77 280.03
  Q 334.65 279.75 334.77 279.47
  A 0.56 0.48 25.4 0 1 335.51 279.27
  Z"
/>
<rect fill="#000000" x="-1.31" y="-1.21" transform="translate(287.60,280.55) rotate(-37.6)" width="2.62" height="2.42" rx="1.11"/>
<ellipse fill="#000000" cx="0.00" cy="0.00" transform="translate(311.51,280.21) rotate(49.5)" rx="1.05" ry="0.96"/>
<circle fill="#000000" cx="207.12" cy="280.92" r="1.43"/>
<path fill="#000000" d="
  M 262.00 279.75
  Q 263.96 278.95 265.02 280.18
  Q 265.56 280.81 265.32 281.57
  Q 265.02 282.51 263.97 282.58
  Q 262.91 282.66 262.36 281.78
  Q 261.82 280.92 262.00 279.75
  Z"
/>
<path fill="#000000" d="
  M 231.73 280.42
  Q 231.82 280.92 231.42 281.25
  A 0.60 0.52 48.7 0 1 230.65 281.14
  Q 229.46 279.84 231.06 279.90
  A 0.72 0.61 -2.7 0 1 231.73 280.42
  Z"
/>
<circle fill="#000000" cx="320.62" cy="280.77" r="0.90"/>
<path fill="#000000" d="
  M 344.80 280.98
  Q 344.64 281.08 344.41 281.05
  A 0.52 0.44 -89.1 0 1 344.03 280.58
  Q 343.94 278.97 344.78 280.14
  A 0.68 0.46 55.0 0 1 344.80 280.98
  Z"
/>
<ellipse fill="#000000" cx="0.00" cy="0.00" transform="translate(272.88,281.50) rotate(-14.2)" rx="1.58" ry="1.49"/>
<circle fill="#000000" cx="296.75" cy="281.13" r="1.21"/>
<ellipse fill="#000000" cx="0.00" cy="0.00" transform="translate(216.28,281.45) rotate(66.0)" rx="1.20" ry="1.15"/>
<path fill="#000000" d="
  M 330.00 280.57
  Q 330.33 280.84 330.44 281.25
  A 0.53 0.48 -12.4 0 1 330.01 281.86
  Q 328.40 282.15 329.28 280.73
  A 0.51 0.46 -54.7 0 1 330.00 280.57
  Z"
/>
<path fill="#000000" d="
  M 240.00 280.67
  Q 240.80 280.06 240.66 281.08
  A 0.67 0.52 -83.2 0 1 240.08 281.67
  Q 239.81 281.65 239.72 281.35
  A 0.72 0.57 -29.3 0 1 240.00 280.67
  Z"
/>
<circle fill="#000000" cx="305.84" cy="281.66" r="1.10"/>
<circle fill="#000000" cx="282.08" cy="282.06" r="1.36"/>
<path fill="#000000" d="
  M 202.61 281.59
  Q 204.14 283.88 201.07 283.73
  A 0.85 0.81 -9.6 0 1 200.35 283.24
  Q 199.37 280.94 201.82 281.13
  A 1.08 1.05 74.6 0 1 202.61 281.59
  Z"
/>
<circle fill="#000000" cx="225.47" cy="282.03" r="0.99"/>
<path fill="#000000" d="
  M 339.52 281.37
  Q 339.79 281.56 339.74 281.88
  A 0.67 0.52 5.1 0 1 339.08 282.31
  Q 337.46 282.24 338.64 281.44
  A 0.89 0.65 -40.6 0 1 339.52 281.37
  Z"
/>
<ellipse fill="#000000" cx="0.00" cy="0.00" transform="translate(315.01,282.23) rotate(79.9)" rx="1.01" ry="0.92"/>
<circle fill="#000000" cx="210.68" cy="282.94" r="1.40"/>
<path fill="#000000" d="
  M 268.81 283.42
  A 1.09 1.09 4.7 0 1 267.57 284.47
  Q 264.40 284.04 266.40 281.86
  A 1.12 0.97 -64.7 0 1 267.24 281.49
  Q 268.86 281.60 268.81 283.42
  Z"
/>
<path fill="#000000" d="
  M 292.06 282.13
  Q 293.13 284.21 290.55 283.57
  A 0.75 0.72 3.6 0 1 289.98 282.95
  Q 289.78 281.26 291.33 281.56
  A 1.10 1.03 81.0 0 1 292.06 282.13
  Z"
/>
<ellipse fill="#000000" cx="0.00" cy="0.00" transform="translate(234.59,282.55) rotate(23.8)" rx="0.91" ry="0.80"/>
<path fill="#000000" d="
  M 348.35 282.05
  Q 349.12 282.34 348.44 282.77
  A 0.72 0.61 -37.2 0 1 347.59 282.72
  Q 347.33 282.45 347.59 282.18
  A 0.77 0.63 29.7 0 1 348.35 282.05
  Z"
/>
<circle fill="#000000" cx="300.34" cy="283.16" r="1.14"/>
<ellipse fill="#000000" cx="0.00" cy="0.00" transform="translate(324.16,282.80) rotate(-23.7)" rx="0.91" ry="0.80"/>
<ellipse fill="#000000" cx="0.00" cy="0.00" transform="translate(195.92,283.88) rotate(35.7)" rx="1.64" ry="1.60"/>
<circle fill="#000000" cx="276.44" cy="283.60" r="1.47"/>
<circle fill="#000000" cx="219.84" cy="283.50" r="1.07"/>
<circle fill="#000000" cx="243.63" cy="283.12" r="0.64"/>
<path fill="#000000" d="
  M 333.56 282.58
  Q 334.17 282.69 333.99 283.36
  A 0.90 0.78 -1.0 0 1 333.33 283.95
  Q 332.11 284.22 332.80 282.99
  A 0.80 0.67 -68.5 0 1 333.56 282.58
  Z"
/>
<circle fill="#000000" cx="285.58" cy="284.09" r="1.38"/>
<circle fill="#000000" cx="309.44" cy="283.75" r="1.05"/>
<circle fill="#000000" cx="205.10" cy="284.43" r="1.43"/>
<circle fill="#000000" cx="228.95" cy="284.11" r="0.92"/>
<path fill="#000000" d="
  M 293.83 284.26
  Q 294.89 282.20 295.70 284.38
  A 1.02 1.01 79.1 0 1 294.78 285.75
  Q 293.03 285.79 293.83 284.26
  Z"
/>
<path fill="#000000" d="
  M 317.90 284.65
  Q 317.21 283.52 318.31 283.43
  A 1.06 0.95 65.5 0 1 319.15 283.80
  Q 320.26 285.08 318.68 285.09
  A 0.92 0.91 74.0 0 1 317.90 284.65
  Z"
/>
<path fill="#000000" d="
  M 342.80 284.48
  Q 342.64 284.58 342.41 284.55
  A 0.55 0.44 -89.9 0 1 342.02 284.07
  Q 341.89 282.52 342.77 283.65
  A 0.67 0.46 53.6 0 1 342.80 284.48
  Z"
/>
<circle fill="#000000" cx="270.82" cy="285.10" r="1.57"/>
<path fill="#000000" d="
  M 191.75 283.75
  Q 193.06 286.77 190.31 287.04
  A 0.95 0.91 67.5 0 1 189.49 286.68
  Q 187.15 283.67 191.75 283.75
  Z"
/>
<circle fill="#000000" cx="214.21" cy="284.96" r="1.26"/>
<path fill="#000000" d="
  M 237.90 285.03
  Q 236.92 284.00 238.20 284.21
  A 0.72 0.62 3.2 0 1 238.80 284.79
  Q 238.83 285.16 238.58 285.27
  A 0.72 0.45 51.5 0 1 237.90 285.03
  Z"
/>
<path fill="#000000" d="
  M 328.45 284.49
  Q 328.95 285.00 328.19 285.51
  A 0.81 0.75 44.2 0 1 327.32 285.49
  Q 326.03 284.63 327.57 284.28
  A 1.00 0.78 -24.8 0 1 328.45 284.49
  Z"
/>
<circle fill="#000000" cx="279.93" cy="285.62" r="1.43"/>
<path fill="#000000" d="
  M 304.82 285.55
  Q 304.45 286.44 303.55 286.32
  A 0.98 0.85 81.0 0 1 302.85 285.73
  Q 302.11 283.91 304.11 284.25
  A 0.95 0.95 -73.7 0 1 304.82 285.55
  Z"
/>
<circle fill="#000000" cx="199.51" cy="285.95" r="1.52"/>
<circle fill="#000000" cx="223.36" cy="285.56" r="1.12"/>
<path fill="#000000" d="
  M 337.13 285.81
  Q 335.79 286.48 336.26 285.14
  A 0.73 0.60 -76.1 0 1 336.94 284.64
  Q 337.32 284.69 337.47 285.07
  A 0.66 0.56 -24.7 0 1 337.13 285.81
  Z"
/>
<circle fill="#000000" cx="312.93" cy="285.79" r="1.02"/>
<circle fill="#000000" cx="208.65" cy="286.45" r="1.37"/>
<circle fill="#000000" cx="265.28" cy="286.57" r="1.65"/>
<circle fill="#000000" cx="289.07" cy="286.20" r="1.29"/>
<path fill="#000000" d="
  M 232.02 286.54
  Q 231.15 285.87 232.20 285.46
  A 0.85 0.84 55.6 0 1 233.08 285.63
  Q 233.98 286.43 232.92 286.72
  A 1.06 1.04 55.8 0 1 232.02 286.54
  Z"
/>
<path fill="#000000" d="
  M 346.10 285.52
  Q 347.37 285.82 346.23 286.32
  A 0.88 0.67 -31.0 0 1 345.34 286.22
  Q 345.08 285.95 345.34 285.68
  A 0.87 0.65 24.7 0 1 346.10 285.52
  Z"
/>
<circle fill="#000000" cx="274.42" cy="287.07" r="1.49"/>
<ellipse fill="#000000" cx="0.00" cy="0.00" transform="translate(298.23,286.75) rotate(-23.8)" rx="1.23" ry="1.12"/>
<ellipse fill="#000000" cx="0.00" cy="0.00" transform="translate(322.14,286.36) rotate(33.5)" rx="0.96" ry="0.91"/>
<path fill="#000000" d="
  M 194.68 286.28
  Q 196.92 288.46 193.75 288.94
  A 0.95 0.94 -25.1 0 1 192.90 288.64
  Q 190.95 286.50 193.82 286.01
  A 0.97 0.97 62.4 0 1 194.68 286.28
  Z"
/>
<ellipse fill="#000000" cx="0.00" cy="0.00" transform="translate(217.79,287.06) rotate(-45.5)" rx="1.22" ry="1.15"/>
<path fill="#000000" d="
  M 241.25 286.39
  Q 241.43 285.48 242.00 286.32
  A 0.71 0.59 52.6 0 1 241.97 287.16
  Q 241.70 287.42 241.43 287.16
  A 0.89 0.69 -65.4 0 1 241.25 286.39
  Z"
/>
<path fill="#000000" d="
  M 331.55 286.17
  Q 331.99 286.36 331.95 286.83
  A 0.80 0.68 -4.4 0 1 331.33 287.45
  Q 330.11 287.72 330.80 286.49
  A 0.65 0.57 -64.1 0 1 331.55 286.17
  Z"
/>
<ellipse fill="#000000" cx="0.00" cy="0.00" transform="translate(307.42,287.26) rotate(67.3)" rx="1.07" ry="1.02"/>
<path fill="#000000" d="
  M 202.19 289.06
  Q 200.94 287.92 202.16 286.86
  A 1.18 1.18 28.1 0 1 203.06 286.59
  Q 204.84 286.82 204.31 288.81
  A 1.38 1.10 31.8 0 1 202.19 289.06
  Z"
/>
<circle fill="#000000" cx="226.90" cy="287.60" r="0.97"/>
<circle fill="#000000" cx="283.48" cy="287.73" r="1.34"/>
<ellipse fill="#000000" cx="0.00" cy="0.00" transform="translate(316.52,287.83) rotate(-25.7)" rx="0.98" ry="0.92"/>
<path fill="#000000" d="
  M 339.77 287.80
  Q 339.67 287.64 339.70 287.41
  A 0.52 0.44 0.9 0 1 340.17 287.03
  Q 341.78 286.94 340.61 287.78
  A 0.68 0.46 -35.0 0 1 339.77 287.80
  Z"
/>
<path fill="#000000" d="
  M 268.42 290.08
  A 1.09 1.08 -1.9 0 1 267.25 288.99
  Q 267.27 286.38 269.48 287.34
  A 1.20 1.11 3.7 0 1 270.13 288.03
  Q 270.77 289.90 268.42 290.08
  Z"
/>
<circle fill="#000000" cx="292.61" cy="288.25" r="1.25"/>
<circle fill="#000000" cx="212.18" cy="288.56" r="1.28"/>
<ellipse fill="#000000" cx="0.00" cy="0.00" transform="translate(349.50,288.00) rotate(90.0)" rx="0.74" ry="0.52"/>
<path fill="#000000" d="
  M 235.81 288.76
  Q 235.06 288.58 235.65 287.86
  A 0.71 0.71 31.4 0 1 236.48 287.66
  Q 237.33 288.02 236.72 288.54
  A 1.04 1.04 -58.5 0 1 235.81 288.76
  Z"
/>
<circle fill="#000000" cx="301.78" cy="288.75" r="1.14"/>
<path fill="#000000" d="
  M 325.57 289.15
  Q 324.80 289.19 324.85 288.43
  A 0.83 0.75 -8.9 0 1 325.40 287.75
  Q 326.72 287.30 326.26 288.60
  A 0.85 0.76 -80.4 0 1 325.57 289.15
  Z"
/>
<circle fill="#000000" cx="277.94" cy="289.19" r="1.43"/>
<circle fill="#000000" cx="197.49" cy="289.51" r="1.59"/>
<path fill="#000000" d="
  M 220.94 290.06
  Q 219.84 289.39 220.49 288.45
  A 0.99 0.92 -71.5 0 1 221.30 288.01
  Q 222.32 288.02 222.50 289.25
  Q 222.78 291.19 220.94 290.06
  Z"
/>
<path fill="#000000" d="
  M 335.27 288.38
  Q 335.89 288.74 335.51 289.31
  A 0.74 0.67 23.4 0 1 334.71 289.58
  Q 333.32 289.18 334.39 288.44
  A 0.86 0.78 -45.9 0 1 335.27 288.38
  Z"
/>
<ellipse fill="#000000" cx="0.00" cy="0.00" transform="translate(310.93,289.33) rotate(-31.1)" rx="1.03" ry="0.95"/>
<circle fill="#000000" cx="206.53" cy="290.06" r="1.50"/>
<circle fill="#000000" cx="287.01" cy="289.76" r="1.32"/>
<ellipse fill="#000000" cx="0.00" cy="0.00" transform="translate(230.50,289.65) rotate(-23.8)" rx="0.97" ry="0.89"/>
<path fill="#000000" d="
  M 344.27 289.14
  Q 345.26 290.18 343.74 289.87
  A 0.58 0.48 12.8 0 1 343.27 289.26
  Q 343.37 288.88 343.78 288.89
  Q 344.04 288.90 344.27 289.14
  Z"
/>
<circle fill="#000000" cx="296.18" cy="290.27" r="1.22"/>
<ellipse fill="#000000" cx="0.00" cy="0.00" transform="translate(320.08,289.89) rotate(31.3)" rx="0.93" ry="0.89"/>
<path fill="#000000" d="
  M 271.69 292.06
  Q 270.38 291.42 271.02 289.94
  A 1.16 1.16 3.0 0 1 271.71 289.32
  Q 273.11 288.86 273.70 289.92
  Q 274.16 290.73 273.69 291.58
  Q 273.05 292.73 271.69 292.06
  Z"
/>
<path fill="#000000" d="
  M 353.42 290.66
  Q 353.26 290.85 353.04 290.68
  A 0.75 0.54 -75.6 0 1 352.82 290.12
  Q 352.86 288.48 353.43 289.96
  A 0.82 0.50 59.6 0 1 353.42 290.66
  Z"
/>
<circle fill="#000000" cx="215.70" cy="290.61" r="1.18"/>
<path fill="#000000" d="
  M 239.03 290.55
  Q 238.70 290.24 238.91 289.87
  A 0.71 0.58 24.6 0 1 239.72 289.66
  Q 241.28 290.24 239.91 290.68
  A 0.97 0.73 -28.7 0 1 239.03 290.55
  Z"
/>
<ellipse fill="#000000" cx="0.00" cy="0.00" transform="translate(329.21,290.43) rotate(61.4)" rx="0.87" ry="0.81"/>
<circle fill="#000000" cx="281.51" cy="291.16" r="1.44"/>
<path fill="#000000" d="
  M 304.67 291.38
  Q 303.57 289.43 305.83 290.04
  A 0.79 0.71 5.6 0 1 306.41 290.67
  Q 306.55 291.79 305.43 291.83
  A 0.90 0.80 72.4 0 1 304.67 291.38
  Z"
/>
<circle fill="#000000" cx="201.00" cy="291.53" r="1.52"/>
<circle fill="#000000" cx="224.85" cy="291.20" r="1.01"/>
<path fill="#000000" d="
  M 314.89 290.65
  Q 316.39 291.47 314.71 292.30
  A 0.79 0.75 -36.8 0 1 313.85 292.20
  Q 312.98 291.40 314.01 290.69
  A 0.85 0.83 41.6 0 1 314.89 290.65
  Z"
/>
<path fill="#000000" d="
  M 338.31 290.36
  Q 339.68 290.57 338.66 291.44
  A 0.59 0.49 -38.8 0 1 337.87 291.43
  Q 337.66 291.17 337.69 290.80
  A 0.55 0.49 6.3 0 1 338.31 290.36
  Z"
/>
<circle fill="#000000" cx="266.67" cy="292.19" r="1.61"/>
<circle fill="#000000" cx="290.58" cy="291.77" r="1.25"/>
<rect fill="#000000" x="-1.31" y="-1.30" transform="translate(210.14,292.05) rotate(18.4)" width="2.62" height="2.60" rx="1.06"/>
<path fill="#000000" d="
  M 347.81 291.24
  Q 348.44 292.07 347.48 291.88
  A 0.74 0.54 8.8 0 1 346.87 291.28
  Q 346.88 291.04 347.18 290.97
  A 0.68 0.55 62.3 0 1 347.81 291.24
  Z"
/>
<path fill="#000000" d="
  M 234.77 291.65
  Q 234.84 291.97 234.65 292.21
  A 0.70 0.54 35.7 0 1 233.82 292.24
  Q 232.29 291.25 234.06 291.19
  A 0.72 0.58 -5.7 0 1 234.77 291.65
  Z"
/>
<ellipse fill="#000000" cx="0.00" cy="0.00" transform="translate(323.62,291.89) rotate(27.0)" rx="0.93" ry="0.80"/>
<path fill="#000000" d="
  M 274.43 292.19
  Q 275.31 290.89 276.37 291.42
  Q 277.17 291.81 277.31 292.79
  Q 277.54 294.39 275.20 293.99
  A 1.17 1.16 -68.2 0 1 274.43 292.19
  Z"
/>
<circle fill="#000000" cx="299.67" cy="292.34" r="1.12"/>
<path fill="#000000" d="
  M 196.06 291.69
  Q 197.28 292.09 197.10 293.51
  A 1.03 1.03 73.0 0 1 196.58 294.27
  Q 195.41 294.93 194.56 294.20
  Q 193.87 293.60 193.96 292.60
  Q 194.09 291.03 196.06 291.69
  Z"
/>
<circle fill="#000000" cx="219.32" cy="292.63" r="1.19"/>
<path fill="#000000" d="
  M 242.87 291.92
  Q 243.43 290.87 243.63 292.19
  A 0.73 0.52 79.2 0 1 243.27 292.96
  Q 243.00 293.02 242.83 292.72
  A 0.92 0.70 -50.0 0 1 242.87 291.92
  Z"
/>
<path fill="#000000" d="
  M 308.74 293.82
  Q 307.66 293.61 307.80 292.80
  Q 307.89 292.25 308.49 291.94
  Q 309.69 291.33 309.88 292.76
  A 0.96 0.95 2.0 0 1 308.74 293.82
  Z"
/>
<ellipse fill="#000000" cx="0.00" cy="0.00" transform="translate(332.79,292.46) rotate(45.0)" rx="0.81" ry="0.72"/>
<circle fill="#000000" cx="285.02" cy="293.30" r="1.35"/>
<rect fill="#000000" x="-1.37" y="-1.36" transform="translate(204.60,293.59) rotate(-2.9)" width="2.74" height="2.72" rx="1.08"/>
<path fill="#000000" d="
  M 227.61 293.06
  Q 227.57 292.17 228.47 292.40
  A 1.07 1.00 83.9 0 1 229.16 293.00
  Q 229.73 294.31 228.15 293.75
  A 0.83 0.74 10.1 0 1 227.61 293.06
  Z"
/>
<path fill="#000000" d="
  M 342.17 292.57
  Q 343.52 293.01 341.97 293.59
  A 0.61 0.50 -20.9 0 1 341.23 293.34
  Q 341.10 293.01 341.30 292.75
  A 0.85 0.63 25.1 0 1 342.17 292.57
  Z"
/>
<ellipse fill="#000000" cx="0.00" cy="0.00" transform="translate(270.26,294.22) rotate(86.6)" rx="1.60" ry="1.53"/>
<ellipse fill="#000000" cx="0.00" cy="0.00" transform="translate(294.16,293.84) rotate(48.2)" rx="1.31" ry="1.19"/>
<path fill="#000000" d="
  M 318.89 293.47
  Q 318.58 294.85 317.80 294.17
  Q 316.01 292.63 318.14 292.57
  A 0.74 0.74 -84.8 0 1 318.89 293.47
  Z"
/>
<circle fill="#000000" cx="213.69" cy="294.15" r="1.31"/>
<path fill="#000000" d="
  M 237.25 293.04
  Q 237.50 292.86 237.80 293.01
  A 0.69 0.57 -70.0 0 1 238.07 293.78
  Q 237.62 295.34 237.09 293.91
  A 0.83 0.60 64.6 0 1 237.25 293.04
  Z"
/>
<path fill="#000000" d="
  M 327.31 293.08
  Q 327.85 293.19 327.97 293.75
  A 0.74 0.64 -20.6 0 1 327.56 294.50
  Q 326.15 295.19 326.65 293.53
  A 0.63 0.55 -75.2 0 1 327.31 293.08
  Z"
/>
<path fill="#000000" d="
  M 350.76 293.21
  Q 351.67 292.62 351.55 293.45
  A 0.69 0.64 -88.2 0 1 350.96 294.05
  Q 350.59 294.08 350.48 293.83
  A 0.59 0.42 -30.0 0 1 350.76 293.21
  Z"
/>
<circle fill="#000000" cx="303.28" cy="294.37" r="1.11"/>
<circle fill="#000000" cx="198.91" cy="295.11" r="1.59"/>
<path fill="#000000" d="
  M 222.33 293.89
  Q 223.78 292.91 223.72 294.95
  A 0.77 0.76 -10.6 0 1 223.24 295.64
  Q 221.60 296.28 221.84 294.67
  A 1.13 1.12 77.1 0 1 222.33 293.89
  Z"
/>
<circle fill="#000000" cx="279.39" cy="294.78" r="1.41"/>
<path fill="#000000" d="
  M 335.61 294.32
  Q 335.65 294.09 335.87 293.93
  A 0.55 0.47 51.0 0 1 336.54 294.06
  Q 337.73 295.39 336.16 294.96
  A 0.71 0.51 13.5 0 1 335.61 294.32
  Z"
/>
<path fill="#000000" d="
  M 287.71 295.87
  Q 286.52 293.38 289.22 294.38
  A 0.86 0.80 7.4 0 1 289.77 295.05
  Q 289.97 296.74 288.42 296.44
  A 1.06 0.95 80.7 0 1 287.71 295.87
  Z"
/>
<path fill="#000000" d="
  M 311.79 294.28
  A 0.75 0.75 37.9 0 1 312.91 294.14
  Q 314.52 295.57 312.50 295.73
  Q 311.85 295.78 311.61 295.45
  Q 311.30 295.02 311.79 294.28
  Z"
/>
<rect fill="#000000" x="-1.33" y="-1.39" transform="translate(208.10,295.66) rotate(-9.2)" width="2.66" height="2.78" rx="1.19"/>
<path fill="#000000" d="
  M 345.68 294.61
  Q 346.63 295.44 345.43 295.55
  A 0.61 0.50 -3.6 0 1 344.78 295.08
  Q 344.77 294.82 344.95 294.60
  A 0.55 0.46 41.2 0 1 345.68 294.61
  Z"
/>
<ellipse fill="#000000" cx="0.00" cy="0.00" transform="translate(232.02,295.25) rotate(-3.1)" rx="0.91" ry="0.76"/>
<path fill="#000000" d="
  M 321.33 296.43
  A 0.47 0.46 -9.0 0 1 320.75 296.02
  Q 320.58 293.81 322.04 294.77
  A 0.97 0.67 24.8 0 1 322.50 295.55
  Q 322.40 296.17 321.33 296.43
  Z"
/>
<circle fill="#000000" cx="273.82" cy="296.27" r="1.48"/>
<circle fill="#000000" cx="297.63" cy="295.87" r="1.17"/>
<ellipse fill="#000000" cx="0.00" cy="0.00" transform="translate(193.40,296.57) rotate(44.2)" rx="1.70" ry="1.62"/>
<circle fill="#000000" cx="217.21" cy="296.16" r="1.15"/>
<path fill="#000000" d="
  M 241.62 295.88
  Q 241.69 296.84 240.94 296.27
  A 0.75 0.57 34.0 0 1 240.66 295.45
  Q 240.80 295.18 241.15 295.26
  A 0.69 0.60 -86.4 0 1 241.62 295.88
  Z"
/>
<ellipse fill="#000000" cx="0.00" cy="0.00" transform="translate(330.71,296.07) rotate(119.0)" rx="0.87" ry="0.81"/>
<circle fill="#000000" cx="282.91" cy="296.82" r="1.34"/>
<circle fill="#000000" cx="306.80" cy="296.46" r="1.02"/>
<ellipse fill="#000000" cx="0.00" cy="0.00" transform="translate(202.49,297.11) rotate(27.7)" rx="1.63" ry="1.41"/>
<path fill="#000000" d="
  M 226.95 297.40
  Q 225.65 298.49 225.56 296.81
  A 0.90 0.84 73.9 0 1 225.96 296.03
  Q 227.00 295.40 227.25 296.57
  A 0.89 0.84 -26.7 0 1 226.95 297.40
  Z"
/>
<ellipse fill="#000000" cx="0.00" cy="0.00" transform="translate(292.09,297.36) rotate(97.7)" rx="1.31" ry="1.24"/>
<ellipse fill="#000000" cx="0.00" cy="0.00" transform="translate(315.92,296.94) rotate(125.2)" rx="1.00" ry="0.90"/>
<path fill="#000000" d="
  M 339.81 296.02
  Q 340.99 295.98 340.33 296.87
  A 0.72 0.58 -55.8 0 1 339.51 297.12
  Q 339.20 296.94 339.21 296.54
  A 0.62 0.54 -0.2 0 1 339.81 296.02
  Z"
/>
<circle fill="#000000" cx="268.30" cy="297.80" r="1.59"/>
<rect fill="#000000" x="-1.33" y="-1.18" transform="translate(211.61,297.69) rotate(6.0)" width="2.66" height="2.36" rx="1.06"/>
<path fill="#000000" d="
  M 236.26 297.43
  Q 236.06 298.45 235.14 297.81
  A 0.76 0.73 24.7 0 1 234.83 297.01
  Q 235.09 296.10 235.92 296.63
  A 0.79 0.77 22.4 0 1 236.26 297.43
  Z"
/>
<path fill="#000000" d="
  M 348.78 296.65
  Q 349.55 296.07 349.41 297.08
  A 0.79 0.65 -88.7 0 1 348.84 297.74
  Q 348.47 297.80 348.42 297.39
  A 0.88 0.71 -25.0 0 1 348.78 296.65
  Z"
/>
<ellipse fill="#000000" cx="0.00" cy="0.00" transform="translate(277.36,298.29) rotate(75.7)" rx="1.53" ry="1.43"/>
<path fill="#000000" d="
  M 300.47 298.36
  Q 299.55 296.31 301.61 297.01
  A 1.09 1.04 0.5 0 1 302.27 297.65
  Q 302.78 299.05 301.18 298.89
  A 0.90 0.86 80.4 0 1 300.47 298.36
  Z"
/>
<path fill="#000000" d="
  M 324.49 298.08
  Q 323.94 297.69 324.39 297.11
  A 0.84 0.73 26.1 0 1 325.24 296.88
  Q 326.87 297.37 325.39 298.11
  A 0.95 0.79 -37.7 0 1 324.49 298.08
  Z"
/>
<ellipse fill="#000000" cx="0.00" cy="0.00" transform="translate(196.85,298.62) rotate(6.7)" rx="1.63" ry="1.51"/>
<path fill="#000000" d="
  M 221.05 297.18
  Q 221.95 297.55 221.82 298.45
  A 0.94 0.84 -8.3 0 1 221.24 299.14
  Q 219.37 299.88 219.92 297.75
  A 0.84 0.84 -71.8 0 1 221.05 297.18
  Z"
/>
<path fill="#000000" d="
  M 334.00 297.29
  Q 334.25 297.11 334.55 297.26
  A 0.68 0.55 -68.9 0 1 334.80 298.03
  Q 334.26 299.66 333.81 298.16
  A 0.88 0.63 66.6 0 1 334.00 297.29
  Z"
/>
<ellipse fill="#000000" cx="0.00" cy="0.00" transform="translate(286.51,298.84) rotate(9.9)" rx="1.33" ry="1.23"/>
<circle fill="#000000" cx="310.41" cy="298.50" r="1.07"/>
<circle fill="#000000" cx="206.07" cy="299.17" r="1.48"/>
<circle fill="#000000" cx="229.88" cy="298.81" r="0.90"/>
<path fill="#000000" d="
  M 319.18 299.76
  A 0.57 0.57 -75.7 0 1 318.74 299.02
  Q 319.32 297.28 320.23 298.57
  A 0.94 0.64 47.4 0 1 320.36 299.47
  Q 320.06 299.93 319.18 299.76
  Z"
/>
<path fill="#000000" d="
  M 343.08 298.40
  Q 343.49 297.38 343.90 298.34
  A 0.75 0.62 61.9 0 1 343.73 299.18
  Q 343.44 299.38 343.19 299.16
  A 0.74 0.56 -60.8 0 1 343.08 298.40
  Z"
/>
<circle fill="#000000" cx="271.76" cy="299.85" r="1.55"/>
<ellipse fill="#000000" cx="0.00" cy="0.00" transform="translate(295.64,299.39) rotate(57.2)" rx="1.20" ry="1.16"/>
<ellipse fill="#000000" cx="0.00" cy="0.00" transform="translate(215.21,299.75) rotate(20.9)" rx="1.30" ry="1.22"/>
<path fill="#000000" d="
  M 352.71 298.72
  Q 353.50 299.11 352.71 299.54
  A 0.54 0.43 -23.1 0 1 351.97 299.33
  Q 351.92 299.11 352.05 298.88
  A 0.53 0.46 27.3 0 1 352.71 298.72
  Z"
/>
<path fill="#000000" d="
  M 238.76 298.80
  Q 239.03 298.61 239.37 298.71
  A 0.58 0.51 -72.7 0 1 239.69 299.42
  Q 239.32 300.61 238.68 299.62
  A 0.65 0.54 55.9 0 1 238.76 298.80
  Z"
/>
<path fill="#000000" d="
  M 328.32 300.35
  Q 327.78 300.29 327.83 299.67
  A 0.87 0.75 -8.3 0 1 328.40 299.01
  Q 329.99 298.48 329.09 299.90
  A 0.93 0.71 -67.8 0 1 328.32 300.35
  Z"
/>
<circle fill="#000000" cx="280.91" cy="300.41" r="1.44"/>
<path fill="#000000" d="
  M 303.98 300.37
  Q 303.21 298.53 305.21 299.15
  A 0.88 0.84 3.2 0 1 305.82 299.80
  Q 306.07 301.16 304.67 300.92
  A 0.93 0.90 82.6 0 1 303.98 300.37
  Z"
/>
<circle fill="#000000" cx="200.47" cy="300.72" r="1.55"/>
<path fill="#000000" d="
  M 224.95 300.90
  Q 223.65 301.99 223.52 300.24
  A 0.81 0.77 74.0 0 1 223.92 299.48
  Q 224.99 298.89 225.25 300.07
  A 0.89 0.84 -26.7 0 1 224.95 300.90
  Z"
/>
<path fill="#000000" d="
  M 338.25 299.66
  Q 338.84 300.06 338.32 300.61
  A 0.68 0.65 36.8 0 1 337.49 300.71
  Q 336.58 300.18 337.37 299.67
  A 0.82 0.76 -43.4 0 1 338.25 299.66
  Z"
/>
<rect fill="#000000" x="-1.25" y="-1.29" transform="translate(290.04,300.91) rotate(7.8)" width="2.50" height="2.58" rx="1.13"/>
<circle fill="#000000" cx="313.92" cy="300.55" r="1.00"/>
<circle fill="#000000" cx="209.59" cy="301.22" r="1.42"/>
<path fill="#000000" d="
  M 232.80 301.24
  Q 232.61 300.97 232.71 300.63
  A 0.67 0.56 12.0 0 1 233.43 300.25
  Q 235.22 300.53 233.64 301.35
  A 0.72 0.55 -30.2 0 1 232.80 301.24
  Z"
/>
<circle fill="#000000" cx="323.09" cy="301.06" r="0.91"/>
<circle fill="#000000" cx="346.88" cy="300.62" r="0.64"/>
<path fill="#000000" d="
  M 299.98 300.71
  Q 300.69 301.28 300.24 302.04
  A 0.76 0.67 20.5 0 1 299.45 302.34
  Q 296.52 301.70 299.11 300.62
  A 0.91 0.78 -34.9 0 1 299.98 300.71
  Z"
/>
<circle fill="#000000" cx="218.70" cy="301.78" r="1.19"/>
<circle fill="#000000" cx="275.33" cy="301.85" r="1.41"/>
<path fill="#000000" d="
  M 243.00 301.61
  Q 242.82 302.52 242.25 301.68
  A 0.70 0.54 54.4 0 1 242.28 300.84
  Q 242.51 300.66 242.77 300.86
  A 0.78 0.66 -67.1 0 1 243.00 301.61
  Z"
/>
<path fill="#000000" d="
  M 332.49 302.44
  Q 332.20 302.63 331.87 302.32
  A 0.82 0.67 -59.5 0 1 331.74 301.47
  Q 332.44 299.77 332.74 301.57
  A 0.95 0.61 73.6 0 1 332.49 302.44
  Z"
/>
<path fill="#000000" d="
  M 307.42 301.74
  Q 307.85 300.64 308.76 301.06
  A 1.08 0.98 -86.3 0 1 309.34 301.79
  Q 309.61 302.96 308.30 302.99
  A 0.92 0.92 -80.2 0 1 307.42 301.74
  Z"
/>
<path fill="#000000" d="
  M 341.76 301.67
  Q 342.31 302.06 341.86 302.64
  A 0.62 0.62 35.0 0 1 341.05 302.78
  Q 340.30 302.31 340.91 301.74
  A 0.68 0.65 -48.6 0 1 341.76 301.67
  Z"
/>
<ellipse fill="#000000" cx="0.00" cy="0.00" transform="translate(227.88,302.34) rotate(31.8)" rx="0.95" ry="0.85"/>
<path fill="#000000" d="
  M 316.97 303.19
  Q 316.22 302.72 316.66 302.11
  A 0.97 0.81 18.3 0 1 317.50 301.78
  Q 319.51 302.00 317.60 303.61
  Q 317.32 303.84 317.23 303.56
  A 0.77 0.48 86.5 0 0 316.97 303.19
  Z"
/>
<path fill="#000000" d="
  M 237.45 303.41
  Q 237.27 303.81 236.93 303.69
  A 0.68 0.52 -76.9 0 1 236.62 303.00
  Q 236.91 300.98 237.46 302.73
  Q 237.58 303.11 237.45 303.41
  Z"
/>
<ellipse fill="#000000" cx="0.00" cy="0.00" transform="translate(350.47,302.59) rotate(74.8)" rx="0.64" ry="0.51"/>
<path fill="#000000" d="
  M 296.26 326.48
  A 17.95 7.48 0.0 0 1 278.31 333.96
  A 17.95 7.48 0.0 0 1 260.36 326.48
  A 17.95 7.48 0.0 0 1 278.31 319.00
  A 17.95 7.48 0.0 0 1 296.26 326.48
  Z
  M 290.69 324.31
  Q 291.70 324.32 291.26 323.68
  Q 291.10 323.45 290.76 323.33
  Q 278.19 318.95 265.70 323.42
  A 0.64 0.43 -16.3 0 0 265.25 323.96
  Q 265.30 324.26 265.75 324.25
  Q 273.33 324.16 290.69 324.31
  Z
  M 293.9399 326.9528
  A 0.73 0.73 0.0 0 0 293.2086 326.2241
  L 263.5287 326.2759
  A 0.73 0.73 0.0 0 0 262.7999 327.0072
  L 262.8001 327.1072
  A 0.73 0.73 0.0 0 0 263.5314 327.8359
  L 293.2113 327.7841
  A 0.73 0.73 0.0 0 0 293.9401 327.0528
  L 293.9399 326.9528
  Z
  M 269.81 330.93
  Q 277.33 332.34 287.00 331.00
  Q 288.18 330.84 288.53 330.27
  Q 288.83 329.80 288.19 329.80
  L 268.07 329.81
  A 0.42 0.37 -8.7 0 0 267.65 330.31
  Q 267.86 330.89 268.56 330.89
  Q 269.68 330.91 269.81 330.93
  Z"
/>
<path fill="#000000" d="
  M 592.61 351.83
  Q 573.95 332.22 545.75 331.75
  Q 534.04 331.55 524.16 336.04
  Q 505.31 344.60 495.65 362.90
  Q 495.59 363.01 495.53 363.25
  Q 495.46 363.56 495.25 363.46
  A 0.29 0.24 -65.0 0 1 495.16 363.10
  Q 503.30 344.88 519.81 335.81
  Q 530.95 329.70 543.79 329.53
  Q 553.38 329.40 563.55 332.18
  Q 585.91 338.29 598.85 358.85
  Q 598.91 358.94 599.36 359.46
  Q 599.66 359.79 599.66 360.20
  Q 599.66 360.82 599.27 360.28
  Q 597.68 358.11 596.07 355.96
  Q 594.24 353.53 592.61 351.83
  Z"
/>
<path fill="#020301" fill-opacity="0.565" d="
  M 132.79 346.75
  Q 132.24 346.00 131.25 346.46
  Q 133.65 345.14 136.27 344.30
  Q 137.59 343.87 137.71 344.69
  A 0.70 0.60 -13.6 0 1 137.22 345.37
  L 132.79 346.75
  Z"
/>
<path fill="#000000" d="
  M 577.99 394.88
  A 31.62 31.62 0.0 0 1 546.37 426.50
  A 31.62 31.62 0.0 0 1 514.75 394.88
  A 31.62 31.62 0.0 0 1 546.37 363.26
  A 31.62 31.62 0.0 0 1 577.99 394.88
  Z
  M 547.92 384.78
  Q 549.49 384.92 551.13 385.65
  A 0.58 0.58 -63.2 0 0 551.86 385.41
  L 559.82 371.78
  A 0.91 0.90 28.8 0 0 559.45 370.52
  Q 552.68 367.03 545.52 367.26
  A 0.56 0.54 -2.5 0 0 544.98 367.83
  L 545.78 383.70
  A 0.77 0.76 -80.8 0 0 546.27 384.39
  Q 547.05 384.70 547.92 384.78
  Z
  M 522.18 382.69
  L 536.30 389.78
  A 0.68 0.67 34.6 0 0 537.09 389.64
  L 540.61 386.00
  A 0.71 0.70 -38.0 0 0 540.72 385.17
  L 532.94 371.47
  A 0.71 0.71 -31.3 0 0 531.95 371.23
  Q 525.88 375.03 521.91 381.74
  A 0.68 0.68 -60.9 0 0 522.18 382.69
  Z
  M 555.58 389.67
  L 557.03 394.33
  A 0.72 0.68 80.7 0 0 557.69 394.83
  L 573.25 394.97
  A 0.92 0.90 88.5 0 0 574.16 393.99
  Q 573.77 386.84 570.06 380.35
  A 0.71 0.68 58.1 0 0 569.08 380.10
  L 555.85 388.89
  A 0.71 0.68 65.1 0 0 555.58 389.67
  Z
  M 550.13 394.89
  A 3.76 3.76 0.0 0 0 546.37 391.13
  A 3.76 3.76 0.0 0 0 542.61 394.89
  A 3.76 3.76 0.0 0 0 546.37 398.65
  A 3.76 3.76 0.0 0 0 550.13 394.89
  Z
  M 523.63 409.56
  Q 529.75 406.08 535.47 401.99
  Q 535.54 401.94 536.73 401.29
  Q 537.94 400.63 537.06 399.39
  Q 536.86 399.10 536.65 398.52
  L 535.54 395.38
  A 0.84 0.68 -7.2 0 0 534.80 394.92
  L 519.76 394.75
  A 1.20 1.17 89.1 0 0 518.58 396.00
  Q 518.89 403.13 522.91 409.40
  A 0.56 0.53 -31.1 0 0 523.63 409.56
  Z
  M 570.33 406.95
  L 556.45 399.97
  A 0.72 0.63 32.7 0 0 555.63 400.09
  L 552.29 403.85
  A 0.75 0.70 51.6 0 0 552.22 404.70
  L 560.11 418.45
  A 0.53 0.51 -32.0 0 0 560.85 418.60
  Q 567.17 414.44 570.69 408.11
  A 0.84 0.84 -62.3 0 0 570.33 406.95
  Z
  M 533.03 419.09
  Q 539.42 422.55 547.40 422.49
  A 0.53 0.52 -1.5 0 0 547.93 421.94
  L 546.86 405.93
  A 0.73 0.53 7.7 0 0 546.32 405.41
  L 542.07 404.34
  A 1.35 1.07 20.4 0 0 540.67 404.79
  L 532.82 418.37
  A 0.53 0.52 29.4 0 0 533.03 419.09
  Z"
/>
<path fill="#000000" d="
  M 190.04 397.04
  A 33.06 33.06 0.0 0 1 156.98 430.10
  A 33.06 33.06 0.0 0 1 123.92 397.04
  A 33.06 33.06 0.0 0 1 156.98 363.98
  A 33.06 33.06 0.0 0 1 190.04 397.04
  Z
  M 159.45 386.14
  Q 160.81 386.55 162.20 386.84
  A 0.74 0.69 20.3 0 0 162.96 386.52
  L 170.94 372.86
  A 0.66 0.64 28.0 0 0 170.65 371.95
  Q 163.64 368.48 156.03 368.50
  A 0.55 0.55 89.0 0 0 155.48 369.07
  Q 155.72 376.18 156.19 382.68
  Q 156.20 382.76 156.13 384.32
  Q 156.07 385.76 157.38 385.88
  Q 159.16 386.05 159.45 386.14
  Z
  M 132.40 384.67
  L 145.95 391.57
  A 1.49 1.10 -52.6 0 0 147.47 391.13
  L 150.60 387.79
  A 1.31 1.05 -39.8 0 0 150.88 386.41
  L 143.21 372.85
  A 0.72 0.71 -31.0 0 0 142.20 372.60
  Q 135.66 376.84 131.96 383.24
  A 1.04 1.02 28.6 0 0 132.40 384.67
  Z
  M 185.55 396.17
  Q 185.14 388.52 181.20 381.83
  A 0.43 0.42 58.3 0 0 180.60 381.68
  L 167.17 390.47
  A 1.08 0.88 67.2 0 0 166.84 391.60
  L 168.25 396.44
  A 0.70 0.56 81.0 0 0 168.81 396.95
  L 184.78 397.00
  A 0.78 0.77 88.3 0 0 185.55 396.17
  Z
  M 160.90 397.04
  A 3.92 3.92 0.0 0 0 156.98 393.12
  A 3.92 3.92 0.0 0 0 153.06 397.04
  A 3.92 3.92 0.0 0 0 156.98 400.96
  A 3.92 3.92 0.0 0 0 160.90 397.04
  Z
  M 147.22 402.77
  L 145.76 397.85
  A 1.15 0.86 79.1 0 0 144.85 397.02
  L 128.94 397.17
  A 0.49 0.49 88.9 0 0 128.45 397.68
  Q 128.70 405.60 132.89 412.23
  A 0.57 0.56 57.0 0 0 133.68 412.40
  L 146.99 403.57
  A 0.76 0.63 66.5 0 0 147.22 402.77
  Z
  M 181.61 409.46
  L 167.80 402.57
  A 0.89 0.88 -60.7 0 0 166.65 402.90
  Q 165.41 404.89 163.09 406.44
  A 0.63 0.62 -32.0 0 0 162.89 407.28
  L 171.07 421.29
  A 0.51 0.50 -32.2 0 0 171.78 421.45
  Q 178.30 417.24 182.01 410.81
  A 0.97 0.96 -61.6 0 0 181.61 409.46
  Z
  M 143.49 422.07
  Q 149.93 425.51 157.80 425.50
  A 0.74 0.73 -1.5 0 0 158.54 424.73
  L 157.60 408.93
  A 0.73 0.54 8.8 0 0 157.07 408.39
  L 151.94 407.03
  A 0.85 0.70 21.0 0 0 151.05 407.33
  L 143.16 420.96
  A 0.81 0.80 28.7 0 0 143.49 422.07
  Z"
/>
</svg>
