<svg id="visual" viewBox="0 0 1900 1080" width="1900" height="1080" xmlns="http://www.w3.org/2000/svg" xmlns:xlink="http://www.w3.org/1999/xlink" version="1.1"><g stroke-width="1" stroke-linejoin="bevel"><path d="M961 537L930 458L882 541Z" fill="#f5f9f9" stroke="#f5f9f9"></path><path d="M930 458L869 466L882 541Z" fill="#ffffff" stroke="#ffffff"></path><path d="M961 537L1045 504L930 458Z" fill="#f3f8f7" stroke="#f3f8f7"></path><path d="M869 466L794 532L882 541Z" fill="#f1f7f6" stroke="#f1f7f6"></path><path d="M841 639L970 638L882 541Z" fill="#f3f8f7" stroke="#f3f8f7"></path><path d="M882 541L970 638L961 537Z" fill="#eaf2f1" stroke="#eaf2f1"></path><path d="M961 537L1072 641L1045 504Z" fill="#ecf4f3" stroke="#ecf4f3"></path><path d="M817 368L777 464L869 466Z" fill="#e8f1f0" stroke="#e8f1f0"></path><path d="M869 466L777 464L794 532Z" fill="#f5f9f9" stroke="#f5f9f9"></path><path d="M794 532L841 639L882 541Z" fill="#f8fbfa" stroke="#f8fbfa"></path><path d="M1032 334L944 349L930 458Z" fill="#fafcfc" stroke="#fafcfc"></path><path d="M930 458L944 349L869 466Z" fill="#f8fbfa" stroke="#f8fbfa"></path><path d="M944 349L817 368L869 466Z" fill="#fafcfc" stroke="#fafcfc"></path><path d="M1113 558L1083 438L1045 504Z" fill="#f8fbfa" stroke="#f8fbfa"></path><path d="M1045 504L1083 438L930 458Z" fill="#f1f7f6" stroke="#f1f7f6"></path><path d="M841 639L860 679L970 638Z" fill="#eff5f4" stroke="#eff5f4"></path><path d="M1072 641L1113 558L1045 504Z" fill="#eaf2f1" stroke="#eaf2f1"></path><path d="M794 532L785 656L841 639Z" fill="#eff5f4" stroke="#eff5f4"></path><path d="M841 639L785 656L860 679Z" fill="#eff5f4" stroke="#eff5f4"></path><path d="M698 510L785 656L794 532Z" fill="#eff5f4" stroke="#eff5f4"></path><path d="M1055 751L1072 641L970 638Z" fill="#ffffff" stroke="#ffffff"></path><path d="M970 638L1072 641L961 537Z" fill="#ffffff" stroke="#ffffff"></path><path d="M1083 438L1032 334L930 458Z" fill="#eaf2f1" stroke="#eaf2f1"></path><path d="M780 241L720 376L817 368Z" fill="#f3f8f7" stroke="#f3f8f7"></path><path d="M654 441L698 510L777 464Z" fill="#eff5f4" stroke="#eff5f4"></path><path d="M777 464L698 510L794 532Z" fill="#f8fbfa" stroke="#f8fbfa"></path><path d="M1072 641L1118 615L1113 558Z" fill="#f5f9f9" stroke="#f5f9f9"></path><path d="M1113 558L1130 410L1083 438Z" fill="#eff5f4" stroke="#eff5f4"></path><path d="M1083 438L1130 410L1032 334Z" fill="#fafcfc" stroke="#fafcfc"></path><path d="M1216 450L1130 410L1113 558Z" fill="#fafcfc" stroke="#fafcfc"></path><path d="M957 842L963 737L883 845Z" fill="#f8fbfa" stroke="#f8fbfa"></path><path d="M860 679L963 737L970 638Z" fill="#f1f7f6" stroke="#f1f7f6"></path><path d="M1072 641L1130 693L1118 615Z" fill="#eff5f4" stroke="#eff5f4"></path><path d="M858 263L817 368L944 349Z" fill="#eaf2f1" stroke="#eaf2f1"></path><path d="M817 368L720 376L777 464Z" fill="#f3f8f7" stroke="#f3f8f7"></path><path d="M641 596L753 690L785 656Z" fill="#ecf4f3" stroke="#ecf4f3"></path><path d="M785 656L753 690L860 679Z" fill="#fafcfc" stroke="#fafcfc"></path><path d="M1032 334L931 257L944 349Z" fill="#f1f7f6" stroke="#f1f7f6"></path><path d="M931 257L858 263L944 349Z" fill="#ffffff" stroke="#ffffff"></path><path d="M780 241L698 366L720 376Z" fill="#eaf2f1" stroke="#eaf2f1"></path><path d="M720 376L654 441L777 464Z" fill="#f3f8f7" stroke="#f3f8f7"></path><path d="M1140 321L1058 281L1032 334Z" fill="#eaf2f1" stroke="#eaf2f1"></path><path d="M1032 334L1058 281L931 257Z" fill="#f1f7f6" stroke="#f1f7f6"></path><path d="M698 366L654 441L720 376Z" fill="#f5f9f9" stroke="#f5f9f9"></path><path d="M698 510L641 596L785 656Z" fill="#eff5f4" stroke="#eff5f4"></path><path d="M963 737L1055 751L970 638Z" fill="#eaf2f1" stroke="#eaf2f1"></path><path d="M1055 751L1130 693L1072 641Z" fill="#ecf4f3" stroke="#ecf4f3"></path><path d="M1247 575L1216 450L1113 558Z" fill="#f3f8f7" stroke="#f3f8f7"></path><path d="M1198 296L1140 321L1218 323Z" fill="#f1f7f6" stroke="#f1f7f6"></path><path d="M1130 410L1140 321L1032 334Z" fill="#f1f7f6" stroke="#f1f7f6"></path><path d="M577 536L641 596L698 510Z" fill="#ecf4f3" stroke="#ecf4f3"></path><path d="M790 220L780 241L858 263Z" fill="#ffffff" stroke="#ffffff"></path><path d="M858 263L780 241L817 368Z" fill="#fdfefd" stroke="#fdfefd"></path><path d="M1247 575L1113 558L1118 615Z" fill="#e8f1f0" stroke="#e8f1f0"></path><path d="M867 141L790 220L858 263Z" fill="#f3f8f7" stroke="#f3f8f7"></path><path d="M572 354L609 427L698 366Z" fill="#ecf4f3" stroke="#ecf4f3"></path><path d="M867 141L858 263L931 257Z" fill="#f3f8f7" stroke="#f3f8f7"></path><path d="M698 366L609 427L654 441Z" fill="#f8fbfa" stroke="#f8fbfa"></path><path d="M654 441L577 536L698 510Z" fill="#f1f7f6" stroke="#f1f7f6"></path><path d="M636 287L698 366L780 241Z" fill="#fdfefd" stroke="#fdfefd"></path><path d="M641 596L675 723L753 690Z" fill="#f5f9f9" stroke="#f5f9f9"></path><path d="M753 690L730 785L860 679Z" fill="#eff5f4" stroke="#eff5f4"></path><path d="M963 737L1016 851L1055 751Z" fill="#e8f1f0" stroke="#e8f1f0"></path><path d="M1249 638L1247 575L1118 615Z" fill="#f5f9f9" stroke="#f5f9f9"></path><path d="M675 723L730 785L753 690Z" fill="#fafcfc" stroke="#fafcfc"></path><path d="M883 845L963 737L860 679Z" fill="#ecf4f3" stroke="#ecf4f3"></path><path d="M1265 682L1249 638L1130 693Z" fill="#f1f7f6" stroke="#f1f7f6"></path><path d="M1013 171L931 257L1058 281Z" fill="#eff5f4" stroke="#eff5f4"></path><path d="M1013 171L966 173L931 257Z" fill="#e8f1f0" stroke="#e8f1f0"></path><path d="M730 785L883 845L860 679Z" fill="#e8f1f0" stroke="#e8f1f0"></path><path d="M641 596L609 654L675 723Z" fill="#eff5f4" stroke="#eff5f4"></path><path d="M675 723L634 795L730 785Z" fill="#eff5f4" stroke="#eff5f4"></path><path d="M577 536L609 654L641 596Z" fill="#f3f8f7" stroke="#f3f8f7"></path><path d="M609 427L577 536L654 441Z" fill="#ffffff" stroke="#ffffff"></path><path d="M1170 200L1013 171L1058 281Z" fill="#ffffff" stroke="#ffffff"></path><path d="M1218 323L1140 321L1130 410Z" fill="#ffffff" stroke="#ffffff"></path><path d="M1140 321L1164 256L1058 281Z" fill="#f3f8f7" stroke="#f3f8f7"></path><path d="M1218 323L1130 410L1216 450Z" fill="#f3f8f7" stroke="#f3f8f7"></path><path d="M1198 296L1164 256L1140 321Z" fill="#f5f9f9" stroke="#f5f9f9"></path><path d="M1319 422L1218 323L1216 450Z" fill="#eff5f4" stroke="#eff5f4"></path><path d="M1130 693L1249 638L1118 615Z" fill="#f8fbfa" stroke="#f8fbfa"></path><path d="M1164 791L1130 693L1055 751Z" fill="#fafcfc" stroke="#fafcfc"></path><path d="M955 878L1016 851L957 842Z" fill="#eff5f4" stroke="#eff5f4"></path><path d="M957 842L1016 851L963 737Z" fill="#eff5f4" stroke="#eff5f4"></path><path d="M607 221L636 287L645 159Z" fill="#ffffff" stroke="#ffffff"></path><path d="M609 427L496 456L577 536Z" fill="#f5f9f9" stroke="#f5f9f9"></path><path d="M850 67L867 141L920 60Z" fill="#f5f9f9" stroke="#f5f9f9"></path><path d="M966 173L867 141L931 257Z" fill="#f5f9f9" stroke="#f5f9f9"></path><path d="M790 220L645 159L780 241Z" fill="#eaf2f1" stroke="#eaf2f1"></path><path d="M854 1005L955 878L883 845Z" fill="#f8fbfa" stroke="#f8fbfa"></path><path d="M883 845L955 878L957 842Z" fill="#f5f9f9" stroke="#f5f9f9"></path><path d="M1065 880L1055 751L1016 851Z" fill="#ecf4f3" stroke="#ecf4f3"></path><path d="M1065 880L1164 791L1055 751Z" fill="#e8f1f0" stroke="#e8f1f0"></path><path d="M636 287L572 354L698 366Z" fill="#fafcfc" stroke="#fafcfc"></path><path d="M512 715L602 725L609 654Z" fill="#fafcfc" stroke="#fafcfc"></path><path d="M609 654L602 725L675 723Z" fill="#eff5f4" stroke="#eff5f4"></path><path d="M1164 791L1265 682L1130 693Z" fill="#e8f1f0" stroke="#e8f1f0"></path><path d="M1249 638L1303 576L1247 575Z" fill="#eff5f4" stroke="#eff5f4"></path><path d="M1247 575L1303 576L1216 450Z" fill="#f1f7f6" stroke="#f1f7f6"></path><path d="M1348 616L1303 576L1249 638Z" fill="#e8f1f0" stroke="#e8f1f0"></path><path d="M788 877L883 845L730 785Z" fill="#fafcfc" stroke="#fafcfc"></path><path d="M788 877L817 884L883 845Z" fill="#f8fbfa" stroke="#f8fbfa"></path><path d="M706 935L788 877L730 785Z" fill="#f3f8f7" stroke="#f3f8f7"></path><path d="M1318 240L1170 200L1198 296Z" fill="#fdfefd" stroke="#fdfefd"></path><path d="M1198 296L1170 200L1164 256Z" fill="#f8fbfa" stroke="#f8fbfa"></path><path d="M1164 256L1170 200L1058 281Z" fill="#f3f8f7" stroke="#f3f8f7"></path><path d="M920 60L867 141L966 173Z" fill="#f8fbfa" stroke="#f8fbfa"></path><path d="M1112 913L1065 880L1005 955Z" fill="#fdfefd" stroke="#fdfefd"></path><path d="M1005 955L1065 880L1016 851Z" fill="#fdfefd" stroke="#fdfefd"></path><path d="M602 725L634 795L675 723Z" fill="#f5f9f9" stroke="#f5f9f9"></path><path d="M867 141L771 128L790 220Z" fill="#f3f8f7" stroke="#f3f8f7"></path><path d="M636 287L574 230L572 354Z" fill="#fdfefd" stroke="#fdfefd"></path><path d="M1303 576L1319 422L1216 450Z" fill="#ecf4f3" stroke="#ecf4f3"></path><path d="M1218 323L1318 240L1198 296Z" fill="#ffffff" stroke="#ffffff"></path><path d="M645 159L636 287L780 241Z" fill="#ecf4f3" stroke="#ecf4f3"></path><path d="M466 379L496 456L572 354Z" fill="#f5f9f9" stroke="#f5f9f9"></path><path d="M572 354L496 456L609 427Z" fill="#eaf2f1" stroke="#eaf2f1"></path><path d="M475 660L512 715L609 654Z" fill="#fdfefd" stroke="#fdfefd"></path><path d="M496 456L491 513L577 536Z" fill="#ffffff" stroke="#ffffff"></path><path d="M602 725L578 843L634 795Z" fill="#eff5f4" stroke="#eff5f4"></path><path d="M1265 682L1348 616L1249 638Z" fill="#e8f1f0" stroke="#e8f1f0"></path><path d="M1303 576L1426 518L1319 422Z" fill="#fafcfc" stroke="#fafcfc"></path><path d="M1301 731L1348 616L1265 682Z" fill="#f8fbfa" stroke="#f8fbfa"></path><path d="M1239 817L1265 682L1164 791Z" fill="#ffffff" stroke="#ffffff"></path><path d="M1239 817L1301 731L1265 682Z" fill="#f3f8f7" stroke="#f3f8f7"></path><path d="M511 147L574 230L607 221Z" fill="#fdfefd" stroke="#fdfefd"></path><path d="M607 221L574 230L636 287Z" fill="#f8fbfa" stroke="#f8fbfa"></path><path d="M771 128L645 159L790 220Z" fill="#f1f7f6" stroke="#f1f7f6"></path><path d="M1214 895L1239 817L1164 791Z" fill="#f5f9f9" stroke="#f5f9f9"></path><path d="M867 141L850 67L771 128Z" fill="#f5f9f9" stroke="#f5f9f9"></path><path d="M771 128L675 77L645 159Z" fill="#fafcfc" stroke="#fafcfc"></path><path d="M920 60L966 173L1013 171Z" fill="#eaf2f1" stroke="#eaf2f1"></path><path d="M1066 51L920 60L1013 171Z" fill="#fdfefd" stroke="#fdfefd"></path><path d="M1005 955L1016 851L955 878Z" fill="#f1f7f6" stroke="#f1f7f6"></path><path d="M1065 880L1112 913L1164 791Z" fill="#eff5f4" stroke="#eff5f4"></path><path d="M854 1005L883 845L817 884Z" fill="#fdfefd" stroke="#fdfefd"></path><path d="M946 1014L1005 955L955 878Z" fill="#f3f8f7" stroke="#f3f8f7"></path><path d="M475 660L609 654L577 536Z" fill="#e8f1f0" stroke="#e8f1f0"></path><path d="M1390 355L1349 335L1319 422Z" fill="#f5f9f9" stroke="#f5f9f9"></path><path d="M1319 422L1349 335L1218 323Z" fill="#f1f7f6" stroke="#f1f7f6"></path><path d="M1249 147L1170 117L1170 200Z" fill="#eff5f4" stroke="#eff5f4"></path><path d="M1170 200L1170 117L1013 171Z" fill="#fdfefd" stroke="#fdfefd"></path><path d="M491 513L475 660L577 536Z" fill="#f3f8f7" stroke="#f3f8f7"></path><path d="M397 606L475 660L491 513Z" fill="#f3f8f7" stroke="#f3f8f7"></path><path d="M506 239L466 379L572 354Z" fill="#eaf2f1" stroke="#eaf2f1"></path><path d="M496 456L409 518L491 513Z" fill="#ecf4f3" stroke="#ecf4f3"></path><path d="M578 843L706 935L634 795Z" fill="#ecf4f3" stroke="#ecf4f3"></path><path d="M634 795L706 935L730 785Z" fill="#fdfefd" stroke="#fdfefd"></path><path d="M788 877L793 1006L817 884Z" fill="#f1f7f6" stroke="#f1f7f6"></path><path d="M512 715L578 843L602 725Z" fill="#ecf4f3" stroke="#ecf4f3"></path><path d="M553 883L578 843L487 813Z" fill="#eaf2f1" stroke="#eaf2f1"></path><path d="M1170 117L1066 51L1013 171Z" fill="#f8fbfa" stroke="#f8fbfa"></path><path d="M1349 335L1318 240L1218 323Z" fill="#f1f7f6" stroke="#f1f7f6"></path><path d="M1112 913L1214 895L1164 791Z" fill="#f5f9f9" stroke="#f5f9f9"></path><path d="M1406 749L1414 671L1301 731Z" fill="#f3f8f7" stroke="#f3f8f7"></path><path d="M1181 973L1214 895L1112 913Z" fill="#eaf2f1" stroke="#eaf2f1"></path><path d="M1318 240L1249 147L1170 200Z" fill="#fafcfc" stroke="#fafcfc"></path><path d="M1170 117L1156 0L1066 51Z" fill="#fafcfc" stroke="#fafcfc"></path><path d="M511 147L506 239L574 230Z" fill="#f8fbfa" stroke="#f8fbfa"></path><path d="M574 230L506 239L572 354Z" fill="#f5f9f9" stroke="#f5f9f9"></path><path d="M1451 416L1390 355L1319 422Z" fill="#ecf4f3" stroke="#ecf4f3"></path><path d="M1349 335L1401 304L1318 240Z" fill="#f3f8f7" stroke="#f3f8f7"></path><path d="M741 0L675 77L771 128Z" fill="#f1f7f6" stroke="#f1f7f6"></path><path d="M645 159L511 147L607 221Z" fill="#e8f1f0" stroke="#e8f1f0"></path><path d="M741 0L771 128L850 67Z" fill="#ffffff" stroke="#ffffff"></path><path d="M793 1006L854 1005L817 884Z" fill="#fafcfc" stroke="#fafcfc"></path><path d="M1021 1080L1181 973L1112 913Z" fill="#eff5f4" stroke="#eff5f4"></path><path d="M1414 671L1426 518L1348 616Z" fill="#fafcfc" stroke="#fafcfc"></path><path d="M1348 616L1426 518L1303 576Z" fill="#eaf2f1" stroke="#eaf2f1"></path><path d="M1414 671L1348 616L1301 731Z" fill="#f1f7f6" stroke="#f1f7f6"></path><path d="M854 1005L946 1014L955 878Z" fill="#fafcfc" stroke="#fafcfc"></path><path d="M1005 0L919 0L920 60Z" fill="#ffffff" stroke="#ffffff"></path><path d="M920 60L861 0L850 67Z" fill="#fdfefd" stroke="#fdfefd"></path><path d="M1319 101L1288 157L1460 199Z" fill="#fdfefd" stroke="#fdfefd"></path><path d="M1318 240L1288 157L1249 147Z" fill="#fafcfc" stroke="#fafcfc"></path><path d="M1249 147L1226 55L1170 117Z" fill="#f3f8f7" stroke="#f3f8f7"></path><path d="M919 0L861 0L920 60Z" fill="#eff5f4" stroke="#eff5f4"></path><path d="M340 479L409 518L466 379Z" fill="#eff5f4" stroke="#eff5f4"></path><path d="M466 379L409 518L496 456Z" fill="#ecf4f3" stroke="#ecf4f3"></path><path d="M706 935L793 1006L788 877Z" fill="#ecf4f3" stroke="#ecf4f3"></path><path d="M854 1005L926 1080L946 1014Z" fill="#fdfefd" stroke="#fdfefd"></path><path d="M648 991L793 1006L706 935Z" fill="#f3f8f7" stroke="#f3f8f7"></path><path d="M1066 51L1005 0L920 60Z" fill="#e8f1f0" stroke="#e8f1f0"></path><path d="M1156 0L1005 0L1066 51Z" fill="#eaf2f1" stroke="#eaf2f1"></path><path d="M1346 832L1301 731L1239 817Z" fill="#eff5f4" stroke="#eff5f4"></path><path d="M1508 320L1401 304L1390 355Z" fill="#fafcfc" stroke="#fafcfc"></path><path d="M1390 355L1401 304L1349 335Z" fill="#ffffff" stroke="#ffffff"></path><path d="M487 813L578 843L512 715Z" fill="#f5f9f9" stroke="#f5f9f9"></path><path d="M578 843L553 883L706 935Z" fill="#fafcfc" stroke="#fafcfc"></path><path d="M487 813L512 715L401 750Z" fill="#ecf4f3" stroke="#ecf4f3"></path><path d="M401 750L512 715L475 660Z" fill="#f3f8f7" stroke="#f3f8f7"></path><path d="M409 518L397 606L491 513Z" fill="#ffffff" stroke="#ffffff"></path><path d="M1021 1080L1112 913L1005 955Z" fill="#eff5f4" stroke="#eff5f4"></path><path d="M1338 864L1346 832L1239 817Z" fill="#eaf2f1" stroke="#eaf2f1"></path><path d="M1338 864L1239 817L1214 895Z" fill="#e8f1f0" stroke="#e8f1f0"></path><path d="M861 0L741 0L850 67Z" fill="#e8f1f0" stroke="#e8f1f0"></path><path d="M543 82L511 147L645 159Z" fill="#eaf2f1" stroke="#eaf2f1"></path><path d="M1426 518L1451 416L1319 422Z" fill="#ffffff" stroke="#ffffff"></path><path d="M1499 458L1451 416L1426 518Z" fill="#fafcfc" stroke="#fafcfc"></path><path d="M1346 832L1406 749L1301 731Z" fill="#f5f9f9" stroke="#f5f9f9"></path><path d="M1511 502L1499 458L1426 518Z" fill="#fafcfc" stroke="#fafcfc"></path><path d="M543 82L645 159L675 77Z" fill="#eaf2f1" stroke="#eaf2f1"></path><path d="M506 239L364 353L466 379Z" fill="#f5f9f9" stroke="#f5f9f9"></path><path d="M1319 101L1249 147L1288 157Z" fill="#fafcfc" stroke="#fafcfc"></path><path d="M1319 101L1226 55L1249 147Z" fill="#e8f1f0" stroke="#e8f1f0"></path><path d="M1299 970L1338 864L1214 895Z" fill="#f3f8f7" stroke="#f3f8f7"></path><path d="M1346 832L1439 803L1406 749Z" fill="#fafcfc" stroke="#fafcfc"></path><path d="M551 1001L648 991L553 883Z" fill="#ecf4f3" stroke="#ecf4f3"></path><path d="M553 883L648 991L706 935Z" fill="#f8fbfa" stroke="#f8fbfa"></path><path d="M1226 55L1156 0L1170 117Z" fill="#fafcfc" stroke="#fafcfc"></path><path d="M627 0L543 82L675 77Z" fill="#f1f7f6" stroke="#f1f7f6"></path><path d="M1460 199L1318 240L1401 304Z" fill="#ecf4f3" stroke="#ecf4f3"></path><path d="M1460 199L1288 157L1318 240Z" fill="#f8fbfa" stroke="#f8fbfa"></path><path d="M1226 55L1240 0L1156 0Z" fill="#ffffff" stroke="#ffffff"></path><path d="M826 1080L926 1080L854 1005Z" fill="#f1f7f6" stroke="#f1f7f6"></path><path d="M946 1014L1021 1080L1005 955Z" fill="#e8f1f0" stroke="#e8f1f0"></path><path d="M826 1080L854 1005L793 1006Z" fill="#fdfefd" stroke="#fdfefd"></path><path d="M397 606L401 750L475 660Z" fill="#ecf4f3" stroke="#ecf4f3"></path><path d="M485 1002L551 1001L553 883Z" fill="#ffffff" stroke="#ffffff"></path><path d="M407 158L506 239L511 147Z" fill="#e8f1f0" stroke="#e8f1f0"></path><path d="M347 249L364 353L506 239Z" fill="#f5f9f9" stroke="#f5f9f9"></path><path d="M409 518L309 517L397 606Z" fill="#f8fbfa" stroke="#f8fbfa"></path><path d="M313 708L372 775L401 750Z" fill="#f8fbfa" stroke="#f8fbfa"></path><path d="M778 1080L826 1080L793 1006Z" fill="#f1f7f6" stroke="#f1f7f6"></path><path d="M321 430L340 479L466 379Z" fill="#f1f7f6" stroke="#f1f7f6"></path><path d="M1511 502L1426 518L1520 651Z" fill="#eaf2f1" stroke="#eaf2f1"></path><path d="M1451 416L1508 320L1390 355Z" fill="#eaf2f1" stroke="#eaf2f1"></path><path d="M926 1080L1021 1080L946 1014Z" fill="#eaf2f1" stroke="#eaf2f1"></path><path d="M741 0L627 0L675 77Z" fill="#fdfefd" stroke="#fdfefd"></path><path d="M689 1080L778 1080L793 1006Z" fill="#f5f9f9" stroke="#f5f9f9"></path><path d="M1520 651L1426 518L1414 671Z" fill="#eaf2f1" stroke="#eaf2f1"></path><path d="M1175 1080L1249 1004L1181 973Z" fill="#f5f9f9" stroke="#f5f9f9"></path><path d="M1181 973L1249 1004L1214 895Z" fill="#f8fbfa" stroke="#f8fbfa"></path><path d="M1428 891L1346 832L1338 864Z" fill="#ffffff" stroke="#ffffff"></path><path d="M1428 891L1439 803L1346 832Z" fill="#fafcfc" stroke="#fafcfc"></path><path d="M1527 702L1520 651L1414 671Z" fill="#ffffff" stroke="#ffffff"></path><path d="M1249 1004L1299 970L1214 895Z" fill="#ecf4f3" stroke="#ecf4f3"></path><path d="M1319 101L1240 0L1226 55Z" fill="#eaf2f1" stroke="#eaf2f1"></path><path d="M364 353L321 430L466 379Z" fill="#fdfefd" stroke="#fdfefd"></path><path d="M321 665L401 750L397 606Z" fill="#f1f7f6" stroke="#f1f7f6"></path><path d="M309 517L409 518L340 479Z" fill="#eaf2f1" stroke="#eaf2f1"></path><path d="M401 750L372 775L487 813Z" fill="#ffffff" stroke="#ffffff"></path><path d="M321 430L309 517L340 479Z" fill="#f3f8f7" stroke="#f3f8f7"></path><path d="M443 935L553 883L487 813Z" fill="#f1f7f6" stroke="#f1f7f6"></path><path d="M648 991L689 1080L793 1006Z" fill="#fdfefd" stroke="#fdfefd"></path><path d="M1527 702L1414 671L1406 749Z" fill="#e8f1f0" stroke="#e8f1f0"></path><path d="M1523 264L1508 320L1587 303Z" fill="#fafcfc" stroke="#fafcfc"></path><path d="M1587 303L1508 320L1643 346Z" fill="#f5f9f9" stroke="#f5f9f9"></path><path d="M1499 458L1508 320L1451 416Z" fill="#fafcfc" stroke="#fafcfc"></path><path d="M1319 101L1353 0L1240 0Z" fill="#f1f7f6" stroke="#f1f7f6"></path><path d="M562 1080L689 1080L648 991Z" fill="#f3f8f7" stroke="#f3f8f7"></path><path d="M309 517L321 665L397 606Z" fill="#e8f1f0" stroke="#e8f1f0"></path><path d="M469 51L511 147L543 82Z" fill="#eaf2f1" stroke="#eaf2f1"></path><path d="M469 51L407 158L511 147Z" fill="#eff5f4" stroke="#eff5f4"></path><path d="M364 353L280 359L321 430Z" fill="#f8fbfa" stroke="#f8fbfa"></path><path d="M1523 264L1460 199L1401 304Z" fill="#e8f1f0" stroke="#e8f1f0"></path><path d="M1021 1080L1175 1080L1181 973Z" fill="#ffffff" stroke="#ffffff"></path><path d="M1249 1004L1329 1080L1299 970Z" fill="#f8fbfa" stroke="#f8fbfa"></path><path d="M627 0L551 0L543 82Z" fill="#e8f1f0" stroke="#e8f1f0"></path><path d="M407 158L347 249L506 239Z" fill="#ecf4f3" stroke="#ecf4f3"></path><path d="M1299 970L1428 891L1338 864Z" fill="#ffffff" stroke="#ffffff"></path><path d="M1439 803L1527 702L1406 749Z" fill="#e8f1f0" stroke="#e8f1f0"></path><path d="M1446 1016L1428 891L1299 970Z" fill="#eff5f4" stroke="#eff5f4"></path><path d="M1503 850L1527 702L1439 803Z" fill="#ffffff" stroke="#ffffff"></path><path d="M1520 651L1582 526L1511 502Z" fill="#f1f7f6" stroke="#f1f7f6"></path><path d="M307 192L321 288L347 249Z" fill="#ffffff" stroke="#ffffff"></path><path d="M347 249L321 288L364 353Z" fill="#f8fbfa" stroke="#f8fbfa"></path><path d="M321 430L230 433L309 517Z" fill="#ffffff" stroke="#ffffff"></path><path d="M321 665L313 708L401 750Z" fill="#f5f9f9" stroke="#f5f9f9"></path><path d="M368 888L443 935L487 813Z" fill="#f1f7f6" stroke="#f1f7f6"></path><path d="M221 713L313 708L321 665Z" fill="#fdfefd" stroke="#fdfefd"></path><path d="M368 888L487 813L372 775Z" fill="#eff5f4" stroke="#eff5f4"></path><path d="M551 0L469 51L543 82Z" fill="#f3f8f7" stroke="#f3f8f7"></path><path d="M407 158L307 192L347 249Z" fill="#eaf2f1" stroke="#eaf2f1"></path><path d="M1582 526L1499 458L1511 502Z" fill="#e8f1f0" stroke="#e8f1f0"></path><path d="M1508 320L1523 264L1401 304Z" fill="#fafcfc" stroke="#fafcfc"></path><path d="M1175 1080L1229 1080L1249 1004Z" fill="#f8fbfa" stroke="#f8fbfa"></path><path d="M321 288L280 359L364 353Z" fill="#e8f1f0" stroke="#e8f1f0"></path><path d="M177 635L221 713L321 665Z" fill="#e8f1f0" stroke="#e8f1f0"></path><path d="M443 935L485 1002L553 883Z" fill="#f8fbfa" stroke="#f8fbfa"></path><path d="M551 1001L562 1080L648 991Z" fill="#eff5f4" stroke="#eff5f4"></path><path d="M1642 595L1582 526L1520 651Z" fill="#f1f7f6" stroke="#f1f7f6"></path><path d="M1496 83L1425 72L1460 199Z" fill="#eaf2f1" stroke="#eaf2f1"></path><path d="M1460 199L1425 72L1319 101Z" fill="#f8fbfa" stroke="#f8fbfa"></path><path d="M1425 72L1353 0L1319 101Z" fill="#eaf2f1" stroke="#eaf2f1"></path><path d="M314 812L368 888L372 775Z" fill="#f1f7f6" stroke="#f1f7f6"></path><path d="M443 935L404 1007L485 1002Z" fill="#f1f7f6" stroke="#f1f7f6"></path><path d="M1529 948L1490 864L1428 891Z" fill="#ffffff" stroke="#ffffff"></path><path d="M1428 891L1490 864L1439 803Z" fill="#f3f8f7" stroke="#f3f8f7"></path><path d="M1642 595L1625 486L1582 526Z" fill="#eff5f4" stroke="#eff5f4"></path><path d="M476 1080L551 1001L485 1002Z" fill="#fdfefd" stroke="#fdfefd"></path><path d="M476 1080L562 1080L551 1001Z" fill="#f5f9f9" stroke="#f5f9f9"></path><path d="M1490 864L1503 850L1439 803Z" fill="#f1f7f6" stroke="#f1f7f6"></path><path d="M551 0L471 0L469 51Z" fill="#fafcfc" stroke="#fafcfc"></path><path d="M339 100L307 192L407 158Z" fill="#eaf2f1" stroke="#eaf2f1"></path><path d="M321 288L228 266L280 359Z" fill="#e8f1f0" stroke="#e8f1f0"></path><path d="M313 708L314 812L372 775Z" fill="#fdfefd" stroke="#fdfefd"></path><path d="M221 713L314 812L313 708Z" fill="#f3f8f7" stroke="#f3f8f7"></path><path d="M1523 264L1515 172L1460 199Z" fill="#e8f1f0" stroke="#e8f1f0"></path><path d="M1580 211L1515 172L1523 264Z" fill="#f8fbfa" stroke="#f8fbfa"></path><path d="M339 100L407 158L469 51Z" fill="#eaf2f1" stroke="#eaf2f1"></path><path d="M155 361L230 433L280 359Z" fill="#fdfefd" stroke="#fdfefd"></path><path d="M280 359L230 433L321 430Z" fill="#fafcfc" stroke="#fafcfc"></path><path d="M1643 346L1508 320L1499 458Z" fill="#fdfefd" stroke="#fdfefd"></path><path d="M1229 1080L1329 1080L1249 1004Z" fill="#fafcfc" stroke="#fafcfc"></path><path d="M1490 864L1574 927L1503 850Z" fill="#f3f8f7" stroke="#f3f8f7"></path><path d="M1595 737L1520 651L1527 702Z" fill="#eff5f4" stroke="#eff5f4"></path><path d="M1582 526L1625 486L1499 458Z" fill="#eff5f4" stroke="#eff5f4"></path><path d="M362 0L339 100L469 51Z" fill="#f3f8f7" stroke="#f3f8f7"></path><path d="M1625 804L1595 737L1503 850Z" fill="#f5f9f9" stroke="#f5f9f9"></path><path d="M1503 850L1595 737L1527 702Z" fill="#f3f8f7" stroke="#f3f8f7"></path><path d="M1587 52L1496 83L1515 172Z" fill="#ffffff" stroke="#ffffff"></path><path d="M1515 172L1496 83L1460 199Z" fill="#f5f9f9" stroke="#f5f9f9"></path><path d="M1425 72L1450 0L1353 0Z" fill="#ecf4f3" stroke="#ecf4f3"></path><path d="M368 888L404 1007L443 935Z" fill="#f8fbfa" stroke="#f8fbfa"></path><path d="M299 993L404 1007L368 888Z" fill="#eff5f4" stroke="#eff5f4"></path><path d="M1711 240L1580 211L1587 303Z" fill="#ffffff" stroke="#ffffff"></path><path d="M1587 303L1580 211L1523 264Z" fill="#e8f1f0" stroke="#e8f1f0"></path><path d="M404 1007L476 1080L485 1002Z" fill="#ecf4f3" stroke="#ecf4f3"></path><path d="M1595 737L1642 595L1520 651Z" fill="#eaf2f1" stroke="#eaf2f1"></path><path d="M177 635L321 665L309 517Z" fill="#eff5f4" stroke="#eff5f4"></path><path d="M314 812L292 909L368 888Z" fill="#eff5f4" stroke="#eff5f4"></path><path d="M1387 1080L1446 1016L1299 970Z" fill="#f1f7f6" stroke="#f1f7f6"></path><path d="M204 207L228 266L307 192Z" fill="#eff5f4" stroke="#eff5f4"></path><path d="M307 192L228 266L321 288Z" fill="#e8f1f0" stroke="#e8f1f0"></path><path d="M230 433L186 522L309 517Z" fill="#f5f9f9" stroke="#f5f9f9"></path><path d="M1503 0L1450 0L1496 83Z" fill="#f5f9f9" stroke="#f5f9f9"></path><path d="M1496 83L1450 0L1425 72Z" fill="#eaf2f1" stroke="#eaf2f1"></path><path d="M101 471L186 522L230 433Z" fill="#fafcfc" stroke="#fafcfc"></path><path d="M1329 1080L1387 1080L1299 970Z" fill="#f1f7f6" stroke="#f1f7f6"></path><path d="M1625 486L1643 346L1499 458Z" fill="#eaf2f1" stroke="#eaf2f1"></path><path d="M1731 434L1643 346L1625 486Z" fill="#f1f7f6" stroke="#f1f7f6"></path><path d="M225 848L292 909L314 812Z" fill="#ecf4f3" stroke="#ecf4f3"></path><path d="M404 1007L396 1080L476 1080Z" fill="#eff5f4" stroke="#eff5f4"></path><path d="M1574 927L1529 948L1619 1027Z" fill="#f8fbfa" stroke="#f8fbfa"></path><path d="M1446 1016L1529 948L1428 891Z" fill="#eff5f4" stroke="#eff5f4"></path><path d="M1595 737L1671 750L1642 595Z" fill="#f8fbfa" stroke="#f8fbfa"></path><path d="M186 522L177 635L309 517Z" fill="#f8fbfa" stroke="#f8fbfa"></path><path d="M221 713L225 848L314 812Z" fill="#eff5f4" stroke="#eff5f4"></path><path d="M471 0L362 0L469 51Z" fill="#fafcfc" stroke="#fafcfc"></path><path d="M339 100L293 69L307 192Z" fill="#fdfefd" stroke="#fdfefd"></path><path d="M1574 927L1625 804L1503 850Z" fill="#f1f7f6" stroke="#f1f7f6"></path><path d="M362 0L293 69L339 100Z" fill="#e8f1f0" stroke="#e8f1f0"></path><path d="M1587 52L1503 0L1496 83Z" fill="#f8fbfa" stroke="#f8fbfa"></path><path d="M1587 52L1515 172L1580 211Z" fill="#fdfefd" stroke="#fdfefd"></path><path d="M198 862L225 848L221 713Z" fill="#eaf2f1" stroke="#eaf2f1"></path><path d="M313 1080L396 1080L404 1007Z" fill="#fdfefd" stroke="#fdfefd"></path><path d="M299 993L368 888L292 909Z" fill="#ecf4f3" stroke="#ecf4f3"></path><path d="M293 69L204 207L307 192Z" fill="#ecf4f3" stroke="#ecf4f3"></path><path d="M228 266L155 361L280 359Z" fill="#f3f8f7" stroke="#f3f8f7"></path><path d="M186 522L125 547L177 635Z" fill="#f3f8f7" stroke="#f3f8f7"></path><path d="M1560 1080L1529 948L1446 1016Z" fill="#fafcfc" stroke="#fafcfc"></path><path d="M1529 948L1574 927L1490 864Z" fill="#fdfefd" stroke="#fdfefd"></path><path d="M119 241L155 361L228 266Z" fill="#f8fbfa" stroke="#f8fbfa"></path><path d="M1723 635L1701 519L1642 595Z" fill="#f1f7f6" stroke="#f1f7f6"></path><path d="M1642 595L1701 519L1625 486Z" fill="#eaf2f1" stroke="#eaf2f1"></path><path d="M213 952L299 993L292 909Z" fill="#fdfefd" stroke="#fdfefd"></path><path d="M1703 828L1671 750L1625 804Z" fill="#f5f9f9" stroke="#f5f9f9"></path><path d="M1625 804L1671 750L1595 737Z" fill="#f8fbfa" stroke="#f8fbfa"></path><path d="M101 471L125 547L186 522Z" fill="#f5f9f9" stroke="#f5f9f9"></path><path d="M82 821L198 862L221 713Z" fill="#e8f1f0" stroke="#e8f1f0"></path><path d="M1731 434L1699 319L1643 346Z" fill="#e8f1f0" stroke="#e8f1f0"></path><path d="M1643 346L1699 319L1587 303Z" fill="#eff5f4" stroke="#eff5f4"></path><path d="M115 657L221 713L177 635Z" fill="#fafcfc" stroke="#fafcfc"></path><path d="M225 848L213 952L292 909Z" fill="#eff5f4" stroke="#eff5f4"></path><path d="M1692 154L1587 52L1580 211Z" fill="#ffffff" stroke="#ffffff"></path><path d="M1671 750L1723 635L1642 595Z" fill="#fafcfc" stroke="#fafcfc"></path><path d="M1701 519L1731 434L1625 486Z" fill="#eaf2f1" stroke="#eaf2f1"></path><path d="M1774 468L1731 434L1701 519Z" fill="#f3f8f7" stroke="#f3f8f7"></path><path d="M125 547L115 657L177 635Z" fill="#ecf4f3" stroke="#ecf4f3"></path><path d="M175 48L128 145L204 207Z" fill="#f1f7f6" stroke="#f1f7f6"></path><path d="M362 0L277 0L293 69Z" fill="#f8fbfa" stroke="#f8fbfa"></path><path d="M70 368L101 471L155 361Z" fill="#f1f7f6" stroke="#f1f7f6"></path><path d="M155 361L101 471L230 433Z" fill="#f3f8f7" stroke="#f3f8f7"></path><path d="M125 547L0 606L115 657Z" fill="#ffffff" stroke="#ffffff"></path><path d="M119 241L228 266L204 207Z" fill="#e8f1f0" stroke="#e8f1f0"></path><path d="M299 993L313 1080L404 1007Z" fill="#e8f1f0" stroke="#e8f1f0"></path><path d="M231 1080L313 1080L299 993Z" fill="#e8f1f0" stroke="#e8f1f0"></path><path d="M114 931L213 952L198 862Z" fill="#eff5f4" stroke="#eff5f4"></path><path d="M198 862L213 952L225 848Z" fill="#fdfefd" stroke="#fdfefd"></path><path d="M1786 236L1711 240L1699 319Z" fill="#fafcfc" stroke="#fafcfc"></path><path d="M1699 319L1711 240L1587 303Z" fill="#eaf2f1" stroke="#eaf2f1"></path><path d="M128 145L119 241L204 207Z" fill="#fafcfc" stroke="#fafcfc"></path><path d="M1671 750L1763 663L1723 635Z" fill="#e8f1f0" stroke="#e8f1f0"></path><path d="M1715 907L1703 828L1625 804Z" fill="#f3f8f7" stroke="#f3f8f7"></path><path d="M1715 907L1625 804L1574 927Z" fill="#eaf2f1" stroke="#eaf2f1"></path><path d="M0 678L96 702L115 657Z" fill="#f8fbfa" stroke="#f8fbfa"></path><path d="M115 657L96 702L221 713Z" fill="#e8f1f0" stroke="#e8f1f0"></path><path d="M1711 240L1692 154L1580 211Z" fill="#e8f1f0" stroke="#e8f1f0"></path><path d="M1836 537L1774 468L1701 519Z" fill="#ffffff" stroke="#ffffff"></path><path d="M1828 318L1786 236L1699 319Z" fill="#fafcfc" stroke="#fafcfc"></path><path d="M1764 118L1725 121L1692 154Z" fill="#eaf2f1" stroke="#eaf2f1"></path><path d="M1836 537L1701 519L1723 635Z" fill="#f1f7f6" stroke="#f1f7f6"></path><path d="M1788 687L1763 663L1671 750Z" fill="#ffffff" stroke="#ffffff"></path><path d="M1387 1080L1560 1080L1446 1016Z" fill="#eff5f4" stroke="#eff5f4"></path><path d="M119 241L70 368L155 361Z" fill="#ecf4f3" stroke="#ecf4f3"></path><path d="M101 471L0 509L125 547Z" fill="#f5f9f9" stroke="#f5f9f9"></path><path d="M1725 121L1619 0L1587 52Z" fill="#fafcfc" stroke="#fafcfc"></path><path d="M1587 52L1619 0L1503 0Z" fill="#ffffff" stroke="#ffffff"></path><path d="M175 48L204 207L293 69Z" fill="#f1f7f6" stroke="#f1f7f6"></path><path d="M119 241L0 331L70 368Z" fill="#f8fbfa" stroke="#f8fbfa"></path><path d="M1560 1080L1619 1027L1529 948Z" fill="#f8fbfa" stroke="#f8fbfa"></path><path d="M277 0L175 48L293 69Z" fill="#fdfefd" stroke="#fdfefd"></path><path d="M1560 1080L1593 1080L1619 1027Z" fill="#ffffff" stroke="#ffffff"></path><path d="M1807 846L1788 687L1703 828Z" fill="#f8fbfa" stroke="#f8fbfa"></path><path d="M1703 828L1788 687L1671 750Z" fill="#ffffff" stroke="#ffffff"></path><path d="M1763 663L1836 537L1723 635Z" fill="#f1f7f6" stroke="#f1f7f6"></path><path d="M1715 907L1574 927L1619 1027Z" fill="#f5f9f9" stroke="#f5f9f9"></path><path d="M1715 1001L1715 907L1619 1027Z" fill="#f1f7f6" stroke="#f1f7f6"></path><path d="M1786 236L1692 154L1711 240Z" fill="#f1f7f6" stroke="#f1f7f6"></path><path d="M1692 154L1725 121L1587 52Z" fill="#fafcfc" stroke="#fafcfc"></path><path d="M96 702L82 821L221 713Z" fill="#ffffff" stroke="#ffffff"></path><path d="M213 952L231 1080L299 993Z" fill="#ffffff" stroke="#ffffff"></path><path d="M0 796L82 821L96 702Z" fill="#eff5f4" stroke="#eff5f4"></path><path d="M104 1080L231 1080L213 952Z" fill="#f5f9f9" stroke="#f5f9f9"></path><path d="M175 48L117 100L128 145Z" fill="#eff5f4" stroke="#eff5f4"></path><path d="M0 252L0 331L119 241Z" fill="#f3f8f7" stroke="#f3f8f7"></path><path d="M1828 318L1699 319L1731 434Z" fill="#f1f7f6" stroke="#f1f7f6"></path><path d="M1828 318L1731 434L1774 468Z" fill="#eaf2f1" stroke="#eaf2f1"></path><path d="M82 821L114 931L198 862Z" fill="#f3f8f7" stroke="#f3f8f7"></path><path d="M1900 638L1836 537L1763 663Z" fill="#ecf4f3" stroke="#ecf4f3"></path><path d="M277 0L156 0L175 48Z" fill="#f1f7f6" stroke="#f1f7f6"></path><path d="M175 48L130 0L117 100Z" fill="#f5f9f9" stroke="#f5f9f9"></path><path d="M0 975L114 951L114 931Z" fill="#fdfefd" stroke="#fdfefd"></path><path d="M114 931L114 951L213 952Z" fill="#f8fbfa" stroke="#f8fbfa"></path><path d="M0 487L101 471L70 368Z" fill="#fafcfc" stroke="#fafcfc"></path><path d="M0 487L0 509L101 471Z" fill="#ecf4f3" stroke="#ecf4f3"></path><path d="M82 821L0 891L114 931Z" fill="#f1f7f6" stroke="#f1f7f6"></path><path d="M0 331L0 487L70 368Z" fill="#f3f8f7" stroke="#f3f8f7"></path><path d="M0 509L0 606L125 547Z" fill="#f3f8f7" stroke="#f3f8f7"></path><path d="M1900 397L1828 318L1774 468Z" fill="#ffffff" stroke="#ffffff"></path><path d="M1800 142L1692 154L1786 236Z" fill="#eff5f4" stroke="#eff5f4"></path><path d="M1800 142L1764 118L1692 154Z" fill="#f5f9f9" stroke="#f5f9f9"></path><path d="M1725 121L1746 0L1619 0Z" fill="#fdfefd" stroke="#fdfefd"></path><path d="M0 606L0 678L115 657Z" fill="#ecf4f3" stroke="#ecf4f3"></path><path d="M1676 1080L1715 1001L1619 1027Z" fill="#f1f7f6" stroke="#f1f7f6"></path><path d="M1715 907L1771 899L1703 828Z" fill="#fdfefd" stroke="#fdfefd"></path><path d="M1900 638L1900 536L1836 537Z" fill="#e8f1f0" stroke="#e8f1f0"></path><path d="M0 252L119 241L0 209Z" fill="#eaf2f1" stroke="#eaf2f1"></path><path d="M119 241L128 145L0 209Z" fill="#ffffff" stroke="#ffffff"></path><path d="M1715 1001L1771 899L1715 907Z" fill="#fafcfc" stroke="#fafcfc"></path><path d="M156 0L130 0L175 48Z" fill="#e8f1f0" stroke="#e8f1f0"></path><path d="M1593 1080L1676 1080L1619 1027Z" fill="#f3f8f7" stroke="#f3f8f7"></path><path d="M1900 739L1807 846L1900 850Z" fill="#f5f9f9" stroke="#f5f9f9"></path><path d="M1807 846L1900 920L1900 850Z" fill="#f3f8f7" stroke="#f3f8f7"></path><path d="M1771 899L1807 846L1703 828Z" fill="#fafcfc" stroke="#fafcfc"></path><path d="M1900 190L1800 142L1786 236Z" fill="#ffffff" stroke="#ffffff"></path><path d="M1764 118L1746 0L1725 121Z" fill="#f3f8f7" stroke="#f3f8f7"></path><path d="M0 209L128 145L0 77Z" fill="#eaf2f1" stroke="#eaf2f1"></path><path d="M0 678L0 796L96 702Z" fill="#f1f7f6" stroke="#f1f7f6"></path><path d="M0 77L128 145L117 100Z" fill="#f8fbfa" stroke="#f8fbfa"></path><path d="M1791 0L1746 0L1764 118Z" fill="#ffffff" stroke="#ffffff"></path><path d="M1900 638L1763 663L1788 687Z" fill="#eaf2f1" stroke="#eaf2f1"></path><path d="M1836 537L1900 431L1774 468Z" fill="#ecf4f3" stroke="#ecf4f3"></path><path d="M1828 318L1900 231L1786 236Z" fill="#ffffff" stroke="#ffffff"></path><path d="M1900 536L1900 431L1836 537Z" fill="#eff5f4" stroke="#eff5f4"></path><path d="M1900 431L1900 397L1774 468Z" fill="#fafcfc" stroke="#fafcfc"></path><path d="M1800 142L1791 0L1764 118Z" fill="#ffffff" stroke="#ffffff"></path><path d="M1900 739L1900 638L1788 687Z" fill="#e8f1f0" stroke="#e8f1f0"></path><path d="M0 796L0 891L82 821Z" fill="#f3f8f7" stroke="#f3f8f7"></path><path d="M114 951L104 1080L213 952Z" fill="#f5f9f9" stroke="#f5f9f9"></path><path d="M0 975L104 1080L114 951Z" fill="#f8fbfa" stroke="#f8fbfa"></path><path d="M1791 1017L1771 899L1715 1001Z" fill="#f5f9f9" stroke="#f5f9f9"></path><path d="M1807 846L1900 739L1788 687Z" fill="#f1f7f6" stroke="#f1f7f6"></path><path d="M1900 93L1791 0L1800 142Z" fill="#f8fbfa" stroke="#f8fbfa"></path><path d="M1798 1080L1791 1017L1715 1001Z" fill="#ecf4f3" stroke="#ecf4f3"></path><path d="M130 0L0 77L117 100Z" fill="#fafcfc" stroke="#fafcfc"></path><path d="M1900 397L1900 231L1828 318Z" fill="#fafcfc" stroke="#fafcfc"></path><path d="M1900 231L1900 190L1786 236Z" fill="#fafcfc" stroke="#fafcfc"></path><path d="M0 891L0 975L114 931Z" fill="#f3f8f7" stroke="#f3f8f7"></path><path d="M1900 920L1807 846L1771 899Z" fill="#f8fbfa" stroke="#f8fbfa"></path><path d="M1676 1080L1798 1080L1715 1001Z" fill="#ecf4f3" stroke="#ecf4f3"></path><path d="M1791 1017L1900 920L1771 899Z" fill="#ffffff" stroke="#ffffff"></path><path d="M130 0L0 0L0 77Z" fill="#ecf4f3" stroke="#ecf4f3"></path><path d="M1900 1004L1900 920L1791 1017Z" fill="#f1f7f6" stroke="#f1f7f6"></path><path d="M1900 190L1900 93L1800 142Z" fill="#fafcfc" stroke="#fafcfc"></path><path d="M0 975L0 1080L104 1080Z" fill="#f3f8f7" stroke="#f3f8f7"></path><path d="M1900 1080L1900 1004L1791 1017Z" fill="#f5f9f9" stroke="#f5f9f9"></path><path d="M1900 93L1900 0L1791 0Z" fill="#ecf4f3" stroke="#ecf4f3"></path><path d="M1798 1080L1900 1080L1791 1017Z" fill="#e8f1f0" stroke="#e8f1f0"></path></g></svg>