<?xml version="1.0" encoding="UTF-8" standalone="no"?>
<!DOCTYPE svg PUBLIC "-//W3C//DTD SVG 1.1//EN" "http://www.w3.org/Graphics/SVG/1.1/DTD/svg11.dtd">
<svg xmlns="http://www.w3.org/2000/svg" version="1.1" viewBox="0 0 700 1024">
<path fill="#000000" d="
  M 60.81 0.00
  L 65.81 0.00
  L 144.64 181.37
  A 1.03 1.03 -22.9 0 0 145.97 181.91
  L 288.84 122.50
  A 0.66 0.66 -23.4 0 0 289.19 121.62
  Q 261.60 61.40 233.94 1.06
  Q 233.62 0.38 234.06 0.00
  L 239.06 0.00
  L 293.83 119.66
  A 0.82 0.82 -23.5 0 0 294.90 120.08
  L 437.34 60.86
  A 0.89 0.89 66.6 0 0 437.81 59.67
  Q 424.30 30.23 410.69 0.81
  Q 410.44 0.27 410.81 0.00
  L 415.81 0.00
  L 442.32 57.70
  A 1.00 0.99 66.5 0 0 443.60 58.21
  L 583.56 0.00
  L 596.06 0.00
  Q 596.67 0.66 597.05 1.48
  Q 641.66 98.97 686.27 196.35
  A 0.88 0.77 -23.5 0 1 685.76 197.42
  L 683.04 198.55
  A 1.18 0.96 -23.7 0 1 681.59 198.15
  L 592.16 2.85
  A 0.94 0.93 66.1 0 0 590.95 2.38
  L 445.55 62.82
  A 0.76 0.76 -23.4 0 0 445.15 63.83
  L 534.29 258.30
  A 0.57 0.48 65.3 0 1 534.09 259.03
  L 530.49 260.69
  A 0.71 0.60 65.8 0 1 529.66 260.29
  L 440.64 66.02
  A 1.05 1.05 66.6 0 0 439.28 65.48
  L 297.08 124.53
  A 0.90 0.89 -23.8 0 0 296.61 125.73
  L 385.29 319.30
  A 0.65 0.61 59.0 0 1 385.12 320.07
  Q 383.42 321.39 381.31 321.44
  A 0.76 0.72 76.2 0 1 380.61 320.99
  L 291.82 127.50
  A 0.73 0.73 65.8 0 0 290.88 127.14
  L 147.85 186.52
  A 0.84 0.84 -23.2 0 0 147.40 187.64
  L 233.30 385.22
  A 0.86 0.85 -24.1 0 1 232.87 386.33
  L 229.86 387.70
  A 0.89 0.89 -24.0 0 1 228.68 387.25
  L 142.77 189.48
  A 0.75 0.74 67.3 0 0 141.80 189.08
  Q 71.48 218.15 1.06 247.56
  Q 0.36 247.86 0.00 247.44
  L 0.00 242.69
  L 139.82 184.49
  A 0.70 0.70 -23.5 0 0 140.19 183.56
  Q 100.44 91.97 60.94 1.31
  Q 60.62 0.58 60.81 0.00
  Z"
/>
<path fill="#000000" d="
  M 148.54 105.05
  Q 135.65 77.42 122.83 49.75
  Q 120.53 44.79 120.63 41.76
  Q 120.78 37.18 123.98 33.92
  Q 125.05 32.83 130.51 29.07
  Q 151.15 14.84 177.69 7.94
  Q 185.09 6.01 189.69 9.59
  Q 192.08 11.46 195.54 18.81
  Q 207.80 44.93 220.05 71.31
  A 0.81 0.80 -24.3 0 0 221.11 71.70
  L 225.17 69.94
  A 0.51 0.51 -23.3 0 1 225.84 70.20
  L 227.57 74.28
  A 0.59 0.53 65.8 0 1 227.33 75.03
  L 223.64 76.71
  A 0.97 0.84 -25.0 0 0 223.11 77.89
  Q 227.64 87.46 232.04 96.97
  Q 234.94 103.23 235.10 106.95
  Q 235.49 116.48 226.50 122.75
  Q 208.58 135.25 189.26 141.24
  Q 179.66 144.22 174.51 143.47
  Q 165.88 142.23 161.75 133.25
  Q 156.68 122.24 151.39 111.21
  A 0.78 0.62 -23.1 0 0 150.47 110.96
  L 146.63 112.44
  A 0.66 0.65 -22.3 0 1 145.79 112.09
  L 144.15 108.31
  A 0.63 0.51 -24.6 0 1 144.50 107.60
  L 148.30 105.72
  A 0.51 0.51 -25.5 0 0 148.54 105.05
  Z
  M 173.00 134.84
  L 186.04 128.64
  A 1.80 1.46 62.9 0 1 188.10 129.55
  L 190.69 134.36
  A 0.69 0.56 -22.9 0 0 191.47 134.59
  Q 203.59 130.39 215.26 123.40
  A 1.20 1.06 63.7 0 0 215.64 121.98
  L 213.38 116.48
  A 0.58 0.54 -23.5 0 1 213.69 115.77
  L 227.78 109.43
  A 1.35 0.85 34.8 0 1 228.70 109.47
  Q 229.90 109.93 229.83 108.50
  Q 229.67 105.21 228.29 102.23
  Q 222.59 89.94 216.19 76.36
  A 3.16 3.11 -89.6 0 0 214.79 74.92
  L 200.27 67.66
  A 1.49 1.28 3.9 0 1 199.59 66.99
  L 189.45 45.70
  A 1.49 1.29 -54.5 0 1 189.36 44.76
  L 193.14 27.99
  A 1.54 1.54 -50.5 0 0 193.05 27.04
  Q 190.80 21.81 188.35 16.67
  Q 186.97 13.79 184.29 13.02
  Q 182.57 12.53 179.25 13.33
  Q 151.74 20.02 129.11 37.13
  Q 124.62 40.52 127.25 46.00
  Q 130.88 53.57 132.19 55.89
  A 1.65 1.55 -0.4 0 0 132.88 56.53
  Q 138.96 59.55 144.95 62.73
  Q 145.00 62.76 146.75 63.47
  Q 148.40 64.15 149.07 65.88
  Q 149.64 67.35 149.69 67.46
  Q 154.16 76.68 158.30 86.05
  A 1.55 1.39 42.0 0 1 158.40 86.99
  L 154.60 102.56
  A 3.82 3.32 -53.6 0 0 154.79 104.92
  Q 161.64 120.05 168.30 133.42
  Q 168.54 133.89 168.96 134.36
  Q 169.36 134.79 169.71 135.27
  Q 171.31 137.46 172.35 135.51
  A 1.70 1.15 -80.0 0 1 173.00 134.84
  Z
  M 204.36 63.36
  L 210.01 66.25
  Q 211.90 67.21 211.00 65.28
  L 197.74 36.95
  Q 196.94 35.23 196.56 37.15
  L 195.32 43.54
  A 2.94 1.68 -64.4 0 0 195.44 45.22
  L 203.67 62.64
  A 1.61 1.54 -90.0 0 0 204.36 63.36
  Z
  M 143.59 68.64
  L 138.51 65.64
  Q 138.05 65.37 137.80 65.02
  Q 137.19 64.15 136.64 64.56
  A 0.76 0.59 60.6 0 0 136.51 65.40
  L 150.02 94.52
  Q 150.78 96.18 151.11 94.36
  L 152.40 87.24
  A 1.68 1.44 -56.0 0 0 152.29 86.30
  L 144.66 69.91
  A 3.03 2.08 84.4 0 0 143.59 68.64
  Z"
/>
<path fill="#000000" d="
  M 150.55 53.89
  L 132.73 47.52
  A 0.97 0.97 -56.5 0 1 132.40 45.89
  Q 138.74 40.07 144.92 36.37
  Q 159.11 27.88 174.97 23.14
  Q 180.00 21.64 185.35 21.24
  A 0.91 0.91 -82.0 0 1 186.27 22.46
  L 179.80 40.13
  A 3.39 3.29 -3.0 0 1 178.06 42.01
  L 153.04 53.76
  A 3.30 3.23 -47.3 0 1 150.55 53.89
  Z
  M 143.74 45.67
  L 149.65 47.66
  A 4.28 2.93 34.6 0 0 152.44 47.67
  Q 161.41 43.65 170.42 39.28
  Q 170.45 39.26 172.66 38.44
  Q 174.99 37.58 175.75 35.00
  Q 176.63 32.01 177.94 29.17
  Q 178.37 28.26 177.40 28.53
  Q 159.45 33.48 143.45 44.27
  Q 142.16 45.14 143.74 45.67
  Z"
/>
<path fill="#000000" d="
  M 521.94 133.88
  Q 519.87 134.21 518.09 135.40
  A 0.72 0.64 -41.7 0 1 517.28 135.40
  Q 516.50 134.79 516.07 133.88
  Q 515.82 133.35 515.24 132.21
  Q 514.13 130.03 517.67 129.43
  Q 520.03 129.03 518.98 126.88
  Q 514.12 116.94 509.38 106.14
  Q 507.06 100.82 507.10 97.40
  Q 507.16 92.37 509.99 88.28
  Q 511.87 85.56 516.78 82.04
  Q 534.58 69.28 557.69 62.69
  Q 568.53 59.59 575.47 65.49
  Q 578.47 68.04 582.11 75.51
  Q 586.28 84.07 590.62 93.39
  A 1.14 1.11 64.0 0 0 592.15 93.94
  L 595.30 92.32
  A 0.96 0.88 -25.7 0 1 596.59 92.71
  L 598.21 96.30
  A 0.78 0.76 -25.0 0 1 597.83 97.30
  L 594.48 98.91
  A 1.16 1.06 -25.6 0 0 593.90 100.36
  Q 607.20 128.01 620.12 155.48
  Q 622.21 159.93 622.35 162.42
  Q 622.59 166.62 619.94 169.69
  Q 617.51 172.50 612.51 175.86
  Q 609.51 177.88 604.36 181.00
  Q 585.50 192.43 563.93 197.65
  Q 558.06 199.07 553.86 196.16
  Q 551.44 194.47 548.93 189.35
  Q 535.49 161.95 522.65 134.26
  A 0.68 0.66 72.4 0 0 521.94 133.88
  Z
  M 554.40 76.35
  L 551.94 71.32
  A 1.16 1.15 -22.8 0 0 550.51 70.75
  Q 538.49 75.02 527.20 81.78
  A 1.45 1.41 -28.7 0 0 526.63 83.64
  L 529.05 88.51
  A 0.89 0.87 64.7 0 1 528.64 89.71
  Q 522.12 92.66 515.73 96.02
  Q 514.07 96.89 513.02 95.43
  Q 512.74 95.05 512.71 95.49
  Q 512.59 97.02 512.62 98.54
  Q 512.65 99.98 513.32 101.44
  Q 519.34 114.65 526.26 128.72
  Q 526.94 130.10 528.41 130.84
  L 542.49 137.83
  A 1.53 1.47 1.2 0 1 543.17 138.51
  L 553.36 159.95
  A 1.51 1.30 -54.0 0 1 553.44 160.91
  L 549.62 177.26
  A 1.44 1.40 -51.2 0 0 549.71 178.20
  Q 552.09 183.23 554.50 188.25
  Q 555.89 191.13 558.27 192.06
  Q 559.96 192.71 563.20 191.93
  Q 591.02 185.24 613.75 167.76
  Q 618.07 164.43 615.78 159.24
  Q 613.48 154.01 610.57 149.12
  A 1.84 1.46 82.6 0 0 609.88 148.45
  L 595.94 141.61
  Q 594.42 140.86 593.75 139.44
  L 583.97 118.94
  A 1.56 1.29 -55.9 0 1 583.88 118.01
  L 587.73 101.61
  A 2.30 2.00 42.2 0 0 587.56 100.18
  Q 582.68 89.58 577.82 79.67
  Q 577.79 79.61 576.32 76.26
  Q 574.55 72.23 571.18 68.80
  A 0.57 0.56 -50.1 0 0 570.31 68.88
  Q 569.01 70.79 566.77 71.66
  Q 564.87 72.41 564.78 72.45
  Q 560.47 74.48 555.78 76.83
  A 1.04 1.02 63.7 0 1 554.40 76.35
  Z
  M 591.17 112.86
  Q 590.45 114.08 590.44 115.19
  Q 590.42 116.47 590.00 117.32
  A 1.11 0.83 -49.9 0 0 589.95 118.20
  L 598.70 136.12
  A 1.53 1.47 88.8 0 0 599.38 136.80
  L 605.19 139.67
  Q 606.69 140.42 605.97 138.88
  Q 599.65 125.38 593.22 112.01
  Q 590.90 107.19 591.38 111.95
  A 1.62 1.33 -37.6 0 1 591.17 112.86
  Z
  M 547.31 161.81
  Q 547.95 161.52 547.56 160.69
  Q 543.37 151.54 538.91 142.51
  A 1.64 0.98 11.9 0 0 538.23 141.88
  L 532.06 138.73
  Q 530.65 138.00 531.31 139.40
  L 545.26 168.77
  Q 545.92 170.16 546.12 168.63
  Q 546.53 165.41 547.31 161.81
  Z"
/>
<path fill="#000000" d="
  M 214.75 84.11
  A 0.75 0.74 -60.5 0 1 215.06 85.28
  Q 194.90 110.52 162.30 110.00
  A 0.78 0.77 10.3 0 1 161.58 108.97
  L 167.97 91.21
  A 2.70 2.66 87.7 0 1 169.37 89.67
  L 194.89 77.82
  A 3.25 3.09 -46.4 0 1 197.33 77.70
  L 214.75 84.11
  Z
  M 205.64 87.11
  Q 201.23 84.78 196.73 83.62
  A 1.40 1.36 39.2 0 0 195.79 83.70
  L 173.73 93.89
  A 2.18 1.95 -4.9 0 0 172.64 95.05
  L 169.80 103.14
  A 0.73 0.71 5.5 0 0 170.60 104.08
  Q 191.27 101.43 205.70 87.54
  A 0.27 0.26 37.7 0 0 205.64 87.11
  Z"
/>
<path fill="#000000" d="
  M 535.20 111.75
  Q 551.58 96.60 575.50 95.25
  Q 578.76 95.07 580.27 95.37
  A 0.47 0.46 -73.9 0 1 580.60 95.98
  L 574.12 114.48
  A 1.30 1.14 -5.9 0 1 573.49 115.16
  L 546.96 127.79
  A 1.26 1.20 -46.5 0 1 546.02 127.84
  L 527.99 121.43
  A 1.03 1.01 -61.8 0 1 527.53 119.86
  Q 529.20 117.58 531.16 115.60
  Q 532.44 114.30 535.20 111.75
  Z
  M 537.10 117.53
  A 0.77 0.76 32.9 0 0 537.37 118.79
  Q 540.44 119.94 543.42 121.10
  Q 545.98 122.11 548.44 120.93
  Q 558.50 116.12 568.51 111.34
  A 2.95 2.67 -5.8 0 0 569.99 109.70
  L 572.69 101.54
  A 0.42 0.41 5.8 0 0 572.24 101.00
  Q 551.64 103.26 537.10 117.53
  Z"
/>
<path fill="#000000" d="
  M 372.94 199.88
  Q 370.86 200.20 369.09 201.40
  A 0.75 0.68 -42.9 0 1 368.26 201.41
  Q 367.47 200.83 367.05 199.90
  Q 366.89 199.54 366.21 198.21
  Q 365.18 196.19 368.72 195.32
  Q 370.78 194.82 369.90 192.88
  Q 366.30 184.98 362.30 176.46
  Q 358.34 168.07 358.12 164.49
  Q 357.82 159.74 360.20 155.47
  Q 361.93 152.37 366.38 149.06
  Q 382.98 136.70 402.69 130.44
  Q 411.13 127.76 414.39 127.51
  Q 421.34 126.98 426.44 131.40
  Q 429.47 134.04 433.15 141.59
  Q 437.29 150.09 441.57 159.28
  A 1.27 1.23 63.8 0 0 443.26 159.89
  L 446.32 158.31
  A 0.94 0.86 -25.7 0 1 447.58 158.69
  L 449.28 162.46
  A 0.58 0.56 -25.4 0 1 449.00 163.19
  L 445.27 165.08
  A 0.90 0.85 -26.3 0 0 444.84 166.23
  Q 458.03 193.64 470.79 220.77
  Q 473.36 226.24 473.31 229.22
  Q 473.22 234.30 468.94 237.69
  Q 447.69 254.50 420.45 262.24
  Q 412.63 264.47 408.87 263.76
  Q 402.83 262.62 400.05 256.17
  Q 398.89 253.48 398.84 253.37
  Q 386.12 226.88 373.65 200.27
  A 0.69 0.66 72.5 0 0 372.94 199.88
  Z
  M 394.17 204.51
  L 404.32 225.60
  A 2.44 2.10 -54.7 0 1 404.46 227.11
  L 400.67 243.20
  A 1.53 1.49 40.4 0 0 400.76 244.14
  Q 403.08 249.42 405.50 254.65
  Q 407.38 258.70 411.25 258.50
  Q 415.92 258.26 425.35 254.93
  Q 445.15 247.93 462.24 235.75
  Q 465.47 233.45 466.69 231.69
  Q 468.42 229.18 466.90 225.83
  Q 464.43 220.41 461.90 215.02
  A 1.42 1.40 0.8 0 0 461.24 214.35
  L 446.51 207.35
  A 3.69 3.37 87.7 0 1 444.85 205.67
  L 435.03 185.13
  A 1.45 1.38 40.1 0 1 434.93 184.21
  L 438.66 168.58
  Q 439.02 167.07 438.36 165.66
  Q 433.70 155.68 428.81 145.65
  Q 428.77 145.58 427.33 142.30
  Q 425.60 138.37 422.45 135.06
  A 0.90 0.90 -49.5 0 0 421.06 135.17
  Q 419.88 136.87 417.76 137.69
  Q 415.51 138.56 415.43 138.60
  Q 411.23 140.59 406.83 142.87
  A 0.99 0.97 -27.0 0 1 405.50 142.45
  L 402.99 137.48
  A 1.27 1.26 67.1 0 0 401.46 136.85
  Q 389.56 140.87 377.53 148.19
  A 0.85 0.75 62.2 0 0 377.28 149.23
  L 379.92 154.84
  A 0.59 0.52 -25.2 0 1 379.61 155.55
  L 365.96 162.05
  Q 365.60 162.22 365.01 162.19
  Q 363.15 162.11 363.69 164.31
  Q 364.79 168.83 365.46 170.24
  Q 371.34 182.52 377.19 194.83
  A 4.67 4.03 3.5 0 0 379.25 196.84
  L 393.50 203.83
  A 1.56 1.45 88.3 0 1 394.17 204.51
  Z
  M 450.62 203.05
  L 456.09 205.62
  Q 457.66 206.36 456.91 204.75
  Q 450.41 190.80 443.69 176.89
  Q 443.48 176.46 443.19 176.19
  Q 441.86 174.96 442.32 177.08
  Q 442.43 177.59 442.33 178.05
  Q 441.72 180.77 440.95 183.46
  A 1.40 1.17 -54.4 0 0 441.02 184.39
  L 449.95 202.37
  A 1.49 1.28 86.1 0 0 450.62 203.05
  Z
  M 397.16 234.04
  L 398.57 227.72
  A 1.51 0.65 -68.1 0 0 398.55 226.80
  L 389.91 208.51
  A 1.58 1.01 10.4 0 0 389.23 207.88
  L 383.05 204.74
  Q 381.66 204.04 382.31 205.40
  L 396.00 234.23
  Q 396.76 235.84 397.16 234.04
  Z"
/>
<path fill="#000000" d="
  M 563.35 164.41
  A 2.17 1.87 -5.7 0 1 564.43 163.27
  L 589.15 151.52
  Q 591.01 150.64 593.00 151.34
  L 609.16 156.99
  Q 612.04 158.00 609.69 159.88
  Q 594.84 171.79 578.37 178.46
  Q 568.63 182.41 557.24 184.15
  A 0.62 0.60 5.3 0 1 556.56 183.35
  L 563.35 164.41
  Z
  M 567.73 168.56
  L 564.93 175.95
  Q 564.52 177.05 565.62 176.71
  Q 583.68 171.26 599.45 160.68
  Q 600.76 159.80 599.20 159.31
  L 592.47 157.21
  A 2.97 2.22 35.0 0 0 590.50 157.27
  L 568.45 167.74
  A 1.57 1.34 -89.1 0 0 567.73 168.56
  Z"
/>
<path fill="#000000" d="
  M 384.03 179.53
  Q 403.66 160.31 431.42 161.25
  A 0.37 0.36 9.9 0 1 431.76 161.73
  L 425.12 180.47
  A 1.23 1.16 -4.5 0 1 424.50 181.15
  L 398.20 193.78
  A 1.20 1.16 -47.6 0 1 397.27 193.84
  L 379.01 187.51
  A 0.95 0.93 -62.4 0 1 378.57 186.06
  Q 381.36 182.14 384.03 179.53
  Z
  M 388.05 183.57
  A 0.72 0.68 -57.1 0 0 388.27 184.74
  L 396.77 187.63
  A 1.37 1.05 -42.2 0 0 397.70 187.55
  L 419.66 177.27
  A 2.18 2.16 87.1 0 0 420.81 175.99
  L 423.52 168.20
  A 0.94 0.93 5.5 0 0 422.50 166.97
  Q 402.27 169.70 388.05 183.57
  Z"
/>
<path fill="#000000" d="
  M 414.10 230.46
  A 1.66 1.57 88.4 0 1 414.92 229.54
  L 440.27 217.47
  Q 442.00 216.65 443.79 217.27
  Q 450.95 219.76 458.59 222.58
  Q 458.74 222.63 460.56 223.12
  Q 463.08 223.79 460.31 226.06
  Q 438.26 244.17 409.59 250.14
  Q 406.96 250.69 407.86 248.13
  L 414.10 230.46
  Z
  M 418.70 234.63
  L 416.00 241.70
  Q 415.48 243.06 416.82 242.65
  Q 434.68 237.25 450.50 226.75
  Q 451.87 225.84 450.19 225.31
  L 443.02 223.07
  A 2.09 1.80 37.6 0 0 441.56 223.15
  L 419.47 233.73
  A 1.77 1.34 -86.7 0 0 418.70 234.63
  Z"
/>
</svg>
