<svg id="visual" viewBox="0 0 900 250" width="900" height="250" xmlns="http://www.w3.org/2000/svg" xmlns:xlink="http://www.w3.org/1999/xlink" version="1.1"><path d="M0 100L21.5 100.7C43 101.3 86 102.7 128.8 95.3C171.7 88 214.3 72 257.2 68.3C300 64.7 343 73.3 385.8 78.5C428.7 83.7 471.3 85.3 514.2 86.2C557 87 600 87 642.8 83.8C685.7 80.7 728.3 74.3 771.2 74.7C814 75 857 82 878.5 85.5L900 89L900 251L878.5 251C857 251 814 251 771.2 251C728.3 251 685.7 251 642.8 251C600 251 557 251 514.2 251C471.3 251 428.7 251 385.8 251C343 251 300 251 257.2 251C214.3 251 171.7 251 128.8 251C86 251 43 251 21.5 251L0 251Z" fill="#abf3e6"></path><path d="M0 89L21.5 97.3C43 105.7 86 122.3 128.8 123.2C171.7 124 214.3 109 257.2 103.3C300 97.7 343 101.3 385.8 111.3C428.7 121.3 471.3 137.7 514.2 142.5C557 147.3 600 140.7 642.8 130.3C685.7 120 728.3 106 771.2 104.8C814 103.7 857 115.3 878.5 121.2L900 127L900 251L878.5 251C857 251 814 251 771.2 251C728.3 251 685.7 251 642.8 251C600 251 557 251 514.2 251C471.3 251 428.7 251 385.8 251C343 251 300 251 257.2 251C214.3 251 171.7 251 128.8 251C86 251 43 251 21.5 251L0 251Z" fill="#96e5db"></path><path d="M0 130L21.5 138C43 146 86 162 128.8 168.2C171.7 174.3 214.3 170.7 257.2 172.2C300 173.7 343 180.3 385.8 183.2C428.7 186 471.3 185 514.2 177.3C557 169.7 600 155.3 642.8 149.8C685.7 144.3 728.3 147.7 771.2 147.2C814 146.7 857 142.3 878.5 140.2L900 138L900 251L878.5 251C857 251 814 251 771.2 251C728.3 251 685.7 251 642.8 251C600 251 557 251 514.2 251C471.3 251 428.7 251 385.8 251C343 251 300 251 257.2 251C214.3 251 171.7 251 128.8 251C86 251 43 251 21.5 251L0 251Z" fill="#82d7d1"></path><path d="M0 207L21.5 205C43 203 86 199 128.8 197.5C171.7 196 214.3 197 257.2 194.2C300 191.3 343 184.7 385.8 184.3C428.7 184 471.3 190 514.2 189.3C557 188.7 600 181.3 642.8 178C685.7 174.7 728.3 175.3 771.2 178.3C814 181.3 857 186.7 878.5 189.3L900 192L900 251L878.5 251C857 251 814 251 771.2 251C728.3 251 685.7 251 642.8 251C600 251 557 251 514.2 251C471.3 251 428.7 251 385.8 251C343 251 300 251 257.2 251C214.3 251 171.7 251 128.8 251C86 251 43 251 21.5 251L0 251Z" fill="#6ccac7"></path></svg>