<svg id="visual" viewBox="0 0 900 300" width="900" height="300" xmlns="http://www.w3.org/2000/svg" xmlns:xlink="http://www.w3.org/1999/xlink" version="1.1"><rect x="0" y="0" width="900" height="300" fill="#abf3e6"></rect><defs><linearGradient id="grad1_0" x1="66.7%" y1="100%" x2="100%" y2="0%"><stop offset="-10%" stop-color="#6ccac7" stop-opacity="1"></stop><stop offset="110%" stop-color="#6ccac7" stop-opacity="1"></stop></linearGradient></defs><defs><linearGradient id="grad1_1" x1="66.7%" y1="100%" x2="100%" y2="0%"><stop offset="-10%" stop-color="#6ccac7" stop-opacity="1"></stop><stop offset="110%" stop-color="#82d8d1" stop-opacity="1"></stop></linearGradient></defs><defs><linearGradient id="grad1_2" x1="66.7%" y1="100%" x2="100%" y2="0%"><stop offset="-10%" stop-color="#97e5db" stop-opacity="1"></stop><stop offset="110%" stop-color="#82d8d1" stop-opacity="1"></stop></linearGradient></defs><defs><linearGradient id="grad1_3" x1="66.7%" y1="100%" x2="100%" y2="0%"><stop offset="-10%" stop-color="#97e5db" stop-opacity="1"></stop><stop offset="110%" stop-color="#abf3e6" stop-opacity="1"></stop></linearGradient></defs><defs><linearGradient id="grad2_0" x1="0%" y1="100%" x2="33.3%" y2="0%"><stop offset="-10%" stop-color="#6ccac7" stop-opacity="1"></stop><stop offset="110%" stop-color="#6ccac7" stop-opacity="1"></stop></linearGradient></defs><defs><linearGradient id="grad2_1" x1="0%" y1="100%" x2="33.3%" y2="0%"><stop offset="-10%" stop-color="#82d8d1" stop-opacity="1"></stop><stop offset="110%" stop-color="#6ccac7" stop-opacity="1"></stop></linearGradient></defs><defs><linearGradient id="grad2_2" x1="0%" y1="100%" x2="33.3%" y2="0%"><stop offset="-10%" stop-color="#82d8d1" stop-opacity="1"></stop><stop offset="110%" stop-color="#97e5db" stop-opacity="1"></stop></linearGradient></defs><defs><linearGradient id="grad2_3" x1="0%" y1="100%" x2="33.3%" y2="0%"><stop offset="-10%" stop-color="#abf3e6" stop-opacity="1"></stop><stop offset="110%" stop-color="#97e5db" stop-opacity="1"></stop></linearGradient></defs><g transform="translate(900, 300)"><path d="M-240 0C-203.2 -13.1 -166.4 -26.2 -165.5 -53.8C-164.6 -81.4 -199.7 -123.5 -194.2 -141.1C-188.7 -158.7 -142.6 -151.7 -116.4 -160.2C-90.2 -168.6 -83.8 -192.4 -67.7 -208.3C-51.6 -224.1 -25.8 -232.1 0 -240L0 0Z" fill="#a1ece1"></path><path d="M-180 0C-152.4 -9.8 -124.8 -19.6 -124.1 -40.3C-123.5 -61 -149.7 -92.6 -145.6 -105.8C-141.5 -119 -107 -113.8 -87.3 -120.1C-67.6 -126.5 -62.8 -144.3 -50.8 -156.2C-38.7 -168.1 -19.3 -174.1 0 -180L0 0Z" fill="#8cded6"></path><path d="M-120 0C-101.6 -6.5 -83.2 -13.1 -82.7 -26.9C-82.3 -40.7 -99.8 -61.7 -97.1 -70.5C-94.3 -79.3 -71.3 -75.9 -58.2 -80.1C-45.1 -84.3 -41.9 -96.2 -33.8 -104.1C-25.8 -112.1 -12.9 -116 0 -120L0 0Z" fill="#77d1cc"></path><path d="M-60 0C-50.8 -3.3 -41.6 -6.5 -41.4 -13.4C-41.2 -20.3 -49.9 -30.9 -48.5 -35.3C-47.2 -39.7 -35.7 -37.9 -29.1 -40C-22.5 -42.2 -20.9 -48.1 -16.9 -52.1C-12.9 -56 -6.4 -58 0 -60L0 0Z" fill="#6ccac7"></path></g><g transform="translate(0, 0)"><path d="M240 0C202.8 13.8 165.6 27.6 163.6 53.2C161.6 78.7 194.7 116.1 194.2 141.1C193.6 166.1 159.2 178.7 130.5 179.6C101.7 180.5 78.6 169.7 57.8 177.8C37 186 18.5 213 0 240L0 0Z" fill="#a1ece1"></path><path d="M180 0C152.1 10.3 124.2 20.7 122.7 39.9C121.2 59 146.1 87.1 145.6 105.8C145.2 124.5 119.4 134 97.9 134.7C76.3 135.4 59 127.3 43.3 133.4C27.7 139.5 13.9 159.7 0 180L0 0Z" fill="#8cded6"></path><path d="M120 0C101.4 6.9 82.8 13.8 81.8 26.6C80.8 39.4 97.4 58 97.1 70.5C96.8 83 79.6 89.3 65.2 89.8C50.9 90.3 39.3 84.9 28.9 88.9C18.5 93 9.2 106.5 0 120L0 0Z" fill="#77d1cc"></path><path d="M60 0C50.7 3.4 41.4 6.9 40.9 13.3C40.4 19.7 48.7 29 48.5 35.3C48.4 41.5 39.8 44.7 32.6 44.9C25.4 45.1 19.7 42.4 14.4 44.5C9.2 46.5 4.6 53.2 0 60L0 0Z" fill="#6ccac7"></path></g></svg>