<svg id="visual" viewBox="0 0 900 600" width="900" height="600" xmlns="http://www.w3.org/2000/svg" xmlns:xlink="http://www.w3.org/1999/xlink" version="1.1"><path d="M0 117L21.5 119.3C43 121.7 86 126.3 128.8 129.3C171.7 132.3 214.3 133.7 257.2 130.7C300 127.7 343 120.3 385.8 113.3C428.7 106.3 471.3 99.7 514.2 99.3C557 99 600 105 642.8 108.3C685.7 111.7 728.3 112.3 771.2 112C814 111.7 857 110.3 878.5 109.7L900 109L900 0L878.5 0C857 0 814 0 771.2 0C728.3 0 685.7 0 642.8 0C600 0 557 0 514.2 0C471.3 0 428.7 0 385.8 0C343 0 300 0 257.2 0C214.3 0 171.7 0 128.8 0C86 0 43 0 21.5 0L0 0Z" fill="#abf3e6"></path><path d="M0 81L21.5 79.7C43 78.3 86 75.7 128.8 78.8C171.7 82 214.3 91 257.2 90C300 89 343 78 385.8 73.8C428.7 69.7 471.3 72.3 514.2 71.7C557 71 600 67 642.8 66C685.7 65 728.3 67 771.2 71.7C814 76.3 857 83.7 878.5 87.3L900 91L900 0L878.5 0C857 0 814 0 771.2 0C728.3 0 685.7 0 642.8 0C600 0 557 0 514.2 0C471.3 0 428.7 0 385.8 0C343 0 300 0 257.2 0C214.3 0 171.7 0 128.8 0C86 0 43 0 21.5 0L0 0Z" fill="#96e5db"></path><path d="M0 79L21.5 74.3C43 69.7 86 60.3 128.8 53.8C171.7 47.3 214.3 43.7 257.2 43.2C300 42.7 343 45.3 385.8 45.8C428.7 46.3 471.3 44.7 514.2 50.2C557 55.7 600 68.3 642.8 72.7C685.7 77 728.3 73 771.2 69.7C814 66.3 857 63.7 878.5 62.3L900 61L900 0L878.5 0C857 0 814 0 771.2 0C728.3 0 685.7 0 642.8 0C600 0 557 0 514.2 0C471.3 0 428.7 0 385.8 0C343 0 300 0 257.2 0C214.3 0 171.7 0 128.8 0C86 0 43 0 21.5 0L0 0Z" fill="#82d7d1"></path><path d="M0 51L21.5 46.2C43 41.3 86 31.7 128.8 26.7C171.7 21.7 214.3 21.3 257.2 25.5C300 29.7 343 38.3 385.8 38C428.7 37.7 471.3 28.3 514.2 23.8C557 19.3 600 19.7 642.8 23.3C685.7 27 728.3 34 771.2 36C814 38 857 35 878.5 33.5L900 32L900 0L878.5 0C857 0 814 0 771.2 0C728.3 0 685.7 0 642.8 0C600 0 557 0 514.2 0C471.3 0 428.7 0 385.8 0C343 0 300 0 257.2 0C214.3 0 171.7 0 128.8 0C86 0 43 0 21.5 0L0 0Z" fill="#6ccac7"></path></svg>