<svg id="visual" viewBox="0 0 900 300" width="900" height="300" xmlns="http://www.w3.org/2000/svg" xmlns:xlink="http://www.w3.org/1999/xlink" version="1.1"><path d="M258 0L277.7 7.2C297.3 14.3 336.7 28.7 349.8 43C363 57.3 350 71.7 336.2 86C322.3 100.3 307.7 114.7 290 128.8C272.3 143 251.7 157 245.5 171.2C239.3 185.3 247.7 199.7 260.5 214C273.3 228.3 290.7 242.7 297.2 257C303.7 271.3 299.3 285.7 297.2 292.8L295 300L0 300L0 292.8C0 285.7 0 271.3 0 257C0 242.7 0 228.3 0 214C0 199.7 0 185.3 0 171.2C0 157 0 143 0 128.8C0 114.7 0 100.3 0 86C0 71.7 0 57.3 0 43C0 28.7 0 14.3 0 7.2L0 0Z" fill="#6ccac7"></path><path d="M273 0L272.8 7.2C272.7 14.3 272.3 28.7 268 43C263.7 57.3 255.3 71.7 257.2 86C259 100.3 271 114.7 281.5 128.8C292 143 301 157 295.2 171.2C289.3 185.3 268.7 199.7 248.5 214C228.3 228.3 208.7 242.7 215.5 257C222.3 271.3 255.7 285.7 272.3 292.8L289 300L0 300L0 292.8C0 285.7 0 271.3 0 257C0 242.7 0 228.3 0 214C0 199.7 0 185.3 0 171.2C0 157 0 143 0 128.8C0 114.7 0 100.3 0 86C0 71.7 0 57.3 0 43C0 28.7 0 14.3 0 7.2L0 0Z" fill="#7cd4ce"></path><path d="M240 0L232.8 7.2C225.7 14.3 211.3 28.7 206 43C200.7 57.3 204.3 71.7 196 86C187.7 100.3 167.3 114.7 171.2 128.8C175 143 203 157 215.7 171.2C228.3 185.3 225.7 199.7 209.5 214C193.3 228.3 163.7 242.7 166.7 257C169.7 271.3 205.3 285.7 223.2 292.8L241 300L0 300L0 292.8C0 285.7 0 271.3 0 257C0 242.7 0 228.3 0 214C0 199.7 0 185.3 0 171.2C0 157 0 143 0 128.8C0 114.7 0 100.3 0 86C0 71.7 0 57.3 0 43C0 28.7 0 14.3 0 7.2L0 0Z" fill="#8cded6"></path><path d="M93 0L94.8 7.2C96.7 14.3 100.3 28.7 107.7 43C115 57.3 126 71.7 128.2 86C130.3 100.3 123.7 114.7 123.3 128.8C123 143 129 157 132.8 171.2C136.7 185.3 138.3 199.7 143.7 214C149 228.3 158 242.7 163.3 257C168.7 271.3 170.3 285.7 171.2 292.8L172 300L0 300L0 292.8C0 285.7 0 271.3 0 257C0 242.7 0 228.3 0 214C0 199.7 0 185.3 0 171.2C0 157 0 143 0 128.8C0 114.7 0 100.3 0 86C0 71.7 0 57.3 0 43C0 28.7 0 14.3 0 7.2L0 0Z" fill="#9ce8de"></path><path d="M39 0L42.2 7.2C45.3 14.3 51.7 28.7 53 43C54.3 57.3 50.7 71.7 59.3 86C68 100.3 89 114.7 91.5 128.8C94 143 78 157 69.5 171.2C61 185.3 60 199.7 61.8 214C63.7 228.3 68.3 242.7 72.7 257C77 271.3 81 285.7 83 292.8L85 300L0 300L0 292.8C0 285.7 0 271.3 0 257C0 242.7 0 228.3 0 214C0 199.7 0 185.3 0 171.2C0 157 0 143 0 128.8C0 114.7 0 100.3 0 86C0 71.7 0 57.3 0 43C0 28.7 0 14.3 0 7.2L0 0Z" fill="#abf3e6"></path></svg>