<svg id="visual" viewBox="0 0 1600 600" width="1600" height="600" xmlns="http://www.w3.org/2000/svg" xmlns:xlink="http://www.w3.org/1999/xlink" version="1.1"><path d="M0 252L38.2 249.8C76.3 247.7 152.7 243.3 228.8 257.3C305 271.3 381 303.7 457.2 307.8C533.3 312 609.7 288 685.8 299.5C762 311 838 358 914.2 381.2C990.3 404.3 1066.7 403.7 1142.8 383.3C1219 363 1295 323 1371.2 295.5C1447.3 268 1523.7 253 1561.8 245.5L1600 238L1600 0L1561.8 0C1523.7 0 1447.3 0 1371.2 0C1295 0 1219 0 1142.8 0C1066.7 0 990.3 0 914.2 0C838 0 762 0 685.8 0C609.7 0 533.3 0 457.2 0C381 0 305 0 228.8 0C152.7 0 76.3 0 38.2 0L0 0Z" fill="#6ccac7"></path><path d="M0 212L38.2 217.8C76.3 223.7 152.7 235.3 228.8 229.3C305 223.3 381 199.7 457.2 208.2C533.3 216.7 609.7 257.3 685.8 260.7C762 264 838 230 914.2 222.7C990.3 215.3 1066.7 234.7 1142.8 255.3C1219 276 1295 298 1371.2 299.7C1447.3 301.3 1523.7 282.7 1561.8 273.3L1600 264L1600 0L1561.8 0C1523.7 0 1447.3 0 1371.2 0C1295 0 1219 0 1142.8 0C1066.7 0 990.3 0 914.2 0C838 0 762 0 685.8 0C609.7 0 533.3 0 457.2 0C381 0 305 0 228.8 0C152.7 0 76.3 0 38.2 0L0 0Z" fill="#7cd4ce"></path><path d="M0 142L38.2 140C76.3 138 152.7 134 228.8 145C305 156 381 182 457.2 205.5C533.3 229 609.7 250 685.8 251.3C762 252.7 838 234.3 914.2 232.3C990.3 230.3 1066.7 244.7 1142.8 253.8C1219 263 1295 267 1371.2 248.8C1447.3 230.7 1523.7 190.3 1561.8 170.2L1600 150L1600 0L1561.8 0C1523.7 0 1447.3 0 1371.2 0C1295 0 1219 0 1142.8 0C1066.7 0 990.3 0 914.2 0C838 0 762 0 685.8 0C609.7 0 533.3 0 457.2 0C381 0 305 0 228.8 0C152.7 0 76.3 0 38.2 0L0 0Z" fill="#8cded6"></path><path d="M0 176L38.2 166.7C76.3 157.3 152.7 138.7 228.8 128.2C305 117.7 381 115.3 457.2 119.3C533.3 123.3 609.7 133.7 685.8 132.3C762 131 838 118 914.2 121.3C990.3 124.7 1066.7 144.3 1142.8 147.7C1219 151 1295 138 1371.2 140.3C1447.3 142.7 1523.7 160.3 1561.8 169.2L1600 178L1600 0L1561.8 0C1523.7 0 1447.3 0 1371.2 0C1295 0 1219 0 1142.8 0C1066.7 0 990.3 0 914.2 0C838 0 762 0 685.8 0C609.7 0 533.3 0 457.2 0C381 0 305 0 228.8 0C152.7 0 76.3 0 38.2 0L0 0Z" fill="#9ce8de"></path><path d="M0 79L38.2 80.2C76.3 81.3 152.7 83.7 228.8 81.8C305 80 381 74 457.2 72C533.3 70 609.7 72 685.8 80.2C762 88.3 838 102.7 914.2 104.3C990.3 106 1066.7 95 1142.8 95.2C1219 95.3 1295 106.7 1371.2 112.3C1447.3 118 1523.7 118 1561.8 118L1600 118L1600 0L1561.8 0C1523.7 0 1447.3 0 1371.2 0C1295 0 1219 0 1142.8 0C1066.7 0 990.3 0 914.2 0C838 0 762 0 685.8 0C609.7 0 533.3 0 457.2 0C381 0 305 0 228.8 0C152.7 0 76.3 0 38.2 0L0 0Z" fill="#abf3e6"></path></svg>