<svg id="visual" viewBox="0 0 900 600" width="900" height="600" xmlns="http://www.w3.org/2000/svg" xmlns:xlink="http://www.w3.org/1999/xlink" version="1.1"><rect x="0" y="0" width="900" height="600" fill="#ffffff"></rect><path d="M382 600L365.2 583.3C348.3 566.7 314.7 533.3 311 500C307.3 466.7 333.7 433.3 325.5 400C317.3 366.7 274.7 333.3 264.2 300C253.7 266.7 275.3 233.3 273.3 200C271.3 166.7 245.7 133.3 244.2 100C242.7 66.7 265.3 33.3 276.7 16.7L288 0L900 0L900 16.7C900 33.3 900 66.7 900 100C900 133.3 900 166.7 900 200C900 233.3 900 266.7 900 300C900 333.3 900 366.7 900 400C900 433.3 900 466.7 900 500C900 533.3 900 566.7 900 583.3L900 600Z" fill="#ffffff"></path><path d="M510 600L497.8 583.3C485.7 566.7 461.3 533.3 447.3 500C433.3 466.7 429.7 433.3 431.5 400C433.3 366.7 440.7 333.3 437.5 300C434.3 266.7 420.7 233.3 414.8 200C409 166.7 411 133.3 411.8 100C412.7 66.7 412.3 33.3 412.2 16.7L412 0L900 0L900 16.7C900 33.3 900 66.7 900 100C900 133.3 900 166.7 900 200C900 233.3 900 266.7 900 300C900 333.3 900 366.7 900 400C900 433.3 900 466.7 900 500C900 533.3 900 566.7 900 583.3L900 600Z" fill="#dafcfc"></path><path d="M573 600L575.5 583.3C578 566.7 583 533.3 586.3 500C589.7 466.7 591.3 433.3 588.8 400C586.3 366.7 579.7 333.3 575.5 300C571.3 266.7 569.7 233.3 573.2 200C576.7 166.7 585.3 133.3 595.8 100C606.3 66.7 618.7 33.3 624.8 16.7L631 0L900 0L900 16.7C900 33.3 900 66.7 900 100C900 133.3 900 166.7 900 200C900 233.3 900 266.7 900 300C900 333.3 900 366.7 900 400C900 433.3 900 466.7 900 500C900 533.3 900 566.7 900 583.3L900 600Z" fill="#b1f9f9"></path><path d="M772 600L757.2 583.3C742.3 566.7 712.7 533.3 703.2 500C693.7 466.7 704.3 433.3 724 400C743.7 366.7 772.3 333.3 766 300C759.7 266.7 718.3 233.3 699.8 200C681.3 166.7 685.7 133.3 706 100C726.3 66.7 762.7 33.3 780.8 16.7L799 0L900 0L900 16.7C900 33.3 900 66.7 900 100C900 133.3 900 166.7 900 200C900 233.3 900 266.7 900 300C900 333.3 900 366.7 900 400C900 433.3 900 466.7 900 500C900 533.3 900 566.7 900 583.3L900 600Z" fill="#7ff6f6"></path></svg>