<svg id="visual" viewBox="0 0 900 600" width="900" height="600" xmlns="http://www.w3.org/2000/svg" xmlns:xlink="http://www.w3.org/1999/xlink" version="1.1"><rect x="0" y="0" width="900" height="600" fill="#ffffff"></rect><path d="M374 600L404.7 587.5C435.3 575 496.7 550 528 525C559.3 500 560.7 475 536.2 450C511.7 425 461.3 400 435.7 375C410 350 409 325 416 300C423 275 438 250 449.2 225C460.3 200 467.7 175 466.2 150C464.7 125 454.3 100 444.2 75C434 50 424 25 419 12.5L414 0L900 0L900 12.5C900 25 900 50 900 75C900 100 900 125 900 150C900 175 900 200 900 225C900 250 900 275 900 300C900 325 900 350 900 375C900 400 900 425 900 450C900 475 900 500 900 525C900 550 900 575 900 587.5L900 600Z" fill="#6ccac7"></path><path d="M458 600L481.8 587.5C505.7 575 553.3 550 573.3 525C593.3 500 585.7 475 595.3 450C605 425 632 400 646 375C660 350 661 325 626.7 300C592.3 275 522.7 250 491.8 225C461 200 469 175 476.5 150C484 125 491 100 494.5 75C498 50 498 25 498 12.5L498 0L900 0L900 12.5C900 25 900 50 900 75C900 100 900 125 900 150C900 175 900 200 900 225C900 250 900 275 900 300C900 325 900 350 900 375C900 400 900 425 900 450C900 475 900 500 900 525C900 550 900 575 900 587.5L900 600Z" fill="#7cd4ce"></path><path d="M637 600L641.3 587.5C645.7 575 654.3 550 654.5 525C654.7 500 646.3 475 655.2 450C664 425 690 400 703.5 375C717 350 718 325 720.7 300C723.3 275 727.7 250 699.3 225C671 200 610 175 585.2 150C560.3 125 571.7 100 574.5 75C577.3 50 571.7 25 568.8 12.5L566 0L900 0L900 12.5C900 25 900 50 900 75C900 100 900 125 900 150C900 175 900 200 900 225C900 250 900 275 900 300C900 325 900 350 900 375C900 400 900 425 900 450C900 475 900 500 900 525C900 550 900 575 900 587.5L900 600Z" fill="#8cded6"></path><path d="M682 600L686.8 587.5C691.7 575 701.3 550 710 525C718.7 500 726.3 475 716.5 450C706.7 425 679.3 400 684.8 375C690.3 350 728.7 325 749.3 300C770 275 773 250 764.2 225C755.3 200 734.7 175 736.8 150C739 125 764 100 768.2 75C772.3 50 755.7 25 747.3 12.5L739 0L900 0L900 12.5C900 25 900 50 900 75C900 100 900 125 900 150C900 175 900 200 900 225C900 250 900 275 900 300C900 325 900 350 900 375C900 400 900 425 900 450C900 475 900 500 900 525C900 550 900 575 900 587.5L900 600Z" fill="#9ce8de"></path><path d="M855 600L846.8 587.5C838.7 575 822.3 550 804.2 525C786 500 766 475 770.3 450C774.7 425 803.3 400 818.2 375C833 350 834 325 830 300C826 275 817 250 803.3 225C789.7 200 771.3 175 775.7 150C780 125 807 100 822.8 75C838.7 50 843.3 25 845.7 12.5L848 0L900 0L900 12.5C900 25 900 50 900 75C900 100 900 125 900 150C900 175 900 200 900 225C900 250 900 275 900 300C900 325 900 350 900 375C900 400 900 425 900 450C900 475 900 500 900 525C900 550 900 575 900 587.5L900 600Z" fill="#abf3e6"></path></svg>