<?xml version="1.0" encoding="UTF-8" standalone="no"?>
<!DOCTYPE svg PUBLIC "-//W3C//DTD SVG 1.1//EN" "http://www.w3.org/Graphics/SVG/1.1/DTD/svg11.dtd">
<svg xmlns="http://www.w3.org/2000/svg" version="1.1" viewBox="0 0 700 550">
<path fill="#000000" d="
  M 170.85 13.46
  Q 160.77 10.39 150.45 7.05
  Q 148.02 6.26 147.20 5.60
  Q 145.12 3.91 147.35 1.31
  A 1.41 1.26 -70.5 0 1 148.19 0.85
  Q 149.85 0.66 152.75 1.50
  Q 165.07 5.08 177.20 9.32
  Q 178.95 9.93 178.44 11.71
  Q 174.63 24.95 170.45 38.31
  Q 169.38 41.74 165.80 40.43
  Q 163.66 39.65 164.31 37.53
  L 171.40 14.53
  A 0.85 0.84 -72.6 0 0 170.85 13.46
  Z"
/>
<rect fill="#000000" x="-3.19" y="-3.05" transform="translate(164.18,17.56) rotate(-28.9)" width="6.38" height="6.10" rx="1.15"/>
<rect fill="#000000" x="-3.20" y="-3.09" transform="translate(152.98,23.47) rotate(-27.0)" width="6.40" height="6.18" rx="1.13"/>
<rect fill="#000000" x="-3.18" y="-3.07" transform="translate(141.79,29.38) rotate(-29.1)" width="6.36" height="6.14" rx="0.98"/>
<rect fill="#000000" x="-3.16" y="-3.06" transform="translate(131.42,36.34) rotate(-40.7)" width="6.32" height="6.12" rx="0.91"/>
<rect fill="#000000" x="-3.07" y="-3.21" transform="translate(122.78,45.48) rotate(38.0)" width="6.14" height="6.42" rx="0.99"/>
<rect fill="#000000" x="-3.05" y="-3.18" transform="translate(116.37,56.20) rotate(25.2)" width="6.10" height="6.36" rx="1.00"/>
<rect fill="#000000" x="-3.06" y="-3.20" transform="translate(112.36,68.02) rotate(11.7)" width="6.12" height="6.40" rx="0.96"/>
<rect fill="#000000" x="-3.07" y="-3.12" transform="translate(110.97,80.38) rotate(-1.9)" width="6.14" height="6.24" rx="1.04"/>
<rect fill="#000000" x="-3.05" y="-3.04" transform="translate(112.20,92.41) rotate(-12.4)" width="6.10" height="6.08" rx="0.86"/>
<rect fill="#000000" x="-2.56" y="-3.04" transform="translate(306.93,101.51) rotate(-1.7)" width="5.12" height="6.08" rx="0.77"/>
<rect fill="#000000" x="-2.62" y="-3.08" transform="translate(296.70,102.26) rotate(-7.9)" width="5.24" height="6.16" rx="1.03"/>
<rect fill="#000000" x="-2.91" y="-3.07" transform="translate(317.44,102.36) rotate(9.0)" width="5.82" height="6.14" rx="0.92"/>
<rect fill="#000000" x="-3.08" y="-3.05" transform="translate(115.88,103.76) rotate(-24.8)" width="6.16" height="6.10" rx="1.02"/>
<rect fill="#000000" x="-2.82" y="-3.09" transform="translate(286.50,104.57) rotate(-17.5)" width="5.64" height="6.18" rx="1.23"/>
<rect fill="#000000" x="-3.21" y="-3.03" transform="translate(329.33,105.27) rotate(19.2)" width="6.42" height="6.06" rx="0.96"/>
<rect fill="#000000" x="-2.99" y="-3.09" transform="translate(275.47,107.97) rotate(-17.1)" width="5.98" height="6.18" rx="1.22"/>
<rect fill="#000000" x="-3.18" y="-3.07" transform="translate(340.85,110.35) rotate(29.0)" width="6.36" height="6.14" rx="1.32"/>
<rect fill="#000000" x="-2.98" y="-3.13" transform="translate(264.26,111.42) rotate(-17.7)" width="5.96" height="6.26" rx="1.32"/>
<rect fill="#000000" x="-3.04" y="-3.03" transform="translate(121.82,114.16) rotate(-36.6)" width="6.08" height="6.06" rx="0.93"/>
<rect fill="#000000" x="-2.96" y="-3.09" transform="translate(253.04,114.90) rotate(-17.4)" width="5.92" height="6.18" rx="1.17"/>
<rect fill="#000000" x="-3.19" y="-3.05" transform="translate(351.14,117.47) rotate(40.5)" width="6.38" height="6.10" rx="0.85"/>
<rect fill="#000000" x="-2.96" y="-3.09" transform="translate(241.85,118.33) rotate(-17.1)" width="5.92" height="6.18" rx="0.85"/>
<rect fill="#000000" x="-3.00" y="-3.12" transform="translate(230.63,121.82) rotate(-19.0)" width="6.00" height="6.24" rx="1.27"/>
<rect fill="#000000" x="-3.05" y="-3.06" transform="translate(129.83,123.09) rotate(42.3)" width="6.10" height="6.12" rx="0.90"/>
<rect fill="#000000" x="-2.97" y="-3.12" transform="translate(219.40,125.26) rotate(-17.9)" width="5.94" height="6.24" rx="1.34"/>
<rect fill="#000000" x="-3.04" y="-3.20" transform="translate(359.86,126.51) rotate(-38.1)" width="6.08" height="6.40" rx="0.97"/>
<rect fill="#000000" x="-2.96" y="-3.07" transform="translate(208.20,128.71) rotate(-17.6)" width="5.92" height="6.14" rx="1.08"/>
<rect fill="#000000" x="-3.05" y="-3.07" transform="translate(139.43,130.24) rotate(31.7)" width="6.10" height="6.14" rx="0.83"/>
<rect fill="#000000" x="-2.94" y="-3.11" transform="translate(196.98,132.18) rotate(-16.9)" width="5.88" height="6.22" rx="1.02"/>
<rect fill="#000000" x="-3.07" y="-3.10" transform="translate(150.32,135.23) rotate(18.7)" width="6.14" height="6.20" rx="1.12"/>
<rect fill="#000000" x="-3.00" y="-3.10" transform="translate(185.75,135.66) rotate(-17.3)" width="6.00" height="6.20" rx="0.97"/>
<rect fill="#000000" x="-3.07" y="-3.19" transform="translate(366.60,137.04) rotate(-27.4)" width="6.14" height="6.38" rx="0.93"/>
<rect fill="#000000" x="-3.07" y="-3.07" transform="translate(162.04,137.85) rotate(6.0)" width="6.14" height="6.14" rx="0.95"/>
<rect fill="#000000" x="-3.04" y="-3.11" transform="translate(174.02,137.99) rotate(-6.7)" width="6.08" height="6.22" rx="0.94"/>
<rect fill="#000000" x="-3.08" y="-3.17" transform="translate(371.32,148.70) rotate(-18.7)" width="6.16" height="6.34" rx="1.15"/>
<rect fill="#000000" x="-2.97" y="-3.21" transform="translate(373.76,161.01) rotate(-5.9)" width="5.94" height="6.42" rx="0.80"/>
<rect fill="#000000" x="-2.92" y="-3.15" transform="translate(374.05,173.56) rotate(2.2)" width="5.84" height="6.30" rx="0.73"/>
<rect fill="#000000" x="-3.08" y="-3.19" transform="translate(372.35,185.94) rotate(12.4)" width="6.16" height="6.38" rx="1.06"/>
<rect fill="#000000" x="-3.05" y="-3.17" transform="translate(368.39,197.79) rotate(24.7)" width="6.10" height="6.34" rx="1.06"/>
<rect fill="#000000" x="-3.07" y="-3.18" transform="translate(362.17,208.76) rotate(36.4)" width="6.14" height="6.36" rx="1.18"/>
<rect fill="#000000" x="-3.19" y="-3.07" transform="translate(354.01,218.26) rotate(-44.6)" width="6.38" height="6.14" rx="1.11"/>
<rect fill="#000000" x="-3.17" y="-3.06" transform="translate(344.14,225.95) rotate(-32.6)" width="6.34" height="6.12" rx="0.91"/>
<rect fill="#000000" x="-3.16" y="-3.08" transform="translate(332.93,231.66) rotate(-23.9)" width="6.32" height="6.16" rx="1.11"/>
<rect fill="#000000" x="-3.16" y="-3.06" transform="translate(320.96,235.31) rotate(-12.5)" width="6.32" height="6.12" rx="1.05"/>
<rect fill="#000000" x="-3.14" y="-3.09" transform="translate(308.85,237.93) rotate(-12.5)" width="6.28" height="6.18" rx="1.04"/>
<rect fill="#000000" x="-3.11" y="-3.11" transform="translate(296.76,240.52) rotate(-13.2)" width="6.22" height="6.22" rx="1.04"/>
<rect fill="#000000" x="-3.13" y="-3.07" transform="translate(284.73,243.12) rotate(-13.6)" width="6.26" height="6.14" rx="1.18"/>
<rect fill="#000000" x="-3.14" y="-3.10" transform="translate(272.65,245.72) rotate(-11.9)" width="6.28" height="6.20" rx="1.06"/>
<rect fill="#000000" x="-3.11" y="-3.10" transform="translate(260.60,248.31) rotate(-11.0)" width="6.22" height="6.20" rx="0.96"/>
<rect fill="#000000" x="-3.14" y="-3.04" transform="translate(248.53,250.94) rotate(-11.9)" width="6.28" height="6.08" rx="0.88"/>
<rect fill="#000000" x="-3.11" y="-3.10" transform="translate(236.45,253.54) rotate(-11.1)" width="6.22" height="6.20" rx="1.01"/>
<rect fill="#000000" x="-3.12" y="-3.08" transform="translate(224.44,256.15) rotate(-12.2)" width="6.24" height="6.16" rx="0.95"/>
<rect fill="#000000" x="-3.10" y="-3.08" transform="translate(212.35,258.73) rotate(-10.9)" width="6.20" height="6.16" rx="0.91"/>
<rect fill="#000000" x="-3.09" y="-3.12" transform="translate(200.29,261.34) rotate(-12.9)" width="6.18" height="6.24" rx="1.06"/>
<rect fill="#000000" x="-3.10" y="-3.14" transform="translate(188.22,263.98) rotate(-12.1)" width="6.20" height="6.28" rx="1.26"/>
<rect fill="#000000" x="-3.13" y="-3.11" transform="translate(176.18,266.51) rotate(-12.2)" width="6.26" height="6.22" rx="1.29"/>
<rect fill="#000000" x="-3.15" y="-3.06" transform="translate(164.11,269.17) rotate(-12.4)" width="6.30" height="6.12" rx="1.05"/>
<rect fill="#000000" x="-3.08" y="-3.13" transform="translate(152.05,271.72) rotate(-11.9)" width="6.16" height="6.26" rx="1.14"/>
<rect fill="#000000" x="-3.12" y="-3.05" transform="translate(140.00,274.35) rotate(-12.5)" width="6.24" height="6.10" rx="0.96"/>
<rect fill="#000000" x="-3.12" y="-3.08" transform="translate(127.93,276.95) rotate(-11.6)" width="6.24" height="6.16" rx="1.03"/>
<rect fill="#000000" x="-3.11" y="-3.10" transform="translate(115.88,279.54) rotate(-12.9)" width="6.22" height="6.20" rx="0.93"/>
<rect fill="#000000" x="-3.73" y="-3.12" transform="translate(103.19,282.27) rotate(-12.5)" width="7.46" height="6.24" rx="0.92"/>
<rect fill="#000000" x="-3.78" y="-3.10" transform="translate(87.82,286.94) rotate(-20.4)" width="7.56" height="6.20" rx="1.09"/>
<rect fill="#000000" x="-3.25" y="-3.11" transform="translate(75.45,291.73) rotate(-22.9)" width="6.50" height="6.22" rx="1.20"/>
<rect fill="#000000" x="-3.22" y="-3.12" transform="translate(63.59,296.35) rotate(-22.7)" width="6.44" height="6.24" rx="1.28"/>
<rect fill="#000000" x="-3.15" y="-3.10" transform="translate(52.29,301.60) rotate(-28.7)" width="6.30" height="6.20" rx="1.11"/>
<rect fill="#000000" x="-3.13" y="-3.04" transform="translate(41.78,308.26) rotate(-36.5)" width="6.26" height="6.08" rx="0.88"/>
<path fill="#000000" d="
  M 664.4792 325.0567
  A 20.11 20.11 0.0 0 1 649.4084 349.1750
  L 645.6668 350.0388
  A 20.11 20.11 0.0 0 1 621.5485 334.9680
  L 620.3608 329.8233
  A 20.11 20.11 0.0 0 1 635.4316 305.7050
  L 639.1732 304.8412
  A 20.11 20.11 0.0 0 1 663.2915 319.9120
  L 664.4792 325.0567
  Z
  M 645.4838 340.7009
  A 13.62 6.61 77.0 0 0 648.8606 325.9431
  A 13.62 6.61 77.0 0 0 639.3562 314.1591
  A 13.62 6.61 77.0 0 0 635.9794 328.9169
  A 13.62 6.61 77.0 0 0 645.4838 340.7009
  Z"
/>
<path fill="#000000" d="
  M 585.44 327.26
  Q 583.84 327.17 581.94 327.99
  A 1.01 0.99 75.4 0 0 581.35 329.02
  L 582.17 336.51
  A 0.89 0.89 80.2 0 1 581.49 337.48
  L 574.29 339.24
  A 0.84 0.83 76.7 0 1 573.28 338.61
  L 569.45 322.29
  A 0.85 0.84 -13.0 0 1 570.09 321.28
  L 612.12 311.72
  A 0.96 0.96 77.3 0 1 613.27 312.45
  L 616.87 328.28
  A 1.20 1.17 77.5 0 1 615.98 329.71
  L 609.10 331.23
  A 1.10 1.09 74.7 0 1 607.83 330.49
  Q 606.85 327.46 605.47 324.67
  Q 603.86 321.38 600.89 323.68
  A 0.80 0.80 -24.8 0 0 600.59 324.49
  L 605.88 348.10
  A 0.80 0.74 -14.1 0 0 606.86 348.63
  L 612.34 347.18
  A 1.71 1.49 76.4 0 1 614.22 348.51
  L 615.75 355.29
  A 0.91 0.85 77.1 0 1 615.13 356.36
  L 586.91 362.87
  A 0.63 0.61 -13.1 0 1 586.16 362.42
  L 584.11 354.20
  A 0.59 0.56 -12.9 0 1 584.56 353.52
  L 590.43 352.26
  A 1.40 1.35 -12.7 0 0 591.51 350.62
  L 586.07 327.79
  A 0.69 0.69 84.9 0 0 585.44 327.26
  Z"
/>
<rect fill="#000000" x="-3.19" y="-3.05" transform="translate(32.32,316.34) rotate(-43.1)" width="6.38" height="6.10" rx="1.04"/>
<rect fill="#000000" x="-3.07" y="-3.13" transform="translate(24.01,325.52) rotate(39.8)" width="6.14" height="6.26" rx="0.89"/>
<path fill="#000000" d="
  M 519.74 342.78
  Q 519.01 343.14 517.44 343.09
  A 0.65 0.65 -4.5 0 1 516.83 342.57
  L 515.20 334.76
  A 0.84 0.82 -12.1 0 1 515.84 333.79
  L 552.63 325.34
  A 0.57 0.56 -13.4 0 1 553.31 325.75
  L 556.90 341.19
  A 1.24 1.21 -12.6 0 1 555.95 342.65
  L 549.15 344.16
  A 1.24 1.17 73.6 0 1 547.78 343.36
  L 545.67 337.53
  A 0.97 0.94 -16.1 0 0 544.55 336.94
  L 535.91 338.89
  A 0.86 0.85 76.0 0 0 535.28 339.95
  L 536.69 345.32
  A 1.25 1.13 -13.9 0 0 538.16 346.11
  L 543.45 344.88
  A 0.55 0.54 76.6 0 1 544.10 345.29
  L 545.94 353.06
  A 1.19 0.93 -14.1 0 1 545.02 354.25
  L 539.53 355.62
  A 0.58 0.54 76.8 0 0 539.14 356.30
  L 540.68 363.02
  A 0.68 0.64 -12.3 0 0 541.48 363.50
  L 549.44 361.82
  Q 551.57 361.36 551.00 359.27
  Q 550.10 355.88 550.39 352.43
  A 0.68 0.68 -4.0 0 1 550.92 351.82
  L 557.83 350.19
  A 1.16 1.15 77.0 0 1 559.21 351.07
  L 562.93 367.42
  A 0.85 0.85 -12.7 0 1 562.29 368.43
  L 525.74 376.81
  A 0.99 0.97 77.2 0 1 524.58 376.06
  L 523.02 369.30
  A 1.51 1.46 77.3 0 1 524.12 367.50
  Q 526.48 366.98 526.71 365.73
  Q 526.74 365.54 526.21 363.26
  Q 524.02 353.96 521.78 343.76
  A 1.43 1.43 -19.3 0 0 519.74 342.78
  Z"
/>
<rect fill="#000000" x="-3.08" y="-3.16" transform="translate(16.95,335.80) rotate(31.1)" width="6.16" height="6.32" rx="1.31"/>
<path fill="#000000" d="
  M 469.70 363.74
  Q 467.65 360.74 468.50 364.24
  L 471.87 378.23
  A 1.19 1.16 -16.4 0 0 473.41 379.04
  Q 475.70 378.24 476.05 379.84
  Q 476.76 383.10 477.66 386.22
  A 1.56 1.55 -14.3 0 1 476.50 388.17
  L 461.68 391.52
  A 0.69 0.67 -12.6 0 1 460.87 391.02
  L 459.07 383.21
  A 1.02 0.99 -5.2 0 1 460.11 381.99
  Q 463.61 382.16 462.79 379.49
  Q 462.34 378.05 462.32 377.97
  Q 460.11 368.15 457.93 358.29
  A 1.63 1.35 -11.0 0 0 456.11 357.30
  L 453.81 357.70
  A 0.64 0.52 77.0 0 1 453.18 357.21
  L 451.26 349.56
  A 1.04 1.01 -13.2 0 1 452.05 348.32
  L 471.96 343.84
  A 1.62 1.61 -23.6 0 1 473.66 344.50
  L 486.33 363.22
  Q 487.60 365.09 487.95 362.85
  L 491.53 340.15
  A 1.48 1.41 -2.3 0 1 492.66 338.98
  L 510.26 335.00
  A 1.27 1.24 -12.7 0 1 511.77 335.93
  L 513.34 343.03
  A 1.19 1.18 -7.8 0 1 512.24 344.47
  Q 508.82 344.66 509.62 347.08
  Q 510.08 348.46 510.11 348.60
  Q 512.29 358.33 514.63 368.58
  A 1.00 1.00 -19.2 0 0 516.04 369.26
  Q 519.28 367.70 519.74 370.48
  Q 520.03 372.23 520.06 372.37
  Q 520.72 374.87 521.18 377.14
  A 0.73 0.72 -12.3 0 1 520.63 377.99
  L 500.16 382.69
  A 0.54 0.52 -12.9 0 1 499.53 382.31
  L 497.68 374.67
  A 1.20 1.17 -9.4 0 1 498.74 373.23
  Q 500.83 373.03 500.94 371.79
  Q 500.95 371.66 500.53 369.71
  Q 499.12 363.17 497.78 357.66
  Q 497.00 354.44 496.50 357.74
  L 492.59 383.52
  A 0.97 0.89 -9.7 0 1 492.05 384.22
  Q 488.85 385.72 485.32 385.92
  A 0.91 0.88 -18.0 0 1 484.52 385.53
  L 469.70 363.74
  Z"
/>
<rect fill="#000000" x="-3.05" y="-3.15" transform="translate(11.39,346.92) rotate(24.0)" width="6.10" height="6.30" rx="0.96"/>
<path fill="#000000" d="
  M 452.7425 373.7378
  A 20.12 20.12 0.0 0 1 437.4542 397.7356
  L 433.7052 398.5668
  A 20.12 20.12 0.0 0 1 409.7073 383.2785
  L 408.5775 378.1822
  A 20.12 20.12 0.0 0 1 423.8658 354.1844
  L 427.6148 353.3532
  A 20.12 20.12 0.0 0 1 451.6127 368.6415
  L 452.7425 373.7378
  Z
  M 433.6564 389.1228
  A 13.57 6.61 77.2 0 0 437.0957 374.4256
  A 13.57 6.61 77.2 0 0 427.6436 362.6572
  A 13.57 6.61 77.2 0 0 424.2043 377.3544
  A 13.57 6.61 77.2 0 0 433.6564 389.1228
  Z"
/>
<rect fill="#000000" x="-3.11" y="-3.12" transform="translate(7.29,358.64) rotate(13.9)" width="6.22" height="6.24" rx="1.10"/>
<path fill="#000000" d="
  M 373.13 404.38
  Q 369.54 401.59 367.41 397.76
  Q 365.41 394.18 364.39 389.70
  Q 363.29 384.93 364.11 380.13
  Q 364.93 375.28 367.77 371.53
  Q 373.84 363.53 385.17 364.06
  Q 388.40 364.21 391.19 365.81
  Q 393.08 366.90 392.50 364.50
  Q 392.27 363.52 392.61 362.75
  Q 392.89 362.11 393.85 361.81
  Q 396.61 360.94 399.53 360.42
  A 0.54 0.54 78.1 0 1 400.15 360.83
  L 403.94 377.24
  A 1.05 1.02 -13.2 0 1 403.15 378.47
  L 395.29 380.29
  A 1.12 1.11 -11.3 0 1 393.94 379.40
  Q 393.15 374.75 389.39 373.35
  Q 385.93 372.06 382.83 374.05
  Q 379.37 376.26 379.23 381.25
  Q 379.09 385.91 381.17 390.07
  Q 384.31 396.35 391.50 395.72
  Q 399.32 395.03 404.32 389.05
  Q 405.62 387.50 406.08 389.49
  L 408.12 398.41
  Q 408.52 400.17 407.14 401.27
  Q 396.49 409.82 383.00 408.50
  Q 377.80 407.99 373.13 404.38
  Z"
/>
<rect fill="#000000" x="-3.11" y="-3.12" transform="translate(4.84,370.85) rotate(6.8)" width="6.22" height="6.24" rx="1.17"/>
<path fill="#000000" d="
  M 330.87 411.57
  A 0.95 0.82 76.3 0 0 331.43 410.47
  L 326.26 388.14
  A 1.21 1.21 -18.6 0 0 324.58 387.31
  Q 323.48 387.80 322.30 387.74
  A 0.69 0.69 84.9 0 1 321.67 387.21
  L 319.89 379.83
  A 1.20 1.15 -13.2 0 1 320.80 378.43
  L 342.94 373.34
  A 1.12 1.08 76.7 0 1 344.24 374.18
  L 346.01 381.52
  A 1.06 0.99 78.3 0 1 345.23 382.80
  L 341.74 383.42
  A 1.65 1.65 78.4 0 0 340.42 385.42
  L 345.46 407.31
  A 1.23 1.19 -13.1 0 0 346.93 408.19
  L 353.45 406.68
  A 1.36 1.35 80.4 0 0 354.49 405.21
  L 353.57 396.44
  A 0.69 0.62 -9.4 0 1 354.12 395.75
  L 361.18 394.21
  A 1.20 1.19 -12.6 0 1 362.61 395.11
  L 366.65 412.59
  A 0.67 0.66 76.9 0 1 366.16 413.39
  L 330.29 421.63
  A 0.75 0.74 -13.0 0 1 329.40 421.08
  L 327.49 413.44
  A 1.14 0.98 -14.2 0 1 328.35 412.21
  L 330.87 411.57
  Z"
/>
<rect fill="#000000" x="-3.11" y="-3.20" transform="translate(3.89,383.29) rotate(0.6)" width="6.22" height="6.40" rx="1.33"/>
<path fill="#000000" d="
  M 302.57 417.90
  L 311.43 416.27
  A 1.41 1.19 81.3 0 0 312.37 414.73
  L 311.43 407.65
  A 1.23 1.11 -10.9 0 1 312.37 406.40
  L 319.49 404.68
  A 0.68 0.64 -13.0 0 1 320.30 405.15
  L 324.21 422.26
  A 0.76 0.75 -13.0 0 1 323.64 423.16
  L 287.00 431.51
  A 0.90 0.89 -12.9 0 1 285.92 430.84
  L 284.22 423.53
  A 1.26 1.25 -5.7 0 1 285.48 422.00
  Q 288.85 422.08 288.00 419.40
  Q 287.61 418.16 287.58 418.06
  Q 285.17 408.09 282.94 398.10
  A 1.39 1.38 70.7 0 0 280.97 397.15
  Q 278.23 398.49 278.02 396.65
  Q 277.94 395.94 277.92 395.86
  Q 277.30 392.90 276.49 389.96
  A 1.21 1.19 75.8 0 1 277.37 388.47
  L 313.50 380.08
  A 1.06 1.05 76.8 0 1 314.76 380.87
  L 318.25 395.76
  A 1.22 1.19 76.5 0 1 317.38 397.22
  L 310.33 398.92
  A 0.72 0.68 -16.9 0 1 309.50 398.51
  L 307.28 392.57
  A 1.25 1.06 72.9 0 0 306.00 391.75
  L 297.15 393.77
  A 0.56 0.54 77.0 0 0 296.75 394.44
  L 298.12 400.63
  A 0.54 0.49 -13.7 0 0 298.77 400.98
  L 304.34 399.54
  A 0.93 0.85 -13.7 0 1 305.47 400.16
  L 307.15 407.94
  A 0.59 0.55 -13.2 0 1 306.71 408.60
  L 301.29 409.99
  A 1.20 1.11 -14.4 0 0 300.41 411.36
  L 301.94 417.45
  A 0.59 0.54 78.0 0 0 302.57 417.90
  Z"
/>
<path fill="#000000" d="
  M 225.17 410.21
  A 0.98 0.92 -21.1 0 0 224.51 411.57
  Q 229.07 419.76 233.06 427.69
  Q 233.38 428.31 233.78 428.21
  A 0.90 0.55 88.3 0 0 234.22 427.44
  L 235.81 399.00
  A 1.46 1.43 84.9 0 1 236.90 397.67
  L 245.73 395.56
  A 1.21 1.17 69.0 0 1 247.05 396.17
  L 260.82 421.57
  Q 261.92 423.60 261.99 421.28
  Q 262.25 412.80 262.48 404.58
  Q 262.49 404.48 262.60 403.42
  Q 262.84 401.05 259.89 402.23
  A 1.45 1.38 -17.9 0 1 257.96 401.30
  L 256.28 394.19
  A 0.99 0.94 -12.9 0 1 257.03 393.05
  L 273.20 389.41
  A 0.56 0.52 -12.7 0 1 273.85 389.79
  L 275.94 397.99
  A 0.80 0.76 -6.7 0 1 275.15 398.94
  Q 271.83 398.94 271.89 401.74
  Q 271.93 403.71 271.92 403.77
  Q 270.86 417.95 269.86 434.24
  A 1.53 1.47 85.5 0 1 268.73 435.62
  L 255.07 438.83
  A 1.20 1.18 68.6 0 1 253.77 438.25
  L 244.31 421.42
  Q 243.58 420.14 243.47 421.60
  L 242.02 441.03
  A 1.04 1.02 85.9 0 1 241.23 441.96
  L 226.90 445.26
  A 1.05 1.02 68.3 0 1 225.76 444.75
  L 208.69 414.99
  A 1.46 1.13 78.1 0 0 207.97 414.38
  Q 206.72 414.01 205.48 414.76
  A 0.88 0.87 67.0 0 1 204.18 414.23
  L 202.25 406.74
  A 1.00 0.98 76.0 0 1 202.97 405.52
  L 225.77 400.35
  A 0.54 0.51 -12.6 0 1 226.41 400.73
  L 228.14 408.94
  A 0.57 0.53 -12.9 0 1 227.71 409.58
  L 225.17 410.21
  Z"
/>
<rect fill="#000000" x="-3.11" y="-3.14" transform="translate(4.72,395.68) rotate(-5.3)" width="6.22" height="6.28" rx="0.98"/>
<path fill="#000000" d="
  M 665.52 427.19
  Q 666.36 421.24 660.97 423.89
  A 1.00 0.98 70.8 0 1 659.57 423.20
  L 658.08 416.50
  A 0.53 0.52 76.6 0 1 658.46 415.87
  L 674.19 412.26
  A 1.28 1.23 77.0 0 1 675.67 413.23
  L 679.92 431.36
  A 0.93 0.86 65.3 0 1 679.62 432.27
  Q 669.91 439.90 658.26 440.62
  Q 648.70 441.20 642.06 436.65
  Q 636.14 432.59 633.70 425.57
  Q 631.45 419.08 632.62 412.29
  Q 634.94 398.78 650.51 396.07
  Q 656.01 395.11 660.82 397.76
  A 1.30 0.74 39.3 0 0 661.75 397.92
  Q 662.61 397.59 662.18 395.98
  A 1.65 1.43 75.6 0 1 663.17 393.99
  L 669.28 392.58
  A 0.61 0.52 76.7 0 1 669.93 393.05
  L 673.29 407.18
  A 0.57 0.57 73.5 0 1 672.93 407.85
  Q 668.38 409.46 664.01 409.95
  A 0.78 0.77 -17.8 0 1 663.26 409.57
  Q 659.32 402.59 653.33 405.50
  Q 649.45 407.39 648.26 411.37
  Q 647.11 415.23 648.50 419.75
  Q 652.42 432.46 664.96 427.87
  A 0.87 0.84 -6.6 0 0 665.52 427.19
  Z"
/>
<path fill="#000000" d="
  M 595.88 430.12
  Q 595.51 429.73 595.26 429.90
  A 0.82 0.45 73.0 0 0 595.10 430.67
  L 597.94 443.08
  A 1.24 1.22 70.6 0 0 599.67 443.92
  Q 600.78 443.38 602.08 443.59
  A 0.78 0.73 -1.3 0 1 602.72 444.16
  L 604.39 451.94
  A 0.56 0.52 -12.4 0 1 603.96 452.57
  L 587.75 456.29
  A 0.70 0.68 77.3 0 1 586.92 455.75
  L 585.40 448.35
  A 1.37 1.34 -4.6 0 1 586.80 446.74
  Q 589.92 446.86 589.18 444.00
  Q 586.84 435.05 584.74 426.04
  Q 584.72 425.95 584.47 423.93
  Q 584.12 421.13 580.71 422.63
  A 0.96 0.94 -18.8 0 1 579.40 422.00
  L 577.51 414.56
  A 1.00 1.00 -13.4 0 1 578.26 413.35
  L 595.77 409.27
  A 1.76 1.73 61.1 0 1 597.41 409.76
  L 615.48 428.48
  Q 617.40 430.47 616.75 427.76
  L 614.00 416.25
  A 1.45 1.43 70.4 0 0 611.98 415.27
  Q 609.55 416.44 609.10 414.43
  Q 608.37 411.20 607.35 407.45
  A 0.76 0.75 75.8 0 1 607.90 406.52
  L 623.90 402.83
  A 0.79 0.78 -13.2 0 1 624.85 403.41
  L 626.65 411.26
  A 0.66 0.65 70.2 0 1 626.31 412.00
  Q 625.24 412.54 623.98 412.50
  A 1.22 1.22 84.4 0 0 622.75 414.00
  L 630.14 445.87
  A 0.84 0.84 -13.1 0 1 629.51 446.88
  L 616.60 449.92
  A 2.33 2.31 -28.6 0 1 614.41 449.29
  Q 604.74 439.51 595.88 430.12
  Z"
/>
<rect fill="#000000" x="-3.08" y="-3.19" transform="translate(7.11,407.85) rotate(-15.7)" width="6.16" height="6.38" rx="1.21"/>
<path fill="#000000" d="
  M 577.15 448.00
  A 1.34 1.33 -21.1 0 0 579.10 448.86
  Q 580.53 448.07 581.43 448.36
  Q 582.17 448.60 582.43 450.03
  Q 582.95 452.81 583.78 455.60
  A 1.62 1.59 75.5 0 1 582.61 457.63
  L 561.91 462.32
  A 1.19 1.18 -12.8 0 1 560.48 461.43
  L 558.91 454.30
  A 0.87 0.82 64.6 0 1 559.18 453.47
  Q 560.42 452.42 562.21 452.50
  A 0.87 0.87 -5.3 0 0 563.10 451.43
  L 557.68 428.68
  A 0.63 0.55 80.5 0 0 557.07 428.18
  L 553.67 428.47
  A 0.66 0.59 -11.0 0 1 553.01 428.08
  Q 551.63 424.19 551.34 420.06
  A 0.60 0.59 82.1 0 1 551.80 419.44
  L 573.63 414.37
  A 0.52 0.51 76.6 0 1 574.25 414.76
  L 576.29 422.91
  A 0.54 0.53 75.0 0 1 575.92 423.56
  L 572.39 424.49
  A 0.74 0.70 -13.9 0 0 571.85 425.34
  L 577.15 448.00
  Z"
/>
<rect fill="#000000" x="-3.06" y="-3.20" transform="translate(11.15,419.62) rotate(-23.4)" width="6.12" height="6.40" rx="1.15"/>
<path fill="#000000" d="
  M 533.20 433.75
  Q 532.00 434.05 531.23 433.08
  Q 530.81 432.54 530.60 431.30
  Q 530.15 428.54 529.33 425.33
  A 0.81 0.81 -14.0 0 1 529.93 424.34
  L 546.27 420.63
  A 0.63 0.58 -12.9 0 1 547.01 421.06
  L 548.86 429.19
  A 0.52 0.46 -11.8 0 1 548.44 429.76
  Q 545.68 430.27 544.12 432.60
  Q 541.02 437.24 537.77 441.72
  Q 536.67 443.24 538.49 442.75
  Q 544.26 441.20 547.70 445.10
  Q 548.77 446.32 549.68 448.78
  Q 550.41 450.76 551.08 452.76
  Q 552.04 455.65 555.17 453.91
  A 0.96 0.95 -27.4 0 1 556.50 454.33
  Q 558.30 458.06 558.32 462.56
  A 0.69 0.68 -8.7 0 1 557.83 463.21
  Q 548.93 465.87 545.56 465.69
  Q 539.20 465.35 537.52 459.25
  Q 536.96 457.23 536.36 455.23
  Q 535.52 452.44 534.34 451.74
  Q 532.38 450.58 528.79 451.98
  A 1.38 1.37 71.8 0 0 527.97 453.61
  Q 528.38 455.12 528.76 456.43
  Q 528.78 456.51 529.09 458.10
  Q 529.55 460.50 532.26 459.25
  A 0.77 0.76 70.7 0 1 533.33 459.77
  L 535.16 467.40
  A 1.13 1.12 -13.5 0 1 534.32 468.76
  L 514.25 473.37
  A 0.57 0.54 -12.9 0 1 513.57 472.97
  L 511.80 465.24
  A 1.29 1.26 -7.2 0 1 513.02 463.70
  Q 516.18 463.60 515.45 461.28
  Q 515.15 460.32 515.12 460.19
  Q 512.94 450.60 510.97 440.96
  Q 510.30 437.68 506.99 439.51
  A 0.81 0.80 -21.5 0 1 505.82 439.01
  L 503.85 431.00
  A 0.66 0.66 -13.1 0 1 504.35 430.21
  L 523.99 425.76
  A 1.22 1.21 78.4 0 1 525.45 426.73
  Q 526.08 430.19 526.97 433.30
  Q 527.45 434.97 525.33 435.23
  A 1.43 1.37 79.6 0 0 524.18 436.97
  L 525.90 444.21
  Q 526.28 445.79 527.18 444.45
  L 533.80 434.63
  Q 534.65 433.38 533.20 433.75
  Z"
/>
<rect fill="#000000" x="-3.06" y="-3.19" transform="translate(16.71,430.69) rotate(-30.0)" width="6.12" height="6.38" rx="1.13"/>
<path fill="#000000" d="
  M 463.14 451.15
  A 1.68 1.66 -15.0 0 0 461.01 449.94
  Q 458.21 450.79 457.87 448.77
  Q 457.30 445.49 456.50 442.24
  A 1.02 1.02 76.6 0 1 457.26 441.00
  Q 469.46 438.19 481.69 435.44
  Q 485.56 434.56 488.25 434.52
  Q 497.71 434.37 500.33 443.26
  Q 502.18 449.50 497.29 453.82
  A 0.66 0.66 38.6 0 0 497.41 454.89
  Q 502.53 457.75 503.19 462.42
  Q 503.81 466.76 507.52 464.96
  A 1.49 1.47 -19.3 0 1 509.62 465.95
  L 511.18 473.04
  A 0.97 0.95 -13.0 0 1 510.45 474.18
  Q 506.14 475.20 501.85 476.23
  Q 494.10 478.09 490.79 471.98
  Q 490.19 470.88 489.61 468.39
  Q 489.18 466.54 488.57 464.73
  Q 487.35 461.06 481.71 462.80
  A 1.50 1.42 -15.5 0 0 480.68 464.50
  L 482.00 470.05
  A 0.89 0.87 -19.6 0 0 483.24 470.62
  Q 485.95 469.35 486.33 471.74
  Q 486.83 474.94 487.71 478.14
  A 1.19 1.17 -14.2 0 1 486.83 479.59
  L 467.13 484.16
  A 0.91 0.90 -11.0 0 1 466.03 483.43
  Q 465.50 480.19 464.35 477.31
  Q 463.31 474.69 466.62 474.46
  A 1.54 1.53 -8.4 0 0 468.01 472.60
  L 463.14 451.15
  Z
  M 482.43 445.08
  Q 479.63 444.82 476.99 446.31
  A 0.71 0.66 -21.8 0 0 476.64 447.05
  L 478.05 452.85
  Q 478.93 456.47 482.64 454.57
  Q 488.19 451.72 486.56 447.92
  Q 485.46 445.35 482.43 445.08
  Z"
/>
<rect fill="#000000" x="-3.04" y="-3.15" transform="translate(23.73,440.99) rotate(-38.5)" width="6.08" height="6.30" rx="0.99"/>
<path fill="#000000" d="
  M 420.43 459.31
  L 417.13 460.17
  A 1.72 1.45 -14.1 0 1 415.10 459.18
  L 413.29 451.73
  A 0.61 0.61 77.2 0 1 413.74 451.00
  L 439.20 445.17
  A 1.00 0.99 68.4 0 1 440.29 445.65
  Q 449.19 461.20 456.93 475.04
  Q 458.00 476.94 460.02 475.84
  A 1.23 1.22 68.4 0 1 461.79 476.62
  L 463.75 484.02
  A 0.71 0.70 75.4 0 1 463.24 484.90
  L 440.50 490.20
  A 0.96 0.95 76.9 0 1 439.36 489.48
  L 437.69 482.24
  A 1.22 1.21 -7.1 0 1 438.86 480.75
  Q 440.00 480.73 441.00 480.19
  A 0.75 0.74 72.5 0 0 441.39 479.43
  Q 441.09 477.41 439.43 476.27
  A 1.28 1.07 52.8 0 0 438.51 476.06
  L 429.72 477.94
  A 1.65 1.43 -86.2 0 0 428.59 479.08
  Q 427.19 483.96 430.77 482.49
  Q 432.57 481.76 433.01 483.74
  L 434.46 490.34
  A 1.15 1.10 77.2 0 1 433.64 491.71
  L 417.55 495.34
  A 0.54 0.50 -12.7 0 1 416.91 494.97
  L 414.99 486.65
  A 0.58 0.55 -1.4 0 1 415.66 485.99
  Q 417.26 486.23 418.10 485.39
  Q 418.65 484.84 418.81 483.31
  Q 420.10 471.58 420.90 459.80
  A 0.45 0.38 86.7 0 0 420.43 459.31
  Z
  M 429.69 459.67
  L 428.99 470.10
  A 0.67 0.66 -5.2 0 0 429.82 470.78
  L 435.24 469.44
  A 0.86 0.81 69.4 0 0 435.74 468.24
  L 431.32 459.41
  Q 429.90 456.58 429.69 459.67
  Z"
/>
<rect fill="#000000" x="-3.01" y="-3.07" transform="translate(31.97,450.09) rotate(44.4)" width="6.02" height="6.14" rx="0.91"/>
<rect fill="#000000" x="-2.82" y="-3.07" transform="translate(40.42,457.50) rotate(38.0)" width="5.64" height="6.14" rx="1.10"/>
<path fill="#000000" d="
  M 391.62 485.24
  L 393.00 490.23
  A 1.32 1.22 -14.3 0 0 394.56 491.07
  L 400.46 489.65
  A 0.66 0.61 77.3 0 1 401.21 490.17
  L 402.86 497.74
  A 1.00 0.98 77.4 0 1 402.13 498.91
  L 377.99 504.40
  A 0.60 0.59 72.6 0 1 377.31 504.04
  Q 375.68 499.88 375.39 496.27
  A 1.33 1.33 -5.2 0 1 376.61 494.83
  Q 378.99 494.62 379.15 493.41
  Q 379.17 493.30 378.68 491.20
  Q 376.34 481.18 373.96 470.73
  A 0.82 0.73 77.5 0 0 373.08 470.09
  L 370.62 470.62
  A 1.24 1.10 -12.3 0 1 369.19 469.82
  L 367.53 462.67
  A 0.98 0.96 76.6 0 1 368.23 461.51
  Q 376.83 459.34 384.72 457.66
  Q 384.81 457.64 389.12 456.59
  Q 394.34 455.32 399.75 455.53
  Q 403.68 455.68 406.55 457.82
  Q 408.99 459.64 410.56 463.35
  Q 414.66 473.09 406.72 479.12
  Q 404.04 481.15 399.80 482.49
  Q 396.10 483.66 392.23 484.25
  A 0.79 0.76 77.7 0 0 391.62 485.24
  Z
  M 390.68 476.04
  Q 394.48 475.76 397.10 473.06
  A 1.29 1.24 67.6 0 0 397.44 472.19
  Q 397.40 462.76 388.27 466.37
  A 0.70 0.70 77.1 0 0 387.84 467.06
  Q 388.11 471.55 389.97 475.60
  A 0.76 0.72 75.1 0 0 390.68 476.04
  Z"
/>
<rect fill="#000000" x="-2.81" y="-3.11" transform="translate(49.54,463.72) rotate(30.9)" width="5.62" height="6.22" rx="1.29"/>
<path fill="#000000" d="
  M 351.45 475.39
  Q 349.06 475.66 348.75 473.50
  Q 348.26 470.07 347.32 466.96
  A 0.82 0.80 -15.3 0 1 347.92 465.94
  L 363.06 462.44
  A 1.29 1.27 -13.2 0 1 364.60 463.38
  L 366.27 470.32
  A 1.32 1.32 83.4 0 1 364.99 471.94
  Q 363.64 471.94 362.60 472.89
  Q 361.95 473.49 361.36 474.97
  Q 358.72 481.63 355.22 488.92
  A 4.97 3.25 61.0 0 0 355.01 491.82
  L 356.29 497.79
  A 1.82 1.70 76.9 0 0 358.39 499.20
  L 363.37 497.97
  A 1.22 1.19 -14.0 0 1 364.84 498.83
  L 366.54 505.78
  A 1.40 1.35 -13.5 0 1 365.49 507.43
  L 338.53 513.62
  A 1.24 1.22 76.6 0 1 337.07 512.70
  L 335.44 506.05
  A 1.64 1.56 -14.1 0 1 336.63 504.16
  L 342.27 502.67
  A 0.77 0.74 78.7 0 0 342.80 501.83
  Q 342.25 497.99 341.00 494.57
  Q 340.29 492.64 338.47 491.25
  Q 332.40 486.63 325.49 481.63
  A 1.86 1.86 47.7 0 0 323.45 481.53
  Q 322.02 482.36 321.07 481.37
  Q 320.57 480.84 320.34 479.48
  Q 319.89 476.81 319.11 474.33
  A 1.58 1.58 -15.1 0 1 320.27 472.32
  L 342.37 467.28
  A 0.99 0.98 77.2 0 1 343.55 468.03
  L 345.20 475.30
  A 1.19 1.15 72.7 0 1 344.52 476.65
  Q 342.31 477.56 344.07 478.73
  Q 346.32 480.22 348.58 481.72
  A 0.52 0.51 33.7 0 0 349.29 481.59
  Q 351.07 478.92 351.83 475.79
  A 0.34 0.33 2.8 0 0 351.45 475.39
  Z"
/>
<rect fill="#000000" x="-2.87" y="-3.06" transform="translate(59.44,468.85) rotate(25.5)" width="5.74" height="6.12" rx="0.92"/>
<rect fill="#000000" x="-3.07" y="-3.09" transform="translate(70.24,473.66) rotate(24.0)" width="6.14" height="6.18" rx="1.05"/>
<path fill="#000000" d="
  M 296.09 496.51
  Q 296.52 498.26 297.55 496.74
  L 303.94 487.39
  A 1.11 0.48 -49.5 0 0 304.21 486.51
  Q 303.96 485.93 302.63 486.20
  A 1.21 1.14 -11.6 0 1 301.22 485.33
  L 299.64 477.81
  A 0.54 0.53 -12.6 0 1 300.05 477.18
  L 316.18 473.42
  A 0.76 0.75 -13.7 0 1 317.09 473.96
  L 319.00 481.72
  A 0.82 0.75 -11.6 0 1 318.32 482.65
  Q 315.31 483.17 314.10 485.29
  Q 313.17 486.91 313.11 487.00
  Q 310.38 490.82 307.94 494.62
  Q 307.55 495.23 308.27 495.16
  Q 319.12 494.16 320.56 503.99
  Q 321.17 508.21 325.83 506.64
  A 0.97 0.95 -16.8 0 1 327.07 507.29
  L 329.03 514.88
  A 0.78 0.77 -13.8 0 1 328.45 515.83
  Q 323.17 517.09 318.56 518.06
  Q 310.88 519.68 308.06 513.19
  Q 307.69 512.34 306.80 508.75
  Q 306.07 505.81 304.85 504.67
  Q 302.26 502.22 298.46 504.78
  A 0.75 0.72 -24.2 0 0 298.15 505.55
  L 299.51 511.55
  A 1.18 1.13 -19.9 0 0 301.17 512.29
  Q 303.49 511.13 303.95 513.46
  Q 304.60 516.73 305.35 520.48
  A 0.70 0.69 -12.0 0 1 304.82 521.29
  L 284.78 525.93
  A 1.01 1.00 -13.7 0 1 283.57 525.20
  Q 282.83 522.30 282.29 519.36
  Q 282.27 519.26 282.02 518.29
  Q 281.48 516.21 284.02 516.25
  Q 286.08 516.28 285.62 514.28
  L 280.63 492.56
  A 1.42 1.42 70.5 0 0 278.62 491.60
  Q 276.05 492.86 275.78 491.12
  Q 275.60 490.00 275.57 489.90
  Q 274.73 486.96 274.20 483.68
  A 0.79 0.78 -11.4 0 1 274.80 482.79
  L 294.13 478.35
  A 1.22 1.21 -12.3 0 1 295.60 479.28
  Q 296.42 483.27 297.00 486.54
  Q 297.22 487.78 295.43 487.82
  A 1.17 1.17 -7.7 0 0 294.32 489.27
  L 296.09 496.51
  Z"
/>
<rect fill="#000000" x="-3.16" y="-3.11" transform="translate(81.73,478.23) rotate(19.6)" width="6.32" height="6.22" rx="1.20"/>
<rect fill="#000000" x="-1.67" y="-3.11" transform="translate(205.21,479.88) rotate(-7.6)" width="3.34" height="6.22" rx="0.95"/>
<rect fill="#000000" x="-3.30" y="-3.05" transform="translate(193.94,481.32) rotate(-7.0)" width="6.60" height="6.10" rx="1.05"/>
<rect fill="#000000" x="-3.10" y="-3.09" transform="translate(93.63,481.98) rotate(13.6)" width="6.20" height="6.18" rx="0.99"/>
<rect fill="#000000" x="-3.31" y="-3.08" transform="translate(181.08,482.97) rotate(-6.1)" width="6.62" height="6.16" rx="1.08"/>
<rect fill="#000000" x="-3.14" y="-3.09" transform="translate(105.77,484.70) rotate(11.3)" width="6.28" height="6.18" rx="1.13"/>
<rect fill="#000000" x="-3.25" y="-3.07" transform="translate(168.23,484.58) rotate(-7.8)" width="6.50" height="6.14" rx="0.89"/>
<rect fill="#000000" x="-3.20" y="-3.08" transform="translate(155.42,486.17) rotate(-8.0)" width="6.40" height="6.16" rx="0.92"/>
<rect fill="#000000" x="-3.17" y="-3.08" transform="translate(118.06,486.57) rotate(6.2)" width="6.34" height="6.16" rx="0.82"/>
<rect fill="#000000" x="-3.20" y="-3.12" transform="translate(130.54,487.40) rotate(1.4)" width="6.40" height="6.24" rx="1.17"/>
<rect fill="#000000" x="-3.18" y="-3.10" transform="translate(142.92,487.34) rotate(-2.2)" width="6.36" height="6.20" rx="1.01"/>
<path fill="#000000" d="
  M 249.39 530.56
  Q 249.61 532.29 248.71 533.48
  Q 248.05 534.35 246.31 534.72
  Q 244.51 535.09 242.69 535.51
  A 1.06 1.05 -13.2 0 1 241.42 534.73
  L 238.57 522.72
  A 1.52 1.41 78.1 0 1 239.66 520.90
  L 247.68 519.37
  A 0.88 0.77 64.0 0 1 248.48 519.71
  Q 253.08 525.72 260.27 523.66
  Q 262.04 523.15 262.90 522.31
  Q 264.35 520.89 263.30 518.98
  Q 262.00 516.61 259.30 516.73
  Q 253.87 516.96 249.00 516.89
  Q 236.68 516.73 234.50 505.00
  Q 232.76 495.66 240.87 490.82
  Q 251.00 484.76 260.82 489.32
  Q 262.52 490.11 262.07 488.29
  Q 261.47 485.85 263.38 485.26
  Q 266.09 484.41 268.93 484.32
  A 0.65 0.59 -7.0 0 1 269.58 484.78
  L 272.42 497.26
  A 0.59 0.55 -16.0 0 1 272.03 497.91
  Q 269.32 498.84 266.50 499.39
  Q 266.36 499.42 264.68 499.92
  Q 262.88 500.45 261.74 499.13
  Q 260.49 497.68 260.44 497.64
  Q 256.03 493.96 250.83 496.27
  Q 249.01 497.08 248.44 498.53
  Q 247.47 500.96 250.76 502.00
  Q 253.18 502.77 255.70 502.48
  Q 259.50 502.03 263.51 502.28
  Q 275.43 503.01 277.48 514.75
  Q 278.37 519.81 276.14 523.78
  Q 274.24 527.16 269.70 529.43
  Q 260.33 534.12 249.78 530.24
  A 0.30 0.29 -84.0 0 0 249.39 530.56
  Z"
/>
</svg>
